<svg width="1920" height="1080" viewBox="0 0 1920 1080" fill="none" xmlns="http://www.w3.org/2000/svg">
<rect width="1920" height="1080" fill="white"/>
<g filter="url(#filter0_d)">
<rect x="517" y="85" width="811" height="900" rx="50" fill="url(#paint0_linear)" shape-rendering="crispEdges"/>
<rect x="518" y="86" width="809" height="898" rx="49" stroke="black" stroke-width="2" shape-rendering="crispEdges"/>
</g>
<g filter="url(#filter1_d)">
<g filter="url(#filter2_d)">
<rect x="1566" y="480" width="280" height="281" rx="30" fill="url(#paint1_linear)" shape-rendering="crispEdges"/>
</g>
<path d="M1815.38 482.458H1596.63C1580.52 482.458 1567.46 495.517 1567.46 511.625V730.375C1567.46 746.483 1580.52 759.542 1596.63 759.542H1815.38C1831.48 759.542 1844.54 746.483 1844.54 730.375V511.625C1844.54 495.517 1831.48 482.458 1815.38 482.458Z" stroke="black" stroke-width="2"/>
<path d="M1706 562.667H1603.92C1595.86 562.667 1589.33 569.196 1589.33 577.25V723.083C1589.33 731.137 1595.86 737.667 1603.92 737.667H1706C1714.05 737.667 1720.58 731.137 1720.58 723.083V577.25C1720.58 569.196 1714.05 562.667 1706 562.667Z" fill="#CCCCCC"/>
<path d="M1698.71 569.958H1611.21C1603.15 569.958 1596.62 576.487 1596.62 584.542V715.792C1596.62 723.846 1603.15 730.375 1611.21 730.375H1698.71C1706.76 730.375 1713.29 723.846 1713.29 715.792V584.542C1713.29 576.487 1706.76 569.958 1698.71 569.958Z" stroke="black" stroke-width="2"/>
<path d="M1567.46 540.792H1844.54" stroke="black" stroke-width="2" stroke-linecap="square"/>
<path d="M1742.46 715.792H1815.38M1742.46 584.542H1815.38H1742.46ZM1742.46 628.292H1815.38H1742.46ZM1742.46 672.042H1815.38H1742.46Z" stroke="black" stroke-width="2" stroke-linecap="round"/>
<path d="M1729.63 526.208C1737.68 526.208 1744.21 519.679 1744.21 511.625C1744.21 503.571 1737.68 497.042 1729.63 497.042C1721.57 497.042 1715.04 503.571 1715.04 511.625C1715.04 519.679 1721.57 526.208 1729.63 526.208Z" fill="#2DB832"/>
<path d="M1769.79 526.208C1777.85 526.208 1784.38 519.679 1784.38 511.625C1784.38 503.571 1777.85 497.042 1769.79 497.042C1761.74 497.042 1755.21 503.571 1755.21 511.625C1755.21 519.679 1761.74 526.208 1769.79 526.208Z" fill="#F3E13D"/>
<path d="M1805.96 526.208C1814.01 526.208 1820.54 519.679 1820.54 511.625C1820.54 503.571 1814.01 497.042 1805.96 497.042C1797.9 497.042 1791.38 503.571 1791.38 511.625C1791.38 519.679 1797.9 526.208 1805.96 526.208Z" fill="#EB3232"/>
</g>
<g filter="url(#filter3_d)">
<rect x="586" y="128" width="550" height="375" rx="20" fill="url(#paint2_linear)" shape-rendering="crispEdges"/>
<rect x="587" y="129" width="548" height="373" rx="19" stroke="black" stroke-width="2" shape-rendering="crispEdges"/>
</g>
<rect x="791" y="396" width="148" height="63" fill="#33428D" stroke="black" stroke-width="2"/>
<rect x="643" y="223" width="148" height="63" fill="#33428D" stroke="black" stroke-width="2"/>
<rect x="943" y="223" width="148" height="63" fill="#33428D" stroke="black" stroke-width="2"/>
<path d="M971.066 288.465L943.182 295.936L963.595 316.348L971.066 288.465ZM866.768 396.298L956.924 306.142L953.388 302.607L863.232 392.763L866.768 396.298Z" fill="black"/>
<path d="M942 255L917 240.566V269.434L942 255ZM792 257.5H919.5V252.5H792V257.5Z" fill="black"/>
<path d="M759 289L766.471 316.884L786.884 296.471L759 289ZM866.834 393.298L776.678 303.142L773.142 306.678L863.298 396.834L866.834 393.298Z" fill="black"/>
<path d="M772.309 167.426C772.309 170.082 771.879 172.393 771.02 174.359C770.16 176.312 768.969 177.882 767.445 179.066L772.172 182.777L768.441 186.078L762.387 181.215C761.697 181.332 760.98 181.391 760.238 181.391C757.882 181.391 755.779 180.824 753.93 179.691C752.081 178.559 750.648 176.944 749.633 174.848C748.617 172.738 748.103 170.316 748.09 167.582V166.176C748.09 163.376 748.591 160.915 749.594 158.793C750.609 156.658 752.035 155.023 753.871 153.891C755.72 152.745 757.829 152.172 760.199 152.172C762.569 152.172 764.672 152.745 766.508 153.891C768.357 155.023 769.783 156.658 770.785 158.793C771.801 160.915 772.309 163.37 772.309 166.156V167.426ZM766.371 166.137C766.371 163.155 765.837 160.889 764.77 159.34C763.702 157.79 762.178 157.016 760.199 157.016C758.233 157.016 756.716 157.784 755.648 159.32C754.581 160.844 754.04 163.083 754.027 166.039V167.426C754.027 170.329 754.561 172.582 755.629 174.184C756.697 175.785 758.233 176.586 760.238 176.586C762.204 176.586 763.715 175.818 764.77 174.281C765.824 172.732 766.358 170.479 766.371 167.523V166.137ZM788.891 178.852C787.497 180.544 785.57 181.391 783.109 181.391C780.844 181.391 779.112 180.74 777.914 179.438C776.729 178.135 776.124 176.228 776.098 173.715V159.867H781.742V173.52C781.742 175.72 782.745 176.82 784.75 176.82C786.664 176.82 787.979 176.156 788.695 174.828V159.867H794.359V181H789.047L788.891 178.852ZM808.344 181.391C805.245 181.391 802.719 180.44 800.766 178.539C798.826 176.638 797.855 174.105 797.855 170.941V170.395C797.855 168.272 798.266 166.378 799.086 164.711C799.906 163.031 801.065 161.742 802.562 160.844C804.073 159.932 805.792 159.477 807.719 159.477C810.609 159.477 812.882 160.388 814.535 162.211C816.202 164.034 817.035 166.618 817.035 169.965V172.27H803.578C803.76 173.65 804.307 174.757 805.219 175.59C806.143 176.423 807.309 176.84 808.715 176.84C810.889 176.84 812.589 176.052 813.812 174.477L816.586 177.582C815.74 178.78 814.594 179.717 813.148 180.395C811.703 181.059 810.102 181.391 808.344 181.391ZM807.699 164.047C806.579 164.047 805.668 164.424 804.965 165.18C804.275 165.935 803.832 167.016 803.637 168.422H811.488V167.973C811.462 166.723 811.124 165.759 810.473 165.082C809.822 164.392 808.897 164.047 807.699 164.047ZM832.133 165.16C831.365 165.056 830.688 165.004 830.102 165.004C827.966 165.004 826.566 165.727 825.902 167.172V181H820.258V159.867H825.59L825.746 162.387C826.879 160.447 828.448 159.477 830.453 159.477C831.078 159.477 831.664 159.561 832.211 159.73L832.133 165.16ZM843.109 173.012L847.016 159.867H853.07L844.574 184.281L844.105 185.395C842.842 188.155 840.759 189.535 837.855 189.535C837.035 189.535 836.202 189.411 835.355 189.164V184.887L836.215 184.906C837.283 184.906 838.077 184.743 838.598 184.418C839.132 184.092 839.548 183.552 839.848 182.797L840.512 181.059L833.109 159.867H839.184L843.109 173.012ZM873.285 152.562L880.59 173.188L887.855 152.562H895.551V181H889.672V173.227L890.258 159.809L882.582 181H878.559L870.902 159.828L871.488 173.227V181H865.629V152.562H873.285ZM899.418 170.238C899.418 168.142 899.822 166.273 900.629 164.633C901.436 162.992 902.595 161.723 904.105 160.824C905.629 159.926 907.393 159.477 909.398 159.477C912.25 159.477 914.574 160.349 916.371 162.094C918.181 163.839 919.19 166.208 919.398 169.203L919.438 170.648C919.438 173.891 918.533 176.495 916.723 178.461C914.913 180.414 912.484 181.391 909.438 181.391C906.391 181.391 903.956 180.414 902.133 178.461C900.323 176.508 899.418 173.852 899.418 170.492V170.238ZM905.062 170.648C905.062 172.654 905.44 174.19 906.195 175.258C906.951 176.312 908.031 176.84 909.438 176.84C910.805 176.84 911.872 176.319 912.641 175.277C913.409 174.223 913.793 172.543 913.793 170.238C913.793 168.272 913.409 166.749 912.641 165.668C911.872 164.587 910.792 164.047 909.398 164.047C908.018 164.047 906.951 164.587 906.195 165.668C905.44 166.736 905.062 168.396 905.062 170.648ZM922.035 170.277C922.035 166.983 922.771 164.359 924.242 162.406C925.727 160.453 927.751 159.477 930.316 159.477C932.374 159.477 934.073 160.245 935.414 161.781V151H941.078V181H935.98L935.707 178.754C934.301 180.512 932.491 181.391 930.277 181.391C927.79 181.391 925.792 180.414 924.281 178.461C922.784 176.495 922.035 173.767 922.035 170.277ZM927.68 170.688C927.68 172.667 928.025 174.184 928.715 175.238C929.405 176.293 930.408 176.82 931.723 176.82C933.467 176.82 934.698 176.085 935.414 174.613V166.273C934.711 164.802 933.493 164.066 931.762 164.066C929.04 164.066 927.68 166.273 927.68 170.688ZM955.18 181.391C952.081 181.391 949.555 180.44 947.602 178.539C945.661 176.638 944.691 174.105 944.691 170.941V170.395C944.691 168.272 945.102 166.378 945.922 164.711C946.742 163.031 947.901 161.742 949.398 160.844C950.909 159.932 952.628 159.477 954.555 159.477C957.445 159.477 959.717 160.388 961.371 162.211C963.038 164.034 963.871 166.618 963.871 169.965V172.27H950.414C950.596 173.65 951.143 174.757 952.055 175.59C952.979 176.423 954.145 176.84 955.551 176.84C957.725 176.84 959.424 176.052 960.648 174.477L963.422 177.582C962.576 178.78 961.43 179.717 959.984 180.395C958.539 181.059 956.938 181.391 955.18 181.391ZM954.535 164.047C953.415 164.047 952.504 164.424 951.801 165.18C951.111 165.935 950.668 167.016 950.473 168.422H958.324V167.973C958.298 166.723 957.96 165.759 957.309 165.082C956.658 164.392 955.733 164.047 954.535 164.047ZM973.051 181H967.387V151H973.051V181Z" fill="black"/>
<g filter="url(#filter4_d)">
<rect x="586" y="569" width="550" height="375" rx="20" fill="url(#paint3_linear)" shape-rendering="crispEdges"/>
<rect x="587" y="570" width="548" height="373" rx="19" stroke="black" stroke-width="2" shape-rendering="crispEdges"/>
</g>
<path d="M1017 723L1002.57 748H1031.43L1017 723ZM1019.5 828V745.5H1014.5V828H1019.5Z" fill="black"/>
<path d="M942.029 691.014L917.029 676.581V705.448L942.029 691.014ZM792.029 693.514H919.529V688.514H792.029V693.514Z" fill="black"/>
<path d="M732.406 607.527C732.185 610.587 731.052 612.996 729.008 614.754C726.977 616.512 724.294 617.391 720.961 617.391C717.315 617.391 714.444 616.167 712.348 613.719C710.264 611.258 709.223 607.885 709.223 603.602V601.863C709.223 599.129 709.704 596.72 710.668 594.637C711.632 592.553 713.005 590.958 714.789 589.852C716.586 588.732 718.669 588.172 721.039 588.172C724.32 588.172 726.964 589.051 728.969 590.809C730.974 592.566 732.133 595.034 732.445 598.211H726.586C726.443 596.375 725.928 595.047 725.043 594.227C724.171 593.393 722.836 592.977 721.039 592.977C719.086 592.977 717.621 593.68 716.645 595.086C715.681 596.479 715.186 598.647 715.16 601.59V603.738C715.16 606.811 715.622 609.057 716.547 610.477C717.484 611.896 718.956 612.605 720.961 612.605C722.771 612.605 724.118 612.195 725.004 611.375C725.902 610.542 726.417 609.259 726.547 607.527H732.406ZM735.004 606.238C735.004 604.142 735.408 602.273 736.215 600.633C737.022 598.992 738.181 597.723 739.691 596.824C741.215 595.926 742.979 595.477 744.984 595.477C747.836 595.477 750.16 596.349 751.957 598.094C753.767 599.839 754.776 602.208 754.984 605.203L755.023 606.648C755.023 609.891 754.118 612.495 752.309 614.461C750.499 616.414 748.07 617.391 745.023 617.391C741.977 617.391 739.542 616.414 737.719 614.461C735.909 612.508 735.004 609.852 735.004 606.492V606.238ZM740.648 606.648C740.648 608.654 741.026 610.19 741.781 611.258C742.536 612.312 743.617 612.84 745.023 612.84C746.391 612.84 747.458 612.319 748.227 611.277C748.995 610.223 749.379 608.543 749.379 606.238C749.379 604.272 748.995 602.749 748.227 601.668C747.458 600.587 746.378 600.047 744.984 600.047C743.604 600.047 742.536 600.587 741.781 601.668C741.026 602.736 740.648 604.396 740.648 606.648ZM763.793 595.867L763.969 598.23C765.466 596.395 767.491 595.477 770.043 595.477C772.764 595.477 774.633 596.551 775.648 598.699C777.133 596.551 779.249 595.477 781.996 595.477C784.288 595.477 785.993 596.147 787.113 597.488C788.233 598.816 788.793 600.822 788.793 603.504V617H783.129V603.523C783.129 602.326 782.895 601.453 782.426 600.906C781.957 600.346 781.13 600.066 779.945 600.066C778.253 600.066 777.081 600.874 776.43 602.488L776.449 617H770.805V603.543C770.805 602.319 770.564 601.434 770.082 600.887C769.6 600.34 768.78 600.066 767.621 600.066C766.02 600.066 764.861 600.73 764.145 602.059V617H758.5V595.867H763.793ZM798.441 595.867L798.617 598.23C800.115 596.395 802.139 595.477 804.691 595.477C807.413 595.477 809.281 596.551 810.297 598.699C811.781 596.551 813.897 595.477 816.645 595.477C818.936 595.477 820.642 596.147 821.762 597.488C822.882 598.816 823.441 600.822 823.441 603.504V617H817.777V603.523C817.777 602.326 817.543 601.453 817.074 600.906C816.605 600.346 815.779 600.066 814.594 600.066C812.901 600.066 811.729 600.874 811.078 602.488L811.098 617H805.453V603.543C805.453 602.319 805.212 601.434 804.73 600.887C804.249 600.34 803.428 600.066 802.27 600.066C800.668 600.066 799.509 600.73 798.793 602.059V617H793.148V595.867H798.441ZM840.043 617C839.783 616.492 839.594 615.861 839.477 615.105C838.109 616.629 836.332 617.391 834.145 617.391C832.074 617.391 830.355 616.792 828.988 615.594C827.634 614.396 826.957 612.885 826.957 611.062C826.957 608.823 827.784 607.104 829.438 605.906C831.104 604.708 833.507 604.103 836.645 604.09H839.242V602.879C839.242 601.902 838.988 601.121 838.48 600.535C837.986 599.949 837.198 599.656 836.117 599.656C835.167 599.656 834.418 599.884 833.871 600.34C833.337 600.796 833.07 601.421 833.07 602.215H827.426C827.426 600.991 827.803 599.858 828.559 598.816C829.314 597.775 830.382 596.961 831.762 596.375C833.142 595.776 834.691 595.477 836.41 595.477C839.014 595.477 841.078 596.134 842.602 597.449C844.138 598.751 844.906 600.587 844.906 602.957V612.117C844.919 614.122 845.199 615.639 845.746 616.668V617H840.043ZM835.375 613.074C836.208 613.074 836.977 612.892 837.68 612.527C838.383 612.15 838.904 611.648 839.242 611.023V607.391H837.133C834.307 607.391 832.803 608.367 832.621 610.32L832.602 610.652C832.602 611.355 832.849 611.935 833.344 612.391C833.839 612.846 834.516 613.074 835.375 613.074ZM854.438 595.867L854.613 598.309C856.124 596.421 858.148 595.477 860.688 595.477C862.927 595.477 864.594 596.134 865.688 597.449C866.781 598.764 867.341 600.73 867.367 603.348V617H861.723V603.484C861.723 602.286 861.462 601.421 860.941 600.887C860.421 600.34 859.555 600.066 858.344 600.066C856.755 600.066 855.564 600.743 854.77 602.098V617H849.125V595.867H854.438ZM870.785 606.277C870.785 602.983 871.521 600.359 872.992 598.406C874.477 596.453 876.501 595.477 879.066 595.477C881.124 595.477 882.823 596.245 884.164 597.781V587H889.828V617H884.73L884.457 614.754C883.051 616.512 881.241 617.391 879.027 617.391C876.54 617.391 874.542 616.414 873.031 614.461C871.534 612.495 870.785 609.767 870.785 606.277ZM876.43 606.688C876.43 608.667 876.775 610.184 877.465 611.238C878.155 612.293 879.158 612.82 880.473 612.82C882.217 612.82 883.448 612.085 884.164 610.613V602.273C883.461 600.802 882.243 600.066 880.512 600.066C877.79 600.066 876.43 602.273 876.43 606.688ZM912.191 588.562L919.496 609.188L926.762 588.562H934.457V617H928.578V609.227L929.164 595.809L921.488 617H917.465L909.809 595.828L910.395 609.227V617H904.535V588.562H912.191ZM938.324 606.238C938.324 604.142 938.728 602.273 939.535 600.633C940.342 598.992 941.501 597.723 943.012 596.824C944.535 595.926 946.299 595.477 948.305 595.477C951.156 595.477 953.48 596.349 955.277 598.094C957.087 599.839 958.096 602.208 958.305 605.203L958.344 606.648C958.344 609.891 957.439 612.495 955.629 614.461C953.819 616.414 951.391 617.391 948.344 617.391C945.297 617.391 942.862 616.414 941.039 614.461C939.229 612.508 938.324 609.852 938.324 606.492V606.238ZM943.969 606.648C943.969 608.654 944.346 610.19 945.102 611.258C945.857 612.312 946.938 612.84 948.344 612.84C949.711 612.84 950.779 612.319 951.547 611.277C952.315 610.223 952.699 608.543 952.699 606.238C952.699 604.272 952.315 602.749 951.547 601.668C950.779 600.587 949.698 600.047 948.305 600.047C946.924 600.047 945.857 600.587 945.102 601.668C944.346 602.736 943.969 604.396 943.969 606.648ZM960.941 606.277C960.941 602.983 961.677 600.359 963.148 598.406C964.633 596.453 966.658 595.477 969.223 595.477C971.28 595.477 972.979 596.245 974.32 597.781V587H979.984V617H974.887L974.613 614.754C973.207 616.512 971.397 617.391 969.184 617.391C966.697 617.391 964.698 616.414 963.188 614.461C961.69 612.495 960.941 609.767 960.941 606.277ZM966.586 606.688C966.586 608.667 966.931 610.184 967.621 611.238C968.311 612.293 969.314 612.82 970.629 612.82C972.374 612.82 973.604 612.085 974.32 610.613V602.273C973.617 600.802 972.4 600.066 970.668 600.066C967.947 600.066 966.586 602.273 966.586 606.688ZM994.086 617.391C990.987 617.391 988.461 616.44 986.508 614.539C984.568 612.638 983.598 610.105 983.598 606.941V606.395C983.598 604.272 984.008 602.378 984.828 600.711C985.648 599.031 986.807 597.742 988.305 596.844C989.815 595.932 991.534 595.477 993.461 595.477C996.352 595.477 998.624 596.388 1000.28 598.211C1001.94 600.034 1002.78 602.618 1002.78 605.965V608.27H989.32C989.503 609.65 990.049 610.757 990.961 611.59C991.885 612.423 993.051 612.84 994.457 612.84C996.632 612.84 998.331 612.052 999.555 610.477L1002.33 613.582C1001.48 614.78 1000.34 615.717 998.891 616.395C997.445 617.059 995.844 617.391 994.086 617.391ZM993.441 600.047C992.322 600.047 991.41 600.424 990.707 601.18C990.017 601.935 989.574 603.016 989.379 604.422H997.23V603.973C997.204 602.723 996.866 601.759 996.215 601.082C995.564 600.392 994.639 600.047 993.441 600.047ZM1011.96 617H1006.29V587H1011.96V617Z" fill="black"/>
<rect x="943" y="830" width="148" height="63" fill="#33428D" stroke="black" stroke-width="2"/>
<rect x="943" y="661" width="148" height="63" fill="#33428D" stroke="black" stroke-width="2"/>
<rect x="643" y="661" width="148" height="63" fill="#33428D" stroke="black" stroke-width="2"/>
<path d="M1376.08 660L1426.08 688.868V631.132L1376.08 660ZM1546.08 655H1421.08V665H1546.08V655Z" fill="#33428D"/>
<path d="M1546 569L1496 540.132V597.868L1546 569ZM1376 574H1501V564H1376V574Z" fill="#33428D"/>
<path d="M1135.01 864L1185.01 892.868V835.132L1135.01 864ZM1280.01 859H1180.01V869H1280.01V859Z" fill="#33428D"/>
<path d="M331 725L381 753.868V696.132L331 725ZM586 720H376V730H586V720Z" fill="#33428D"/>
<path d="M586 381L536 352.132V409.868L586 381ZM331 386H541V376H331V386Z" fill="#33428D"/>
<path d="M1270 580L1298.87 530H1241.13L1270 580ZM1265 335V535H1275V335H1265Z" fill="#33428D"/>
<line x1="1275" y1="663" x2="1275" y2="863" stroke="#33428D" stroke-width="10"/>
<line x1="1085" y1="336" x2="1275" y2="336" stroke="#33428D" stroke-width="10"/>
<circle cx="1203" cy="738" r="34" stroke="black" stroke-width="2"/>
<path d="M1211.44 753H1191.95V749.133L1201.15 739.328C1202.41 737.948 1203.34 736.743 1203.94 735.715C1204.55 734.686 1204.86 733.71 1204.86 732.785C1204.86 731.522 1204.54 730.533 1203.9 729.816C1203.26 729.087 1202.35 728.723 1201.17 728.723C1199.89 728.723 1198.88 729.165 1198.14 730.051C1197.41 730.923 1197.05 732.076 1197.05 733.508H1191.38C1191.38 731.776 1191.79 730.194 1192.61 728.762C1193.45 727.329 1194.62 726.21 1196.13 725.402C1197.64 724.582 1199.35 724.172 1201.27 724.172C1204.2 724.172 1206.47 724.875 1208.08 726.281C1209.71 727.688 1210.52 729.673 1210.52 732.238C1210.52 733.645 1210.16 735.077 1209.43 736.535C1208.7 737.993 1207.45 739.693 1205.68 741.633L1199.21 748.449H1211.44V753Z" fill="black"/>
<circle cx="794" cy="831" r="34" stroke="black" stroke-width="2"/>
<path d="M788.691 829.281H791.699C793.132 829.281 794.193 828.923 794.883 828.207C795.573 827.491 795.918 826.54 795.918 825.355C795.918 824.21 795.573 823.318 794.883 822.68C794.206 822.042 793.268 821.723 792.07 821.723C790.99 821.723 790.085 822.022 789.355 822.621C788.626 823.207 788.262 823.975 788.262 824.926H782.617C782.617 823.441 783.014 822.113 783.809 820.941C784.616 819.757 785.736 818.832 787.168 818.168C788.613 817.504 790.202 817.172 791.934 817.172C794.941 817.172 797.298 817.895 799.004 819.34C800.71 820.772 801.562 822.751 801.562 825.277C801.562 826.579 801.165 827.777 800.371 828.871C799.577 829.965 798.535 830.805 797.246 831.391C798.848 831.964 800.039 832.823 800.82 833.969C801.615 835.115 802.012 836.469 802.012 838.031C802.012 840.557 801.087 842.582 799.238 844.105C797.402 845.629 794.967 846.391 791.934 846.391C789.095 846.391 786.771 845.642 784.961 844.145C783.164 842.647 782.266 840.668 782.266 838.207H787.91C787.91 839.275 788.307 840.147 789.102 840.824C789.909 841.501 790.898 841.84 792.07 841.84C793.411 841.84 794.46 841.488 795.215 840.785C795.983 840.069 796.367 839.125 796.367 837.953C796.367 835.115 794.805 833.695 791.68 833.695H788.691V829.281Z" fill="black"/>
<circle cx="429" cy="798" r="34" stroke="black" stroke-width="2"/>
<path d="M434.648 802.297H437.871V806.848H434.648V813H429.004V806.848H417.344L417.09 803.293L428.945 784.562H434.648V802.297ZM422.715 802.297H429.004V792.258L428.633 792.902L422.715 802.297Z" fill="black"/>
<circle cx="429" cy="306" r="34" stroke="black" stroke-width="2"/>
<path d="M418.789 307.016L420.43 292.562H436.367V297.27H425.059L424.355 303.383C425.697 302.667 427.122 302.309 428.633 302.309C431.341 302.309 433.464 303.148 435 304.828C436.536 306.508 437.305 308.858 437.305 311.879C437.305 313.715 436.914 315.362 436.133 316.82C435.365 318.266 434.258 319.392 432.812 320.199C431.367 320.993 429.661 321.391 427.695 321.391C425.977 321.391 424.382 321.046 422.91 320.355C421.439 319.652 420.273 318.669 419.414 317.406C418.568 316.143 418.118 314.704 418.066 313.09H423.652C423.77 314.275 424.18 315.199 424.883 315.863C425.599 316.514 426.53 316.84 427.676 316.84C428.952 316.84 429.935 316.384 430.625 315.473C431.315 314.548 431.66 313.246 431.66 311.566C431.66 309.952 431.263 308.715 430.469 307.855C429.674 306.996 428.548 306.566 427.09 306.566C425.749 306.566 424.661 306.918 423.828 307.621L423.281 308.129L418.789 307.016Z" fill="black"/>
<circle cx="1465" cy="481" r="34" stroke="black" stroke-width="2"/>
<path d="M1469.26 467.27V471.918H1468.71C1466.16 471.957 1464.11 472.621 1462.54 473.91C1460.99 475.199 1460.06 476.99 1459.75 479.281C1461.26 477.745 1463.17 476.977 1465.47 476.977C1467.95 476.977 1469.91 477.862 1471.37 479.633C1472.83 481.404 1473.56 483.734 1473.56 486.625C1473.56 488.474 1473.15 490.147 1472.35 491.645C1471.55 493.142 1470.42 494.307 1468.95 495.141C1467.49 495.974 1465.84 496.391 1463.99 496.391C1460.99 496.391 1458.57 495.349 1456.72 493.266C1454.89 491.182 1453.97 488.402 1453.97 484.926V482.895C1453.97 479.809 1454.55 477.087 1455.71 474.73C1456.88 472.361 1458.55 470.531 1460.73 469.242C1462.91 467.94 1465.45 467.283 1468.32 467.27H1469.26ZM1463.75 481.508C1462.84 481.508 1462.02 481.749 1461.27 482.23C1460.53 482.699 1459.98 483.324 1459.63 484.105V485.824C1459.63 487.712 1460 489.19 1460.75 490.258C1461.49 491.312 1462.53 491.84 1463.87 491.84C1465.08 491.84 1466.06 491.365 1466.8 490.414C1467.56 489.451 1467.93 488.207 1467.93 486.684C1467.93 485.134 1467.56 483.884 1466.8 482.934C1466.05 481.983 1465.03 481.508 1463.75 481.508Z" fill="black"/>
<circle cx="1465" cy="742" r="34" stroke="black" stroke-width="2"/>
<path d="M1467.66 757H1462.02V735.242L1455.28 737.332V732.742L1467.05 728.523H1467.66V757Z" fill="black"/>
<g filter="url(#filter5_d)">
<rect x="63.5" y="305.367" width="265" height="469.458" fill="#4A72D9" stroke="#2253D1" stroke-width="5"/>
<path d="M196 843.5C232.198 843.5 265.092 836.264 289.03 824.451C312.809 812.716 328.5 796.034 328.5 776.843C328.5 757.653 312.809 740.971 289.03 729.236C265.092 717.422 232.198 710.187 196 710.187C159.802 710.187 126.908 717.422 102.97 729.236C79.1909 740.971 63.5 757.653 63.5 776.843C63.5 796.034 79.1909 812.716 102.97 824.451C126.908 836.264 159.802 843.5 196 843.5Z" fill="#4A72D9" stroke="#2253D1" stroke-width="5"/>
<rect x="66" y="311.482" width="260" height="464.458" fill="#4A72D9"/>
<path d="M196 371.813C232.198 371.813 265.092 364.578 289.03 352.764C312.809 341.029 328.5 324.347 328.5 305.157C328.5 285.966 312.809 269.284 289.03 257.549C265.092 245.736 232.198 238.5 196 238.5C159.802 238.5 126.908 245.736 102.97 257.549C79.1909 269.284 63.5 285.966 63.5 305.157C63.5 324.347 79.1909 341.029 102.97 352.764C126.908 364.578 159.802 371.813 196 371.813Z" fill="#4A72D9" stroke="#2253D1" stroke-width="5"/>
</g>
<defs>
<filter id="filter0_d" x="517" y="85" width="835" height="924" filterUnits="userSpaceOnUse" color-interpolation-filters="sRGB">
<feFlood flood-opacity="0" result="BackgroundImageFix"/>
<feColorMatrix in="SourceAlpha" type="matrix" values="0 0 0 0 0 0 0 0 0 0 0 0 0 0 0 0 0 0 127 0" result="hardAlpha"/>
<feOffset dx="20" dy="20"/>
<feGaussianBlur stdDeviation="2"/>
<feComposite in2="hardAlpha" operator="out"/>
<feColorMatrix type="matrix" values="0 0 0 0 0 0 0 0 0 0 0 0 0 0 0 0 0 0 0.25 0"/>
<feBlend mode="normal" in2="BackgroundImageFix" result="effect1_dropShadow"/>
<feBlend mode="normal" in="SourceGraphic" in2="effect1_dropShadow" result="shape"/>
</filter>
<filter id="filter1_d" x="1531" y="446" width="374" height="374" filterUnits="userSpaceOnUse" color-interpolation-filters="sRGB">
<feFlood flood-opacity="0" result="BackgroundImageFix"/>
<feColorMatrix in="SourceAlpha" type="matrix" values="0 0 0 0 0 0 0 0 0 0 0 0 0 0 0 0 0 0 127 0" result="hardAlpha"/>
<feOffset dx="20" dy="20"/>
<feGaussianBlur stdDeviation="2"/>
<feComposite in2="hardAlpha" operator="out"/>
<feColorMatrix type="matrix" values="0 0 0 0 0 0 0 0 0 0 0 0 0 0 0 0 0 0 0.25 0"/>
<feBlend mode="normal" in2="BackgroundImageFix" result="effect1_dropShadow"/>
<feBlend mode="normal" in="SourceGraphic" in2="effect1_dropShadow" result="shape"/>
</filter>
<filter id="filter2_d" x="1566" y="480" width="304" height="305" filterUnits="userSpaceOnUse" color-interpolation-filters="sRGB">
<feFlood flood-opacity="0" result="BackgroundImageFix"/>
<feColorMatrix in="SourceAlpha" type="matrix" values="0 0 0 0 0 0 0 0 0 0 0 0 0 0 0 0 0 0 127 0" result="hardAlpha"/>
<feOffset dx="20" dy="20"/>
<feGaussianBlur stdDeviation="2"/>
<feComposite in2="hardAlpha" operator="out"/>
<feColorMatrix type="matrix" values="0 0 0 0 0 0 0 0 0 0 0 0 0 0 0 0 0 0 0.25 0"/>
<feBlend mode="normal" in2="BackgroundImageFix" result="effect1_dropShadow"/>
<feBlend mode="normal" in="SourceGraphic" in2="effect1_dropShadow" result="shape"/>
</filter>
<filter id="filter3_d" x="586" y="128" width="574" height="399" filterUnits="userSpaceOnUse" color-interpolation-filters="sRGB">
<feFlood flood-opacity="0" result="BackgroundImageFix"/>
<feColorMatrix in="SourceAlpha" type="matrix" values="0 0 0 0 0 0 0 0 0 0 0 0 0 0 0 0 0 0 127 0" result="hardAlpha"/>
<feOffset dx="20" dy="20"/>
<feGaussianBlur stdDeviation="2"/>
<feComposite in2="hardAlpha" operator="out"/>
<feColorMatrix type="matrix" values="0 0 0 0 0 0 0 0 0 0 0 0 0 0 0 0 0 0 0.25 0"/>
<feBlend mode="normal" in2="BackgroundImageFix" result="effect1_dropShadow"/>
<feBlend mode="normal" in="SourceGraphic" in2="effect1_dropShadow" result="shape"/>
</filter>
<filter id="filter4_d" x="586" y="569" width="574" height="399" filterUnits="userSpaceOnUse" color-interpolation-filters="sRGB">
<feFlood flood-opacity="0" result="BackgroundImageFix"/>
<feColorMatrix in="SourceAlpha" type="matrix" values="0 0 0 0 0 0 0 0 0 0 0 0 0 0 0 0 0 0 127 0" result="hardAlpha"/>
<feOffset dx="20" dy="20"/>
<feGaussianBlur stdDeviation="2"/>
<feComposite in2="hardAlpha" operator="out"/>
<feColorMatrix type="matrix" values="0 0 0 0 0 0 0 0 0 0 0 0 0 0 0 0 0 0 0.25 0"/>
<feBlend mode="normal" in2="BackgroundImageFix" result="effect1_dropShadow"/>
<feBlend mode="normal" in="SourceGraphic" in2="effect1_dropShadow" result="shape"/>
</filter>
<filter id="filter5_d" x="61" y="236" width="284" height="624" filterUnits="userSpaceOnUse" color-interpolation-filters="sRGB">
<feFlood flood-opacity="0" result="BackgroundImageFix"/>
<feColorMatrix in="SourceAlpha" type="matrix" values="0 0 0 0 0 0 0 0 0 0 0 0 0 0 0 0 0 0 127 0" result="hardAlpha"/>
<feOffset dx="10" dy="10"/>
<feGaussianBlur stdDeviation="2"/>
<feComposite in2="hardAlpha" operator="out"/>
<feColorMatrix type="matrix" values="0 0 0 0 0 0 0 0 0 0 0 0 0 0 0 0 0 0 0.25 0"/>
<feBlend mode="normal" in2="BackgroundImageFix" result="effect1_dropShadow"/>
<feBlend mode="normal" in="SourceGraphic" in2="effect1_dropShadow" result="shape"/>
</filter>
<linearGradient id="paint0_linear" x1="922.5" y1="85" x2="922.5" y2="985" gradientUnits="userSpaceOnUse">
<stop offset="0.530617" stop-color="#DEDADA"/>
<stop offset="1" stop-color="#DEDADA" stop-opacity="0"/>
</linearGradient>
<linearGradient id="paint1_linear" x1="1706" y1="480" x2="1706" y2="761" gradientUnits="userSpaceOnUse">
<stop offset="0.315625" stop-color="#C4C4C4"/>
<stop offset="1" stop-color="#C4C4C4" stop-opacity="0"/>
</linearGradient>
<linearGradient id="paint2_linear" x1="861" y1="128" x2="861" y2="503" gradientUnits="userSpaceOnUse">
<stop offset="0.289583" stop-color="#989CA9"/>
<stop offset="1" stop-color="#B4B6BB" stop-opacity="0"/>
</linearGradient>
<linearGradient id="paint3_linear" x1="861" y1="569" x2="861" y2="944" gradientUnits="userSpaceOnUse">
<stop offset="0.305208" stop-color="#989CA9"/>
<stop offset="1" stop-color="#B4B6BB" stop-opacity="0"/>
</linearGradient>
</defs>
</svg>
