<svg width="1920" height="1080" viewBox="0 0 1920 1080" fill="none" xmlns="http://www.w3.org/2000/svg">
<rect width="1920" height="1080" fill="white"/>
<g filter="url(#filter0_d)">
<rect x="517" y="85" width="811" height="900" rx="50" fill="#CCCCCC"/>
<rect x="517.5" y="85.5" width="810" height="899" rx="49.5" stroke="black"/>
</g>
<g filter="url(#filter1_d)">
<rect x="80.5" y="282.5" width="265" height="505" fill="#4A72D9" stroke="#2253D1" stroke-width="5"/>
<path d="M213 833.5C249.055 833.5 281.787 829.512 305.582 823.014C317.462 819.77 327.257 815.862 334.14 811.418C340.912 807.046 345.5 801.724 345.5 795.5C345.5 789.276 340.912 783.954 334.14 779.582C327.257 775.138 317.462 771.23 305.582 767.986C281.787 761.488 249.055 757.5 213 757.5C176.945 757.5 144.213 761.488 120.418 767.986C108.538 771.23 98.7432 775.138 91.86 779.582C85.088 783.954 80.5 789.276 80.5 795.5C80.5 801.724 85.088 807.046 91.86 811.418C98.7432 815.862 108.538 819.77 120.418 823.014C144.213 829.512 176.945 833.5 213 833.5Z" fill="#4A72D9" stroke="#2253D1" stroke-width="5"/>
<rect x="83" y="287" width="260" height="500" fill="#4A72D9"/>
<path d="M111.278 557V521.453H122.216C125.341 521.453 128.132 522.161 130.59 523.577C133.064 524.977 134.993 526.979 136.376 529.583C137.759 532.171 138.451 535.117 138.451 538.421V540.057C138.451 543.361 137.768 546.299 136.4 548.87C135.049 551.442 133.137 553.436 130.663 554.852C128.189 556.268 125.398 556.984 122.289 557H111.278ZM118.603 527.386V551.116H122.143C125.007 551.116 127.196 550.18 128.71 548.309C130.224 546.437 130.997 543.759 131.029 540.276V538.396C131.029 534.783 130.281 532.049 128.783 530.193C127.286 528.322 125.097 527.386 122.216 527.386H118.603ZM158.642 557C158.316 556.365 158.08 555.576 157.934 554.632C156.225 556.536 154.003 557.488 151.269 557.488C148.681 557.488 146.532 556.74 144.823 555.242C143.131 553.745 142.284 551.857 142.284 549.578C142.284 546.779 143.318 544.63 145.385 543.133C147.468 541.635 150.471 540.879 154.394 540.862H157.641V539.349C157.641 538.128 157.323 537.151 156.688 536.419C156.07 535.687 155.085 535.32 153.734 535.32C152.546 535.32 151.61 535.605 150.927 536.175C150.259 536.744 149.926 537.526 149.926 538.519H142.87C142.87 536.989 143.342 535.573 144.286 534.271C145.23 532.968 146.565 531.951 148.29 531.219C150.015 530.47 151.952 530.096 154.101 530.096C157.356 530.096 159.936 530.918 161.84 532.562C163.76 534.189 164.721 536.484 164.721 539.446V550.896C164.737 553.403 165.087 555.299 165.771 556.585V557H158.642ZM152.807 552.093C153.848 552.093 154.809 551.865 155.688 551.409C156.566 550.937 157.217 550.311 157.641 549.529V544.988H155.004C151.472 544.988 149.592 546.209 149.364 548.65L149.34 549.065C149.34 549.944 149.649 550.669 150.268 551.238C150.886 551.808 151.732 552.093 152.807 552.093ZM178.588 524.09V530.584H183.104V535.76H178.588V548.943C178.588 549.92 178.775 550.62 179.149 551.043C179.524 551.466 180.24 551.678 181.298 551.678C182.079 551.678 182.771 551.621 183.373 551.507V556.854C181.99 557.277 180.565 557.488 179.101 557.488C174.153 557.488 171.63 554.99 171.532 549.993V535.76H167.675V530.584H171.532V524.09H178.588ZM202.343 557C202.017 556.365 201.781 555.576 201.635 554.632C199.926 556.536 197.704 557.488 194.97 557.488C192.382 557.488 190.233 556.74 188.524 555.242C186.832 553.745 185.985 551.857 185.985 549.578C185.985 546.779 187.019 544.63 189.086 543.133C191.169 541.635 194.172 540.879 198.095 540.862H201.342V539.349C201.342 538.128 201.024 537.151 200.39 536.419C199.771 535.687 198.786 535.32 197.436 535.32C196.247 535.32 195.312 535.605 194.628 536.175C193.961 536.744 193.627 537.526 193.627 538.519H186.571C186.571 536.989 187.043 535.573 187.987 534.271C188.931 532.968 190.266 531.951 191.991 531.219C193.716 530.47 195.653 530.096 197.802 530.096C201.057 530.096 203.637 530.918 205.541 532.562C207.462 534.189 208.422 536.484 208.422 539.446V550.896C208.438 553.403 208.788 555.299 209.472 556.585V557H202.343ZM196.508 552.093C197.549 552.093 198.51 551.865 199.389 551.409C200.268 550.937 200.919 550.311 201.342 549.529V544.988H198.705C195.173 544.988 193.293 546.209 193.065 548.65L193.041 549.065C193.041 549.944 193.35 550.669 193.969 551.238C194.587 551.808 195.434 552.093 196.508 552.093ZM237.646 544.036C237.646 548.268 236.742 551.572 234.936 553.948C233.129 556.308 230.606 557.488 227.367 557.488C224.503 557.488 222.216 556.39 220.507 554.192L220.189 557H213.842V519.5H220.897V532.952C222.525 531.048 224.665 530.096 227.318 530.096C230.541 530.096 233.064 531.284 234.887 533.66C236.726 536.02 237.646 539.349 237.646 543.646V544.036ZM230.59 543.523C230.59 540.854 230.167 538.909 229.32 537.688C228.474 536.451 227.213 535.833 225.536 535.833C223.29 535.833 221.744 536.753 220.897 538.592V549.017C221.76 550.872 223.323 551.8 225.585 551.8C227.864 551.8 229.361 550.677 230.077 548.431C230.419 547.356 230.59 545.721 230.59 543.523ZM257.323 557C256.998 556.365 256.762 555.576 256.615 554.632C254.906 556.536 252.685 557.488 249.95 557.488C247.362 557.488 245.214 556.74 243.505 555.242C241.812 553.745 240.966 551.857 240.966 549.578C240.966 546.779 241.999 544.63 244.066 543.133C246.15 541.635 249.153 540.879 253.075 540.862H256.322V539.349C256.322 538.128 256.005 537.151 255.37 536.419C254.752 535.687 253.767 535.32 252.416 535.32C251.228 535.32 250.292 535.605 249.608 536.175C248.941 536.744 248.607 537.526 248.607 538.519H241.552C241.552 536.989 242.024 535.573 242.968 534.271C243.912 532.968 245.246 531.951 246.972 531.219C248.697 530.47 250.634 530.096 252.782 530.096C256.037 530.096 258.617 530.918 260.521 532.562C262.442 534.189 263.402 536.484 263.402 539.446V550.896C263.419 553.403 263.769 555.299 264.452 556.585V557H257.323ZM251.488 552.093C252.53 552.093 253.49 551.865 254.369 551.409C255.248 550.937 255.899 550.311 256.322 549.529V544.988H253.686C250.154 544.988 248.274 546.209 248.046 548.65L248.021 549.065C248.021 549.944 248.331 550.669 248.949 551.238C249.568 551.808 250.414 552.093 251.488 552.093ZM283.129 549.7C283.129 548.838 282.698 548.162 281.835 547.674C280.989 547.169 279.621 546.722 277.733 546.331C271.451 545.013 268.31 542.343 268.31 538.323C268.31 535.979 269.278 534.026 271.215 532.464C273.168 530.885 275.715 530.096 278.856 530.096C282.209 530.096 284.887 530.885 286.889 532.464C288.907 534.043 289.916 536.093 289.916 538.616H282.86C282.86 537.607 282.535 536.777 281.884 536.126C281.233 535.459 280.215 535.125 278.832 535.125C277.644 535.125 276.724 535.394 276.073 535.931C275.422 536.468 275.097 537.151 275.097 537.981C275.097 538.763 275.463 539.397 276.195 539.886C276.944 540.358 278.197 540.773 279.955 541.131C281.713 541.473 283.194 541.863 284.398 542.303C288.126 543.67 289.989 546.038 289.989 549.407C289.989 551.816 288.956 553.769 286.889 555.267C284.822 556.748 282.152 557.488 278.881 557.488C276.667 557.488 274.698 557.098 272.973 556.316C271.264 555.519 269.921 554.437 268.944 553.069C267.968 551.686 267.479 550.197 267.479 548.602H274.169C274.234 549.855 274.698 550.815 275.561 551.482C276.423 552.15 277.579 552.483 279.027 552.483C280.378 552.483 281.396 552.231 282.079 551.727C282.779 551.206 283.129 550.53 283.129 549.7ZM306.713 557.488C302.839 557.488 299.682 556.3 297.24 553.924C294.815 551.548 293.603 548.382 293.603 544.427V543.743C293.603 541.09 294.115 538.722 295.141 536.639C296.166 534.539 297.615 532.928 299.486 531.805C301.374 530.665 303.523 530.096 305.932 530.096C309.545 530.096 312.385 531.235 314.452 533.514C316.535 535.792 317.577 539.023 317.577 543.206V546.087H300.756C300.984 547.812 301.667 549.196 302.807 550.237C303.962 551.279 305.419 551.8 307.177 551.8C309.895 551.8 312.019 550.815 313.549 548.846L317.016 552.728C315.958 554.225 314.525 555.397 312.719 556.243C310.912 557.073 308.91 557.488 306.713 557.488ZM305.907 535.809C304.507 535.809 303.368 536.281 302.489 537.225C301.627 538.169 301.073 539.52 300.829 541.277H310.644V540.716C310.611 539.153 310.188 537.949 309.374 537.103C308.56 536.24 307.405 535.809 305.907 535.809Z" fill="white"/>
<path d="M213 321.5C249.055 321.5 281.787 317.512 305.582 311.014C317.462 307.77 327.257 303.862 334.14 299.418C340.912 295.046 345.5 289.724 345.5 283.5C345.5 277.276 340.912 271.954 334.14 267.582C327.257 263.138 317.462 259.23 305.582 255.986C281.787 249.488 249.055 245.5 213 245.5C176.945 245.5 144.213 249.488 120.418 255.986C108.538 259.23 98.7432 263.138 91.86 267.582C85.088 271.954 80.5 277.276 80.5 283.5C80.5 289.724 85.088 295.046 91.86 299.418C98.7432 303.862 108.538 307.77 120.418 311.014C144.213 317.512 176.945 321.5 213 321.5Z" fill="#4A72D9" stroke="#2253D1" stroke-width="5"/>
</g>
<g filter="url(#filter2_d)">
<g filter="url(#filter3_d)">
<rect x="1566" y="480" width="280" height="281" rx="30" fill="#C4C4C4"/>
</g>
<path d="M1815.38 482.458H1596.63C1580.52 482.458 1567.46 495.517 1567.46 511.625V730.375C1567.46 746.483 1580.52 759.542 1596.63 759.542H1815.38C1831.48 759.542 1844.54 746.483 1844.54 730.375V511.625C1844.54 495.517 1831.48 482.458 1815.38 482.458Z" stroke="black" stroke-width="2"/>
<path d="M1706 562.667H1603.92C1595.86 562.667 1589.33 569.196 1589.33 577.25V723.083C1589.33 731.137 1595.86 737.667 1603.92 737.667H1706C1714.05 737.667 1720.58 731.137 1720.58 723.083V577.25C1720.58 569.196 1714.05 562.667 1706 562.667Z" fill="#CCCCCC"/>
<path d="M1698.71 569.958H1611.21C1603.15 569.958 1596.62 576.487 1596.62 584.542V715.792C1596.62 723.846 1603.15 730.375 1611.21 730.375H1698.71C1706.76 730.375 1713.29 723.846 1713.29 715.792V584.542C1713.29 576.487 1706.76 569.958 1698.71 569.958Z" stroke="black" stroke-width="2"/>
<path d="M1567.46 540.792H1844.54" stroke="black" stroke-width="2" stroke-linecap="square"/>
<path d="M1742.46 715.792H1815.38M1742.46 584.542H1815.38H1742.46ZM1742.46 628.292H1815.38H1742.46ZM1742.46 672.042H1815.38H1742.46Z" stroke="black" stroke-width="2" stroke-linecap="round"/>
<path d="M1596.63 526.208C1604.68 526.208 1611.21 519.679 1611.21 511.625C1611.21 503.571 1604.68 497.042 1596.63 497.042C1588.57 497.042 1582.04 503.571 1582.04 511.625C1582.04 519.679 1588.57 526.208 1596.63 526.208Z" fill="black"/>
<path d="M1625.79 526.208C1633.85 526.208 1640.38 519.679 1640.38 511.625C1640.38 503.571 1633.85 497.042 1625.79 497.042C1617.74 497.042 1611.21 503.571 1611.21 511.625C1611.21 519.679 1617.74 526.208 1625.79 526.208Z" fill="black"/>
<path d="M1654.96 526.208C1663.01 526.208 1669.54 519.679 1669.54 511.625C1669.54 503.571 1663.01 497.042 1654.96 497.042C1646.9 497.042 1640.38 503.571 1640.38 511.625C1640.38 519.679 1646.9 526.208 1654.96 526.208Z" fill="black"/>
</g>
<g filter="url(#filter4_d)">
<rect x="586" y="127" width="550" height="375" rx="20" fill="#4A72D9"/>
<rect x="588.5" y="129.5" width="545" height="370" rx="17.5" stroke="#2253D1" stroke-width="5"/>
</g>
<rect x="793" y="396" width="144" height="63" rx="9" fill="#CCCCCC" stroke="black" stroke-width="2"/>
<rect x="663" y="223" width="144" height="63" rx="9" fill="#CCCCCC" stroke="black" stroke-width="2"/>
<rect x="924" y="223" width="144" height="63" rx="9" fill="#CCCCCC" stroke="black" stroke-width="2"/>
<path d="M971.066 288.464L954.336 292.947L966.583 305.195L971.066 288.464ZM866.061 395.591L962.581 299.071L960.459 296.95L863.939 393.47L866.061 395.591Z" fill="black"/>
<path d="M925 255L910 246.34V263.66L925 255ZM805 256.5H911.5V253.5H805V256.5Z" fill="black"/>
<path d="M759 289L763.483 305.73L775.73 293.483L759 289ZM866.127 394.005L769.607 297.485L767.485 299.607L864.005 396.127L866.127 394.005Z" fill="black"/>
<path d="M772.309 167.426C772.309 170.082 771.879 172.393 771.02 174.359C770.16 176.312 768.969 177.882 767.445 179.066L772.172 182.777L768.441 186.078L762.387 181.215C761.697 181.332 760.98 181.391 760.238 181.391C757.882 181.391 755.779 180.824 753.93 179.691C752.081 178.559 750.648 176.944 749.633 174.848C748.617 172.738 748.103 170.316 748.09 167.582V166.176C748.09 163.376 748.591 160.915 749.594 158.793C750.609 156.658 752.035 155.023 753.871 153.891C755.72 152.745 757.829 152.172 760.199 152.172C762.569 152.172 764.672 152.745 766.508 153.891C768.357 155.023 769.783 156.658 770.785 158.793C771.801 160.915 772.309 163.37 772.309 166.156V167.426ZM766.371 166.137C766.371 163.155 765.837 160.889 764.77 159.34C763.702 157.79 762.178 157.016 760.199 157.016C758.233 157.016 756.716 157.784 755.648 159.32C754.581 160.844 754.04 163.083 754.027 166.039V167.426C754.027 170.329 754.561 172.582 755.629 174.184C756.697 175.785 758.233 176.586 760.238 176.586C762.204 176.586 763.715 175.818 764.77 174.281C765.824 172.732 766.358 170.479 766.371 167.523V166.137ZM788.891 178.852C787.497 180.544 785.57 181.391 783.109 181.391C780.844 181.391 779.112 180.74 777.914 179.438C776.729 178.135 776.124 176.228 776.098 173.715V159.867H781.742V173.52C781.742 175.72 782.745 176.82 784.75 176.82C786.664 176.82 787.979 176.156 788.695 174.828V159.867H794.359V181H789.047L788.891 178.852ZM808.344 181.391C805.245 181.391 802.719 180.44 800.766 178.539C798.826 176.638 797.855 174.105 797.855 170.941V170.395C797.855 168.272 798.266 166.378 799.086 164.711C799.906 163.031 801.065 161.742 802.562 160.844C804.073 159.932 805.792 159.477 807.719 159.477C810.609 159.477 812.882 160.388 814.535 162.211C816.202 164.034 817.035 166.618 817.035 169.965V172.27H803.578C803.76 173.65 804.307 174.757 805.219 175.59C806.143 176.423 807.309 176.84 808.715 176.84C810.889 176.84 812.589 176.052 813.812 174.477L816.586 177.582C815.74 178.78 814.594 179.717 813.148 180.395C811.703 181.059 810.102 181.391 808.344 181.391ZM807.699 164.047C806.579 164.047 805.668 164.424 804.965 165.18C804.275 165.935 803.832 167.016 803.637 168.422H811.488V167.973C811.462 166.723 811.124 165.759 810.473 165.082C809.822 164.392 808.897 164.047 807.699 164.047ZM832.133 165.16C831.365 165.056 830.688 165.004 830.102 165.004C827.966 165.004 826.566 165.727 825.902 167.172V181H820.258V159.867H825.59L825.746 162.387C826.879 160.447 828.448 159.477 830.453 159.477C831.078 159.477 831.664 159.561 832.211 159.73L832.133 165.16ZM843.109 173.012L847.016 159.867H853.07L844.574 184.281L844.105 185.395C842.842 188.155 840.759 189.535 837.855 189.535C837.035 189.535 836.202 189.411 835.355 189.164V184.887L836.215 184.906C837.283 184.906 838.077 184.743 838.598 184.418C839.132 184.092 839.548 183.552 839.848 182.797L840.512 181.059L833.109 159.867H839.184L843.109 173.012ZM873.285 152.562L880.59 173.188L887.855 152.562H895.551V181H889.672V173.227L890.258 159.809L882.582 181H878.559L870.902 159.828L871.488 173.227V181H865.629V152.562H873.285ZM899.418 170.238C899.418 168.142 899.822 166.273 900.629 164.633C901.436 162.992 902.595 161.723 904.105 160.824C905.629 159.926 907.393 159.477 909.398 159.477C912.25 159.477 914.574 160.349 916.371 162.094C918.181 163.839 919.19 166.208 919.398 169.203L919.438 170.648C919.438 173.891 918.533 176.495 916.723 178.461C914.913 180.414 912.484 181.391 909.438 181.391C906.391 181.391 903.956 180.414 902.133 178.461C900.323 176.508 899.418 173.852 899.418 170.492V170.238ZM905.062 170.648C905.062 172.654 905.44 174.19 906.195 175.258C906.951 176.312 908.031 176.84 909.438 176.84C910.805 176.84 911.872 176.319 912.641 175.277C913.409 174.223 913.793 172.543 913.793 170.238C913.793 168.272 913.409 166.749 912.641 165.668C911.872 164.587 910.792 164.047 909.398 164.047C908.018 164.047 906.951 164.587 906.195 165.668C905.44 166.736 905.062 168.396 905.062 170.648ZM922.035 170.277C922.035 166.983 922.771 164.359 924.242 162.406C925.727 160.453 927.751 159.477 930.316 159.477C932.374 159.477 934.073 160.245 935.414 161.781V151H941.078V181H935.98L935.707 178.754C934.301 180.512 932.491 181.391 930.277 181.391C927.79 181.391 925.792 180.414 924.281 178.461C922.784 176.495 922.035 173.767 922.035 170.277ZM927.68 170.688C927.68 172.667 928.025 174.184 928.715 175.238C929.405 176.293 930.408 176.82 931.723 176.82C933.467 176.82 934.698 176.085 935.414 174.613V166.273C934.711 164.802 933.493 164.066 931.762 164.066C929.04 164.066 927.68 166.273 927.68 170.688ZM955.18 181.391C952.081 181.391 949.555 180.44 947.602 178.539C945.661 176.638 944.691 174.105 944.691 170.941V170.395C944.691 168.272 945.102 166.378 945.922 164.711C946.742 163.031 947.901 161.742 949.398 160.844C950.909 159.932 952.628 159.477 954.555 159.477C957.445 159.477 959.717 160.388 961.371 162.211C963.038 164.034 963.871 166.618 963.871 169.965V172.27H950.414C950.596 173.65 951.143 174.757 952.055 175.59C952.979 176.423 954.145 176.84 955.551 176.84C957.725 176.84 959.424 176.052 960.648 174.477L963.422 177.582C962.576 178.78 961.43 179.717 959.984 180.395C958.539 181.059 956.938 181.391 955.18 181.391ZM954.535 164.047C953.415 164.047 952.504 164.424 951.801 165.18C951.111 165.935 950.668 167.016 950.473 168.422H958.324V167.973C958.298 166.723 957.96 165.759 957.309 165.082C956.658 164.392 955.733 164.047 954.535 164.047ZM973.051 181H967.387V151H973.051V181Z" fill="white"/>
<g filter="url(#filter5_d)">
<rect x="586" y="569" width="550" height="375" rx="20" fill="#4A72D9"/>
<rect x="588.5" y="571.5" width="545" height="370" rx="17.5" stroke="#2253D1" stroke-width="5"/>
</g>
<path d="M998.5 725.057L989.84 740.057H1007.16L998.5 725.057ZM1000 830.057V738.557H997V830.057H1000Z" fill="black"/>
<path d="M917.029 691.014L902.029 682.354V699.675L917.029 691.014ZM812.029 692.514H903.529V689.514H812.029V692.514Z" fill="black"/>
<path d="M732.406 607.527C732.185 610.587 731.052 612.996 729.008 614.754C726.977 616.512 724.294 617.391 720.961 617.391C717.315 617.391 714.444 616.167 712.348 613.719C710.264 611.258 709.223 607.885 709.223 603.602V601.863C709.223 599.129 709.704 596.72 710.668 594.637C711.632 592.553 713.005 590.958 714.789 589.852C716.586 588.732 718.669 588.172 721.039 588.172C724.32 588.172 726.964 589.051 728.969 590.809C730.974 592.566 732.133 595.034 732.445 598.211H726.586C726.443 596.375 725.928 595.047 725.043 594.227C724.171 593.393 722.836 592.977 721.039 592.977C719.086 592.977 717.621 593.68 716.645 595.086C715.681 596.479 715.186 598.647 715.16 601.59V603.738C715.16 606.811 715.622 609.057 716.547 610.477C717.484 611.896 718.956 612.605 720.961 612.605C722.771 612.605 724.118 612.195 725.004 611.375C725.902 610.542 726.417 609.259 726.547 607.527H732.406ZM735.004 606.238C735.004 604.142 735.408 602.273 736.215 600.633C737.022 598.992 738.181 597.723 739.691 596.824C741.215 595.926 742.979 595.477 744.984 595.477C747.836 595.477 750.16 596.349 751.957 598.094C753.767 599.839 754.776 602.208 754.984 605.203L755.023 606.648C755.023 609.891 754.118 612.495 752.309 614.461C750.499 616.414 748.07 617.391 745.023 617.391C741.977 617.391 739.542 616.414 737.719 614.461C735.909 612.508 735.004 609.852 735.004 606.492V606.238ZM740.648 606.648C740.648 608.654 741.026 610.19 741.781 611.258C742.536 612.312 743.617 612.84 745.023 612.84C746.391 612.84 747.458 612.319 748.227 611.277C748.995 610.223 749.379 608.543 749.379 606.238C749.379 604.272 748.995 602.749 748.227 601.668C747.458 600.587 746.378 600.047 744.984 600.047C743.604 600.047 742.536 600.587 741.781 601.668C741.026 602.736 740.648 604.396 740.648 606.648ZM763.793 595.867L763.969 598.23C765.466 596.395 767.491 595.477 770.043 595.477C772.764 595.477 774.633 596.551 775.648 598.699C777.133 596.551 779.249 595.477 781.996 595.477C784.288 595.477 785.993 596.147 787.113 597.488C788.233 598.816 788.793 600.822 788.793 603.504V617H783.129V603.523C783.129 602.326 782.895 601.453 782.426 600.906C781.957 600.346 781.13 600.066 779.945 600.066C778.253 600.066 777.081 600.874 776.43 602.488L776.449 617H770.805V603.543C770.805 602.319 770.564 601.434 770.082 600.887C769.6 600.34 768.78 600.066 767.621 600.066C766.02 600.066 764.861 600.73 764.145 602.059V617H758.5V595.867H763.793ZM798.441 595.867L798.617 598.23C800.115 596.395 802.139 595.477 804.691 595.477C807.413 595.477 809.281 596.551 810.297 598.699C811.781 596.551 813.897 595.477 816.645 595.477C818.936 595.477 820.642 596.147 821.762 597.488C822.882 598.816 823.441 600.822 823.441 603.504V617H817.777V603.523C817.777 602.326 817.543 601.453 817.074 600.906C816.605 600.346 815.779 600.066 814.594 600.066C812.901 600.066 811.729 600.874 811.078 602.488L811.098 617H805.453V603.543C805.453 602.319 805.212 601.434 804.73 600.887C804.249 600.34 803.428 600.066 802.27 600.066C800.668 600.066 799.509 600.73 798.793 602.059V617H793.148V595.867H798.441ZM840.043 617C839.783 616.492 839.594 615.861 839.477 615.105C838.109 616.629 836.332 617.391 834.145 617.391C832.074 617.391 830.355 616.792 828.988 615.594C827.634 614.396 826.957 612.885 826.957 611.062C826.957 608.823 827.784 607.104 829.438 605.906C831.104 604.708 833.507 604.103 836.645 604.09H839.242V602.879C839.242 601.902 838.988 601.121 838.48 600.535C837.986 599.949 837.198 599.656 836.117 599.656C835.167 599.656 834.418 599.884 833.871 600.34C833.337 600.796 833.07 601.421 833.07 602.215H827.426C827.426 600.991 827.803 599.858 828.559 598.816C829.314 597.775 830.382 596.961 831.762 596.375C833.142 595.776 834.691 595.477 836.41 595.477C839.014 595.477 841.078 596.134 842.602 597.449C844.138 598.751 844.906 600.587 844.906 602.957V612.117C844.919 614.122 845.199 615.639 845.746 616.668V617H840.043ZM835.375 613.074C836.208 613.074 836.977 612.892 837.68 612.527C838.383 612.15 838.904 611.648 839.242 611.023V607.391H837.133C834.307 607.391 832.803 608.367 832.621 610.32L832.602 610.652C832.602 611.355 832.849 611.935 833.344 612.391C833.839 612.846 834.516 613.074 835.375 613.074ZM854.438 595.867L854.613 598.309C856.124 596.421 858.148 595.477 860.688 595.477C862.927 595.477 864.594 596.134 865.688 597.449C866.781 598.764 867.341 600.73 867.367 603.348V617H861.723V603.484C861.723 602.286 861.462 601.421 860.941 600.887C860.421 600.34 859.555 600.066 858.344 600.066C856.755 600.066 855.564 600.743 854.77 602.098V617H849.125V595.867H854.438ZM870.785 606.277C870.785 602.983 871.521 600.359 872.992 598.406C874.477 596.453 876.501 595.477 879.066 595.477C881.124 595.477 882.823 596.245 884.164 597.781V587H889.828V617H884.73L884.457 614.754C883.051 616.512 881.241 617.391 879.027 617.391C876.54 617.391 874.542 616.414 873.031 614.461C871.534 612.495 870.785 609.767 870.785 606.277ZM876.43 606.688C876.43 608.667 876.775 610.184 877.465 611.238C878.155 612.293 879.158 612.82 880.473 612.82C882.217 612.82 883.448 612.085 884.164 610.613V602.273C883.461 600.802 882.243 600.066 880.512 600.066C877.79 600.066 876.43 602.273 876.43 606.688ZM912.191 588.562L919.496 609.188L926.762 588.562H934.457V617H928.578V609.227L929.164 595.809L921.488 617H917.465L909.809 595.828L910.395 609.227V617H904.535V588.562H912.191ZM938.324 606.238C938.324 604.142 938.728 602.273 939.535 600.633C940.342 598.992 941.501 597.723 943.012 596.824C944.535 595.926 946.299 595.477 948.305 595.477C951.156 595.477 953.48 596.349 955.277 598.094C957.087 599.839 958.096 602.208 958.305 605.203L958.344 606.648C958.344 609.891 957.439 612.495 955.629 614.461C953.819 616.414 951.391 617.391 948.344 617.391C945.297 617.391 942.862 616.414 941.039 614.461C939.229 612.508 938.324 609.852 938.324 606.492V606.238ZM943.969 606.648C943.969 608.654 944.346 610.19 945.102 611.258C945.857 612.312 946.938 612.84 948.344 612.84C949.711 612.84 950.779 612.319 951.547 611.277C952.315 610.223 952.699 608.543 952.699 606.238C952.699 604.272 952.315 602.749 951.547 601.668C950.779 600.587 949.698 600.047 948.305 600.047C946.924 600.047 945.857 600.587 945.102 601.668C944.346 602.736 943.969 604.396 943.969 606.648ZM960.941 606.277C960.941 602.983 961.677 600.359 963.148 598.406C964.633 596.453 966.658 595.477 969.223 595.477C971.28 595.477 972.979 596.245 974.32 597.781V587H979.984V617H974.887L974.613 614.754C973.207 616.512 971.397 617.391 969.184 617.391C966.697 617.391 964.698 616.414 963.188 614.461C961.69 612.495 960.941 609.767 960.941 606.277ZM966.586 606.688C966.586 608.667 966.931 610.184 967.621 611.238C968.311 612.293 969.314 612.82 970.629 612.82C972.374 612.82 973.604 612.085 974.32 610.613V602.273C973.617 600.802 972.4 600.066 970.668 600.066C967.947 600.066 966.586 602.273 966.586 606.688ZM994.086 617.391C990.987 617.391 988.461 616.44 986.508 614.539C984.568 612.638 983.598 610.105 983.598 606.941V606.395C983.598 604.272 984.008 602.378 984.828 600.711C985.648 599.031 986.807 597.742 988.305 596.844C989.815 595.932 991.534 595.477 993.461 595.477C996.352 595.477 998.624 596.388 1000.28 598.211C1001.94 600.034 1002.78 602.618 1002.78 605.965V608.27H989.32C989.503 609.65 990.049 610.757 990.961 611.59C991.885 612.423 993.051 612.84 994.457 612.84C996.632 612.84 998.331 612.052 999.555 610.477L1002.33 613.582C1001.48 614.78 1000.34 615.717 998.891 616.395C997.445 617.059 995.844 617.391 994.086 617.391ZM993.441 600.047C992.322 600.047 991.41 600.424 990.707 601.18C990.017 601.935 989.574 603.016 989.379 604.422H997.23V603.973C997.204 602.723 996.866 601.759 996.215 601.082C995.564 600.392 994.639 600.047 993.441 600.047ZM1011.96 617H1006.29V587H1011.96V617Z" fill="white"/>
<rect x="924" y="830" width="144" height="63" rx="9" fill="#CCCCCC" stroke="black" stroke-width="2"/>
<rect x="924" y="661" width="144" height="63" rx="9" fill="#CCCCCC" stroke="black" stroke-width="2"/>
<rect x="663" y="661" width="144" height="63" rx="9" fill="#CCCCCC" stroke="black" stroke-width="2"/>
<path d="M1380 660L1430 688.868V631.132L1380 660ZM1531.08 655H1425V665H1531.08V655Z" fill="black"/>
<path d="M1531.08 569L1481.08 540.132V597.868L1531.08 569ZM1380 574H1486.08V564H1380V574Z" fill="black"/>
<path d="M1079.99 862L1129.99 890.868V833.132L1079.99 862ZM1257.01 857H1124.99V867H1257.01V857Z" fill="black"/>
<path d="M342 725L392 753.868V696.132L342 725ZM587 720H387V730H587V720Z" fill="black"/>
<path d="M587 381L537 352.132V409.868L587 381ZM342 386H542V376H342V386Z" fill="black"/>
<path d="M1252 580L1280.87 530H1223.13L1252 580ZM1247 335V535H1257V335H1247Z" fill="black"/>
<line x1="1252" y1="663" x2="1252" y2="863" stroke="black" stroke-width="10"/>
<line x1="1085" y1="336" x2="1256.66" y2="336" stroke="black" stroke-width="10"/>
<circle cx="1203" cy="738" r="34" stroke="black" stroke-width="2"/>
<path d="M1211.44 753H1191.95V749.133L1201.15 739.328C1202.41 737.948 1203.34 736.743 1203.94 735.715C1204.55 734.686 1204.86 733.71 1204.86 732.785C1204.86 731.522 1204.54 730.533 1203.9 729.816C1203.26 729.087 1202.35 728.723 1201.17 728.723C1199.89 728.723 1198.88 729.165 1198.14 730.051C1197.41 730.923 1197.05 732.076 1197.05 733.508H1191.38C1191.38 731.776 1191.79 730.194 1192.61 728.762C1193.45 727.329 1194.62 726.21 1196.13 725.402C1197.64 724.582 1199.35 724.172 1201.27 724.172C1204.2 724.172 1206.47 724.875 1208.08 726.281C1209.71 727.688 1210.52 729.673 1210.52 732.238C1210.52 733.645 1210.16 735.077 1209.43 736.535C1208.7 737.993 1207.45 739.693 1205.68 741.633L1199.21 748.449H1211.44V753Z" fill="black"/>
<circle cx="794" cy="831" r="34" stroke="black" stroke-width="2"/>
<path d="M788.691 829.281H791.699C793.132 829.281 794.193 828.923 794.883 828.207C795.573 827.491 795.918 826.54 795.918 825.355C795.918 824.21 795.573 823.318 794.883 822.68C794.206 822.042 793.268 821.723 792.07 821.723C790.99 821.723 790.085 822.022 789.355 822.621C788.626 823.207 788.262 823.975 788.262 824.926H782.617C782.617 823.441 783.014 822.113 783.809 820.941C784.616 819.757 785.736 818.832 787.168 818.168C788.613 817.504 790.202 817.172 791.934 817.172C794.941 817.172 797.298 817.895 799.004 819.34C800.71 820.772 801.562 822.751 801.562 825.277C801.562 826.579 801.165 827.777 800.371 828.871C799.577 829.965 798.535 830.805 797.246 831.391C798.848 831.964 800.039 832.823 800.82 833.969C801.615 835.115 802.012 836.469 802.012 838.031C802.012 840.557 801.087 842.582 799.238 844.105C797.402 845.629 794.967 846.391 791.934 846.391C789.095 846.391 786.771 845.642 784.961 844.145C783.164 842.647 782.266 840.668 782.266 838.207H787.91C787.91 839.275 788.307 840.147 789.102 840.824C789.909 841.501 790.898 841.84 792.07 841.84C793.411 841.84 794.46 841.488 795.215 840.785C795.983 840.069 796.367 839.125 796.367 837.953C796.367 835.115 794.805 833.695 791.68 833.695H788.691V829.281Z" fill="black"/>
<circle cx="429" cy="798" r="34" stroke="black" stroke-width="2"/>
<path d="M434.648 802.297H437.871V806.848H434.648V813H429.004V806.848H417.344L417.09 803.293L428.945 784.562H434.648V802.297ZM422.715 802.297H429.004V792.258L428.633 792.902L422.715 802.297Z" fill="black"/>
<circle cx="429" cy="280" r="34" stroke="black" stroke-width="2"/>
<path d="M418.789 281.016L420.43 266.562H436.367V271.27H425.059L424.355 277.383C425.697 276.667 427.122 276.309 428.633 276.309C431.341 276.309 433.464 277.148 435 278.828C436.536 280.508 437.305 282.858 437.305 285.879C437.305 287.715 436.914 289.362 436.133 290.82C435.365 292.266 434.258 293.392 432.812 294.199C431.367 294.993 429.661 295.391 427.695 295.391C425.977 295.391 424.382 295.046 422.91 294.355C421.439 293.652 420.273 292.669 419.414 291.406C418.568 290.143 418.118 288.704 418.066 287.09H423.652C423.77 288.275 424.18 289.199 424.883 289.863C425.599 290.514 426.53 290.84 427.676 290.84C428.952 290.84 429.935 290.384 430.625 289.473C431.315 288.548 431.66 287.246 431.66 285.566C431.66 283.952 431.263 282.715 430.469 281.855C429.674 280.996 428.548 280.566 427.09 280.566C425.749 280.566 424.661 280.918 423.828 281.621L423.281 282.129L418.789 281.016Z" fill="black"/>
<circle cx="1430" cy="491" r="34" stroke="black" stroke-width="2"/>
<path d="M1434.26 477.27V481.918H1433.71C1431.16 481.957 1429.11 482.621 1427.54 483.91C1425.99 485.199 1425.06 486.99 1424.75 489.281C1426.26 487.745 1428.17 486.977 1430.47 486.977C1432.95 486.977 1434.91 487.862 1436.37 489.633C1437.83 491.404 1438.56 493.734 1438.56 496.625C1438.56 498.474 1438.15 500.147 1437.35 501.645C1436.55 503.142 1435.42 504.307 1433.95 505.141C1432.49 505.974 1430.84 506.391 1428.99 506.391C1425.99 506.391 1423.57 505.349 1421.72 503.266C1419.89 501.182 1418.97 498.402 1418.97 494.926V492.895C1418.97 489.809 1419.55 487.087 1420.71 484.73C1421.88 482.361 1423.55 480.531 1425.73 479.242C1427.91 477.94 1430.45 477.283 1433.32 477.27H1434.26ZM1428.75 491.508C1427.84 491.508 1427.02 491.749 1426.27 492.23C1425.53 492.699 1424.98 493.324 1424.63 494.105V495.824C1424.63 497.712 1425 499.19 1425.75 500.258C1426.49 501.312 1427.53 501.84 1428.87 501.84C1430.08 501.84 1431.06 501.365 1431.8 500.414C1432.56 499.451 1432.93 498.207 1432.93 496.684C1432.93 495.134 1432.56 493.884 1431.8 492.934C1431.05 491.983 1430.03 491.508 1428.75 491.508Z" fill="black"/>
<circle cx="1491" cy="738" r="34" stroke="black" stroke-width="2"/>
<path d="M1493.66 753H1488.02V731.242L1481.28 733.332V728.742L1493.05 724.523H1493.66V753Z" fill="black"/>
<defs>
<filter id="filter0_d" x="517" y="85" width="835" height="924" filterUnits="userSpaceOnUse" color-interpolation-filters="sRGB">
<feFlood flood-opacity="0" result="BackgroundImageFix"/>
<feColorMatrix in="SourceAlpha" type="matrix" values="0 0 0 0 0 0 0 0 0 0 0 0 0 0 0 0 0 0 127 0" result="hardAlpha"/>
<feOffset dx="20" dy="20"/>
<feGaussianBlur stdDeviation="2"/>
<feComposite in2="hardAlpha" operator="out"/>
<feColorMatrix type="matrix" values="0 0 0 0 0 0 0 0 0 0 0 0 0 0 0 0 0 0 0.25 0"/>
<feBlend mode="normal" in2="BackgroundImageFix" result="effect1_dropShadow"/>
<feBlend mode="normal" in="SourceGraphic" in2="effect1_dropShadow" result="shape"/>
</filter>
<filter id="filter1_d" x="78" y="243" width="294" height="617" filterUnits="userSpaceOnUse" color-interpolation-filters="sRGB">
<feFlood flood-opacity="0" result="BackgroundImageFix"/>
<feColorMatrix in="SourceAlpha" type="matrix" values="0 0 0 0 0 0 0 0 0 0 0 0 0 0 0 0 0 0 127 0" result="hardAlpha"/>
<feOffset dx="20" dy="20"/>
<feGaussianBlur stdDeviation="2"/>
<feComposite in2="hardAlpha" operator="out"/>
<feColorMatrix type="matrix" values="0 0 0 0 0 0 0 0 0 0 0 0 0 0 0 0 0 0 0.25 0"/>
<feBlend mode="normal" in2="BackgroundImageFix" result="effect1_dropShadow"/>
<feBlend mode="normal" in="SourceGraphic" in2="effect1_dropShadow" result="shape"/>
</filter>
<filter id="filter2_d" x="1531" y="446" width="374" height="374" filterUnits="userSpaceOnUse" color-interpolation-filters="sRGB">
<feFlood flood-opacity="0" result="BackgroundImageFix"/>
<feColorMatrix in="SourceAlpha" type="matrix" values="0 0 0 0 0 0 0 0 0 0 0 0 0 0 0 0 0 0 127 0" result="hardAlpha"/>
<feOffset dx="20" dy="20"/>
<feGaussianBlur stdDeviation="2"/>
<feComposite in2="hardAlpha" operator="out"/>
<feColorMatrix type="matrix" values="0 0 0 0 0 0 0 0 0 0 0 0 0 0 0 0 0 0 0.25 0"/>
<feBlend mode="normal" in2="BackgroundImageFix" result="effect1_dropShadow"/>
<feBlend mode="normal" in="SourceGraphic" in2="effect1_dropShadow" result="shape"/>
</filter>
<filter id="filter3_d" x="1566" y="480" width="304" height="305" filterUnits="userSpaceOnUse" color-interpolation-filters="sRGB">
<feFlood flood-opacity="0" result="BackgroundImageFix"/>
<feColorMatrix in="SourceAlpha" type="matrix" values="0 0 0 0 0 0 0 0 0 0 0 0 0 0 0 0 0 0 127 0" result="hardAlpha"/>
<feOffset dx="20" dy="20"/>
<feGaussianBlur stdDeviation="2"/>
<feComposite in2="hardAlpha" operator="out"/>
<feColorMatrix type="matrix" values="0 0 0 0 0 0 0 0 0 0 0 0 0 0 0 0 0 0 0.25 0"/>
<feBlend mode="normal" in2="BackgroundImageFix" result="effect1_dropShadow"/>
<feBlend mode="normal" in="SourceGraphic" in2="effect1_dropShadow" result="shape"/>
</filter>
<filter id="filter4_d" x="586" y="127" width="574" height="399" filterUnits="userSpaceOnUse" color-interpolation-filters="sRGB">
<feFlood flood-opacity="0" result="BackgroundImageFix"/>
<feColorMatrix in="SourceAlpha" type="matrix" values="0 0 0 0 0 0 0 0 0 0 0 0 0 0 0 0 0 0 127 0" result="hardAlpha"/>
<feOffset dx="20" dy="20"/>
<feGaussianBlur stdDeviation="2"/>
<feComposite in2="hardAlpha" operator="out"/>
<feColorMatrix type="matrix" values="0 0 0 0 0 0 0 0 0 0 0 0 0 0 0 0 0 0 0.25 0"/>
<feBlend mode="normal" in2="BackgroundImageFix" result="effect1_dropShadow"/>
<feBlend mode="normal" in="SourceGraphic" in2="effect1_dropShadow" result="shape"/>
</filter>
<filter id="filter5_d" x="586" y="569" width="574" height="399" filterUnits="userSpaceOnUse" color-interpolation-filters="sRGB">
<feFlood flood-opacity="0" result="BackgroundImageFix"/>
<feColorMatrix in="SourceAlpha" type="matrix" values="0 0 0 0 0 0 0 0 0 0 0 0 0 0 0 0 0 0 127 0" result="hardAlpha"/>
<feOffset dx="20" dy="20"/>
<feGaussianBlur stdDeviation="2"/>
<feComposite in2="hardAlpha" operator="out"/>
<feColorMatrix type="matrix" values="0 0 0 0 0 0 0 0 0 0 0 0 0 0 0 0 0 0 0.25 0"/>
<feBlend mode="normal" in2="BackgroundImageFix" result="effect1_dropShadow"/>
<feBlend mode="normal" in="SourceGraphic" in2="effect1_dropShadow" result="shape"/>
</filter>
</defs>
</svg>
