<svg width="1815" height="920" viewBox="0 0 1815 920" fill="none" xmlns="http://www.w3.org/2000/svg">
<g clip-path="url(#clip0_885:3)">
<rect width="1815" height="920" fill="white"/>
<g filter="url(#filter0_d_885:3)">
<rect x="464" width="811" height="900" rx="50" fill="url(#paint0_linear_885:3)" shape-rendering="crispEdges"/>
<rect x="465" y="1" width="809" height="898" rx="49" stroke="black" stroke-width="2" shape-rendering="crispEdges"/>
</g>
<g filter="url(#filter1_d_885:3)">
<g filter="url(#filter2_d_885:3)">
<rect x="1513" y="395" width="280" height="281" rx="30" fill="url(#paint1_linear_885:3)" shape-rendering="crispEdges"/>
</g>
<path d="M1762.38 397.458H1543.63C1527.52 397.458 1514.46 410.517 1514.46 426.625V645.375C1514.46 661.483 1527.52 674.542 1543.63 674.542H1762.38C1778.48 674.542 1791.54 661.483 1791.54 645.375V426.625C1791.54 410.517 1778.48 397.458 1762.38 397.458Z" stroke="black" stroke-width="2"/>
<path d="M1653 477.667H1550.92C1542.86 477.667 1536.33 484.196 1536.33 492.25V638.083C1536.33 646.137 1542.86 652.666 1550.92 652.666H1653C1661.05 652.666 1667.58 646.137 1667.58 638.083V492.25C1667.58 484.196 1661.05 477.667 1653 477.667Z" fill="#CCCCCC"/>
<path d="M1645.71 484.958H1558.21C1550.15 484.958 1543.62 491.487 1543.62 499.542V630.792C1543.62 638.846 1550.15 645.375 1558.21 645.375H1645.71C1653.76 645.375 1660.29 638.846 1660.29 630.792V499.542C1660.29 491.487 1653.76 484.958 1645.71 484.958Z" stroke="black" stroke-width="2"/>
<path d="M1514.46 455.792H1791.54" stroke="black" stroke-width="2" stroke-linecap="square"/>
<path d="M1689.46 630.791H1762.38M1689.46 499.542H1762.38H1689.46ZM1689.46 543.292H1762.38H1689.46ZM1689.46 587.041H1762.38H1689.46Z" stroke="black" stroke-width="2" stroke-linecap="round"/>
<path d="M1676.63 441.208C1684.68 441.208 1691.21 434.679 1691.21 426.625C1691.21 418.571 1684.68 412.042 1676.63 412.042C1668.57 412.042 1662.04 418.571 1662.04 426.625C1662.04 434.679 1668.57 441.208 1676.63 441.208Z" fill="#2DB832"/>
<path d="M1716.79 441.208C1724.85 441.208 1731.38 434.679 1731.38 426.625C1731.38 418.571 1724.85 412.042 1716.79 412.042C1708.74 412.042 1702.21 418.571 1702.21 426.625C1702.21 434.679 1708.74 441.208 1716.79 441.208Z" fill="#F3E13D"/>
<path d="M1752.96 441.208C1761.01 441.208 1767.54 434.679 1767.54 426.625C1767.54 418.571 1761.01 412.042 1752.96 412.042C1744.9 412.042 1738.38 418.571 1738.38 426.625C1738.38 434.679 1744.9 441.208 1752.96 441.208Z" fill="#EB3232"/>
</g>
<g filter="url(#filter3_d_885:3)">
<rect x="533" y="43" width="550" height="375" rx="20" fill="url(#paint2_linear_885:3)" shape-rendering="crispEdges"/>
<rect x="534" y="44" width="548" height="373" rx="19" stroke="black" stroke-width="2" shape-rendering="crispEdges"/>
</g>
<rect x="738" y="311" width="148" height="63" fill="#33428D" stroke="black" stroke-width="2"/>
<rect x="590" y="138" width="148" height="63" fill="#33428D" stroke="black" stroke-width="2"/>
<rect x="890" y="138" width="148" height="63" fill="#33428D" stroke="black" stroke-width="2"/>
<path d="M918.066 203.465L890.182 210.936L910.595 231.348L918.066 203.465ZM813.768 311.298L903.924 221.142L900.388 217.607L810.232 307.763L813.768 311.298Z" fill="black"/>
<path d="M889 170L864 155.566V184.434L889 170ZM739 172.5H866.5V167.5H739V172.5Z" fill="black"/>
<path d="M706 204L713.471 231.884L733.884 211.471L706 204ZM813.834 308.298L723.678 218.142L720.142 221.678L810.298 311.834L813.834 308.298Z" fill="black"/>
<path d="M719.309 82.4258C719.309 85.082 718.879 87.3932 718.02 89.3594C717.16 91.3125 715.969 92.8815 714.445 94.0664L719.172 97.7773L715.441 101.078L709.387 96.2148C708.697 96.332 707.98 96.3906 707.238 96.3906C704.882 96.3906 702.779 95.8242 700.93 94.6914C699.081 93.5586 697.648 91.944 696.633 89.8477C695.617 87.7383 695.103 85.3164 695.09 82.582V81.1758C695.09 78.3763 695.591 75.9154 696.594 73.793C697.609 71.6576 699.035 70.0234 700.871 68.8906C702.72 67.7448 704.829 67.1719 707.199 67.1719C709.569 67.1719 711.672 67.7448 713.508 68.8906C715.357 70.0234 716.783 71.6576 717.785 73.793C718.801 75.9154 719.309 78.3698 719.309 81.1562V82.4258ZM713.371 81.1367C713.371 78.1549 712.837 75.8893 711.77 74.3398C710.702 72.7904 709.178 72.0156 707.199 72.0156C705.233 72.0156 703.716 72.7839 702.648 74.3203C701.581 75.8438 701.04 78.0833 701.027 81.0391V82.4258C701.027 85.3294 701.561 87.582 702.629 89.1836C703.697 90.7852 705.233 91.5859 707.238 91.5859C709.204 91.5859 710.715 90.8177 711.77 89.2812C712.824 87.7318 713.358 85.4792 713.371 82.5234V81.1367ZM735.891 93.8516C734.497 95.5443 732.57 96.3906 730.109 96.3906C727.844 96.3906 726.112 95.7396 724.914 94.4375C723.729 93.1354 723.124 91.2279 723.098 88.7148V74.8672H728.742V88.5195C728.742 90.7201 729.745 91.8203 731.75 91.8203C733.664 91.8203 734.979 91.1562 735.695 89.8281V74.8672H741.359V96H736.047L735.891 93.8516ZM755.344 96.3906C752.245 96.3906 749.719 95.4401 747.766 93.5391C745.826 91.638 744.855 89.1055 744.855 85.9414V85.3945C744.855 83.2721 745.266 81.3776 746.086 79.7109C746.906 78.0312 748.065 76.7422 749.562 75.8438C751.073 74.9323 752.792 74.4766 754.719 74.4766C757.609 74.4766 759.882 75.388 761.535 77.2109C763.202 79.0339 764.035 81.6185 764.035 84.9648V87.2695H750.578C750.76 88.6497 751.307 89.7565 752.219 90.5898C753.143 91.4232 754.309 91.8398 755.715 91.8398C757.889 91.8398 759.589 91.0521 760.812 89.4766L763.586 92.582C762.74 93.7799 761.594 94.7174 760.148 95.3945C758.703 96.0586 757.102 96.3906 755.344 96.3906ZM754.699 79.0469C753.579 79.0469 752.668 79.4245 751.965 80.1797C751.275 80.9349 750.832 82.0156 750.637 83.4219H758.488V82.9727C758.462 81.7227 758.124 80.7591 757.473 80.082C756.822 79.3919 755.897 79.0469 754.699 79.0469ZM779.133 80.1602C778.365 80.056 777.688 80.0039 777.102 80.0039C774.966 80.0039 773.566 80.7266 772.902 82.1719V96H767.258V74.8672H772.59L772.746 77.3867C773.879 75.4466 775.448 74.4766 777.453 74.4766C778.078 74.4766 778.664 74.5612 779.211 74.7305L779.133 80.1602ZM790.109 88.0117L794.016 74.8672H800.07L791.574 99.2812L791.105 100.395C789.842 103.155 787.759 104.535 784.855 104.535C784.035 104.535 783.202 104.411 782.355 104.164V99.8867L783.215 99.9062C784.283 99.9062 785.077 99.7435 785.598 99.418C786.132 99.0924 786.548 98.5521 786.848 97.7969L787.512 96.0586L780.109 74.8672H786.184L790.109 88.0117ZM820.285 67.5625L827.59 88.1875L834.855 67.5625H842.551V96H836.672V88.2266L837.258 74.8086L829.582 96H825.559L817.902 74.8281L818.488 88.2266V96H812.629V67.5625H820.285ZM846.418 85.2383C846.418 83.1419 846.822 81.2734 847.629 79.6328C848.436 77.9922 849.595 76.7227 851.105 75.8242C852.629 74.9258 854.393 74.4766 856.398 74.4766C859.25 74.4766 861.574 75.349 863.371 77.0938C865.181 78.8385 866.19 81.2083 866.398 84.2031L866.438 85.6484C866.438 88.8906 865.533 91.4948 863.723 93.4609C861.913 95.4141 859.484 96.3906 856.438 96.3906C853.391 96.3906 850.956 95.4141 849.133 93.4609C847.323 91.5078 846.418 88.8516 846.418 85.4922V85.2383ZM852.062 85.6484C852.062 87.6536 852.44 89.1901 853.195 90.2578C853.951 91.3125 855.031 91.8398 856.438 91.8398C857.805 91.8398 858.872 91.319 859.641 90.2773C860.409 89.2227 860.793 87.543 860.793 85.2383C860.793 83.2721 860.409 81.7487 859.641 80.668C858.872 79.5872 857.792 79.0469 856.398 79.0469C855.018 79.0469 853.951 79.5872 853.195 80.668C852.44 81.7357 852.062 83.3958 852.062 85.6484ZM869.035 85.2773C869.035 81.9831 869.771 79.3594 871.242 77.4062C872.727 75.4531 874.751 74.4766 877.316 74.4766C879.374 74.4766 881.073 75.2448 882.414 76.7812V66H888.078V96H882.98L882.707 93.7539C881.301 95.5117 879.491 96.3906 877.277 96.3906C874.79 96.3906 872.792 95.4141 871.281 93.4609C869.784 91.4948 869.035 88.7669 869.035 85.2773ZM874.68 85.6875C874.68 87.6667 875.025 89.1836 875.715 90.2383C876.405 91.293 877.408 91.8203 878.723 91.8203C880.467 91.8203 881.698 91.0846 882.414 89.6133V81.2734C881.711 79.8021 880.493 79.0664 878.762 79.0664C876.04 79.0664 874.68 81.2734 874.68 85.6875ZM902.18 96.3906C899.081 96.3906 896.555 95.4401 894.602 93.5391C892.661 91.638 891.691 89.1055 891.691 85.9414V85.3945C891.691 83.2721 892.102 81.3776 892.922 79.7109C893.742 78.0312 894.901 76.7422 896.398 75.8438C897.909 74.9323 899.628 74.4766 901.555 74.4766C904.445 74.4766 906.717 75.388 908.371 77.2109C910.038 79.0339 910.871 81.6185 910.871 84.9648V87.2695H897.414C897.596 88.6497 898.143 89.7565 899.055 90.5898C899.979 91.4232 901.145 91.8398 902.551 91.8398C904.725 91.8398 906.424 91.0521 907.648 89.4766L910.422 92.582C909.576 93.7799 908.43 94.7174 906.984 95.3945C905.539 96.0586 903.938 96.3906 902.18 96.3906ZM901.535 79.0469C900.415 79.0469 899.504 79.4245 898.801 80.1797C898.111 80.9349 897.668 82.0156 897.473 83.4219H905.324V82.9727C905.298 81.7227 904.96 80.7591 904.309 80.082C903.658 79.3919 902.733 79.0469 901.535 79.0469ZM920.051 96H914.387V66H920.051V96Z" fill="black"/>
<g filter="url(#filter4_d_885:3)">
<rect x="533" y="484" width="550" height="375" rx="20" fill="url(#paint3_linear_885:3)" shape-rendering="crispEdges"/>
<rect x="534" y="485" width="548" height="373" rx="19" stroke="black" stroke-width="2" shape-rendering="crispEdges"/>
</g>
<path d="M964 638L949.566 663H978.434L964 638ZM966.5 743V660.5H961.5V743H966.5Z" fill="black"/>
<path d="M889.029 606.014L864.029 591.581V620.448L889.029 606.014ZM739.029 608.514H866.529V603.514H739.029V608.514Z" fill="black"/>
<path d="M679.406 522.527C679.185 525.587 678.052 527.996 676.008 529.754C673.977 531.512 671.294 532.391 667.961 532.391C664.315 532.391 661.444 531.167 659.348 528.719C657.264 526.258 656.223 522.885 656.223 518.602V516.863C656.223 514.129 656.704 511.72 657.668 509.637C658.632 507.553 660.005 505.958 661.789 504.852C663.586 503.732 665.669 503.172 668.039 503.172C671.32 503.172 673.964 504.051 675.969 505.809C677.974 507.566 679.133 510.034 679.445 513.211H673.586C673.443 511.375 672.928 510.047 672.043 509.227C671.171 508.393 669.836 507.977 668.039 507.977C666.086 507.977 664.621 508.68 663.645 510.086C662.681 511.479 662.186 513.647 662.16 516.59V518.738C662.16 521.811 662.622 524.057 663.547 525.477C664.484 526.896 665.956 527.605 667.961 527.605C669.771 527.605 671.118 527.195 672.004 526.375C672.902 525.542 673.417 524.259 673.547 522.527H679.406ZM682.004 521.238C682.004 519.142 682.408 517.273 683.215 515.633C684.022 513.992 685.181 512.723 686.691 511.824C688.215 510.926 689.979 510.477 691.984 510.477C694.836 510.477 697.16 511.349 698.957 513.094C700.767 514.839 701.776 517.208 701.984 520.203L702.023 521.648C702.023 524.891 701.118 527.495 699.309 529.461C697.499 531.414 695.07 532.391 692.023 532.391C688.977 532.391 686.542 531.414 684.719 529.461C682.909 527.508 682.004 524.852 682.004 521.492V521.238ZM687.648 521.648C687.648 523.654 688.026 525.19 688.781 526.258C689.536 527.312 690.617 527.84 692.023 527.84C693.391 527.84 694.458 527.319 695.227 526.277C695.995 525.223 696.379 523.543 696.379 521.238C696.379 519.272 695.995 517.749 695.227 516.668C694.458 515.587 693.378 515.047 691.984 515.047C690.604 515.047 689.536 515.587 688.781 516.668C688.026 517.736 687.648 519.396 687.648 521.648ZM710.793 510.867L710.969 513.23C712.466 511.395 714.491 510.477 717.043 510.477C719.764 510.477 721.633 511.551 722.648 513.699C724.133 511.551 726.249 510.477 728.996 510.477C731.288 510.477 732.993 511.147 734.113 512.488C735.233 513.816 735.793 515.822 735.793 518.504V532H730.129V518.523C730.129 517.326 729.895 516.453 729.426 515.906C728.957 515.346 728.13 515.066 726.945 515.066C725.253 515.066 724.081 515.874 723.43 517.488L723.449 532H717.805V518.543C717.805 517.319 717.564 516.434 717.082 515.887C716.6 515.34 715.78 515.066 714.621 515.066C713.02 515.066 711.861 515.73 711.145 517.059V532H705.5V510.867H710.793ZM745.441 510.867L745.617 513.23C747.115 511.395 749.139 510.477 751.691 510.477C754.413 510.477 756.281 511.551 757.297 513.699C758.781 511.551 760.897 510.477 763.645 510.477C765.936 510.477 767.642 511.147 768.762 512.488C769.882 513.816 770.441 515.822 770.441 518.504V532H764.777V518.523C764.777 517.326 764.543 516.453 764.074 515.906C763.605 515.346 762.779 515.066 761.594 515.066C759.901 515.066 758.729 515.874 758.078 517.488L758.098 532H752.453V518.543C752.453 517.319 752.212 516.434 751.73 515.887C751.249 515.34 750.428 515.066 749.27 515.066C747.668 515.066 746.509 515.73 745.793 517.059V532H740.148V510.867H745.441ZM787.043 532C786.783 531.492 786.594 530.861 786.477 530.105C785.109 531.629 783.332 532.391 781.145 532.391C779.074 532.391 777.355 531.792 775.988 530.594C774.634 529.396 773.957 527.885 773.957 526.062C773.957 523.823 774.784 522.104 776.438 520.906C778.104 519.708 780.507 519.103 783.645 519.09H786.242V517.879C786.242 516.902 785.988 516.121 785.48 515.535C784.986 514.949 784.198 514.656 783.117 514.656C782.167 514.656 781.418 514.884 780.871 515.34C780.337 515.796 780.07 516.421 780.07 517.215H774.426C774.426 515.991 774.803 514.858 775.559 513.816C776.314 512.775 777.382 511.961 778.762 511.375C780.142 510.776 781.691 510.477 783.41 510.477C786.014 510.477 788.078 511.134 789.602 512.449C791.138 513.751 791.906 515.587 791.906 517.957V527.117C791.919 529.122 792.199 530.639 792.746 531.668V532H787.043ZM782.375 528.074C783.208 528.074 783.977 527.892 784.68 527.527C785.383 527.15 785.904 526.648 786.242 526.023V522.391H784.133C781.307 522.391 779.803 523.367 779.621 525.32L779.602 525.652C779.602 526.355 779.849 526.935 780.344 527.391C780.839 527.846 781.516 528.074 782.375 528.074ZM801.438 510.867L801.613 513.309C803.124 511.421 805.148 510.477 807.688 510.477C809.927 510.477 811.594 511.134 812.688 512.449C813.781 513.764 814.341 515.73 814.367 518.348V532H808.723V518.484C808.723 517.286 808.462 516.421 807.941 515.887C807.421 515.34 806.555 515.066 805.344 515.066C803.755 515.066 802.564 515.743 801.77 517.098V532H796.125V510.867H801.438ZM817.785 521.277C817.785 517.983 818.521 515.359 819.992 513.406C821.477 511.453 823.501 510.477 826.066 510.477C828.124 510.477 829.823 511.245 831.164 512.781V502H836.828V532H831.73L831.457 529.754C830.051 531.512 828.241 532.391 826.027 532.391C823.54 532.391 821.542 531.414 820.031 529.461C818.534 527.495 817.785 524.767 817.785 521.277ZM823.43 521.688C823.43 523.667 823.775 525.184 824.465 526.238C825.155 527.293 826.158 527.82 827.473 527.82C829.217 527.82 830.448 527.085 831.164 525.613V517.273C830.461 515.802 829.243 515.066 827.512 515.066C824.79 515.066 823.43 517.273 823.43 521.688ZM859.191 503.562L866.496 524.188L873.762 503.562H881.457V532H875.578V524.227L876.164 510.809L868.488 532H864.465L856.809 510.828L857.395 524.227V532H851.535V503.562H859.191ZM885.324 521.238C885.324 519.142 885.728 517.273 886.535 515.633C887.342 513.992 888.501 512.723 890.012 511.824C891.535 510.926 893.299 510.477 895.305 510.477C898.156 510.477 900.48 511.349 902.277 513.094C904.087 514.839 905.096 517.208 905.305 520.203L905.344 521.648C905.344 524.891 904.439 527.495 902.629 529.461C900.819 531.414 898.391 532.391 895.344 532.391C892.297 532.391 889.862 531.414 888.039 529.461C886.229 527.508 885.324 524.852 885.324 521.492V521.238ZM890.969 521.648C890.969 523.654 891.346 525.19 892.102 526.258C892.857 527.312 893.938 527.84 895.344 527.84C896.711 527.84 897.779 527.319 898.547 526.277C899.315 525.223 899.699 523.543 899.699 521.238C899.699 519.272 899.315 517.749 898.547 516.668C897.779 515.587 896.698 515.047 895.305 515.047C893.924 515.047 892.857 515.587 892.102 516.668C891.346 517.736 890.969 519.396 890.969 521.648ZM907.941 521.277C907.941 517.983 908.677 515.359 910.148 513.406C911.633 511.453 913.658 510.477 916.223 510.477C918.28 510.477 919.979 511.245 921.32 512.781V502H926.984V532H921.887L921.613 529.754C920.207 531.512 918.397 532.391 916.184 532.391C913.697 532.391 911.698 531.414 910.188 529.461C908.69 527.495 907.941 524.767 907.941 521.277ZM913.586 521.688C913.586 523.667 913.931 525.184 914.621 526.238C915.311 527.293 916.314 527.82 917.629 527.82C919.374 527.82 920.604 527.085 921.32 525.613V517.273C920.617 515.802 919.4 515.066 917.668 515.066C914.947 515.066 913.586 517.273 913.586 521.688ZM941.086 532.391C937.987 532.391 935.461 531.44 933.508 529.539C931.568 527.638 930.598 525.105 930.598 521.941V521.395C930.598 519.272 931.008 517.378 931.828 515.711C932.648 514.031 933.807 512.742 935.305 511.844C936.815 510.932 938.534 510.477 940.461 510.477C943.352 510.477 945.624 511.388 947.277 513.211C948.944 515.034 949.777 517.618 949.777 520.965V523.27H936.32C936.503 524.65 937.049 525.757 937.961 526.59C938.885 527.423 940.051 527.84 941.457 527.84C943.632 527.84 945.331 527.052 946.555 525.477L949.328 528.582C948.482 529.78 947.336 530.717 945.891 531.395C944.445 532.059 942.844 532.391 941.086 532.391ZM940.441 515.047C939.322 515.047 938.41 515.424 937.707 516.18C937.017 516.935 936.574 518.016 936.379 519.422H944.23V518.973C944.204 517.723 943.866 516.759 943.215 516.082C942.564 515.392 941.639 515.047 940.441 515.047ZM958.957 532H953.293V502H958.957V532Z" fill="black"/>
<rect x="890" y="745" width="148" height="63" fill="#33428D" stroke="black" stroke-width="2"/>
<rect x="890" y="576" width="148" height="63" fill="#33428D" stroke="black" stroke-width="2"/>
<rect x="590" y="576" width="148" height="63" fill="#33428D" stroke="black" stroke-width="2"/>
<path d="M1323.08 575L1373.08 603.868V546.132L1323.08 575ZM1493.08 570H1368.08V580H1493.08V570Z" fill="#33428D"/>
<path d="M1493 484L1443 455.132V512.868L1493 484ZM1323 489H1448V479H1323V489Z" fill="#33428D"/>
<path d="M1082.01 779L1132.01 807.868V750.132L1082.01 779ZM1227.01 774H1127.01V784H1227.01V774Z" fill="#33428D"/>
<path d="M278 640L328 668.868V611.132L278 640ZM533 635H323V645H533V635Z" fill="#33428D"/>
<path d="M533 296L483 267.132V324.868L533 296ZM278 301H488V291H278V301Z" fill="#33428D"/>
<path d="M1217 495L1245.87 445H1188.13L1217 495ZM1212 250V450H1222V250H1212Z" fill="#33428D"/>
<line x1="1222" y1="578" x2="1222" y2="778" stroke="#33428D" stroke-width="10"/>
<line x1="1032" y1="251" x2="1222" y2="251" stroke="#33428D" stroke-width="10"/>
<circle cx="1150" cy="653" r="34" stroke="black" stroke-width="2"/>
<path d="M1158.44 668H1138.95V664.133L1148.15 654.328C1149.41 652.948 1150.34 651.743 1150.94 650.715C1151.55 649.686 1151.86 648.71 1151.86 647.785C1151.86 646.522 1151.54 645.533 1150.9 644.816C1150.26 644.087 1149.35 643.723 1148.17 643.723C1146.89 643.723 1145.88 644.165 1145.14 645.051C1144.41 645.923 1144.05 647.076 1144.05 648.508H1138.38C1138.38 646.776 1138.79 645.194 1139.61 643.762C1140.45 642.329 1141.62 641.21 1143.13 640.402C1144.64 639.582 1146.35 639.172 1148.27 639.172C1151.2 639.172 1153.47 639.875 1155.08 641.281C1156.71 642.688 1157.52 644.673 1157.52 647.238C1157.52 648.645 1157.16 650.077 1156.43 651.535C1155.7 652.993 1154.45 654.693 1152.68 656.633L1146.21 663.449H1158.44V668Z" fill="black"/>
<circle cx="741" cy="746" r="34" stroke="black" stroke-width="2"/>
<path d="M735.691 744.281H738.699C740.132 744.281 741.193 743.923 741.883 743.207C742.573 742.491 742.918 741.54 742.918 740.355C742.918 739.21 742.573 738.318 741.883 737.68C741.206 737.042 740.268 736.723 739.07 736.723C737.99 736.723 737.085 737.022 736.355 737.621C735.626 738.207 735.262 738.975 735.262 739.926H729.617C729.617 738.441 730.014 737.113 730.809 735.941C731.616 734.757 732.736 733.832 734.168 733.168C735.613 732.504 737.202 732.172 738.934 732.172C741.941 732.172 744.298 732.895 746.004 734.34C747.71 735.772 748.562 737.751 748.562 740.277C748.562 741.579 748.165 742.777 747.371 743.871C746.577 744.965 745.535 745.805 744.246 746.391C745.848 746.964 747.039 747.823 747.82 748.969C748.615 750.115 749.012 751.469 749.012 753.031C749.012 755.557 748.087 757.582 746.238 759.105C744.402 760.629 741.967 761.391 738.934 761.391C736.095 761.391 733.771 760.642 731.961 759.145C730.164 757.647 729.266 755.668 729.266 753.207H734.91C734.91 754.275 735.307 755.147 736.102 755.824C736.909 756.501 737.898 756.84 739.07 756.84C740.411 756.84 741.46 756.488 742.215 755.785C742.983 755.069 743.367 754.125 743.367 752.953C743.367 750.115 741.805 748.695 738.68 748.695H735.691V744.281Z" fill="black"/>
<circle cx="376" cy="713" r="34" stroke="black" stroke-width="2"/>
<path d="M381.648 717.297H384.871V721.848H381.648V728H376.004V721.848H364.344L364.09 718.293L375.945 699.562H381.648V717.297ZM369.715 717.297H376.004V707.258L375.633 707.902L369.715 717.297Z" fill="black"/>
<circle cx="376" cy="221" r="34" stroke="black" stroke-width="2"/>
<path d="M365.789 222.016L367.43 207.562H383.367V212.27H372.059L371.355 218.383C372.697 217.667 374.122 217.309 375.633 217.309C378.341 217.309 380.464 218.148 382 219.828C383.536 221.508 384.305 223.858 384.305 226.879C384.305 228.715 383.914 230.362 383.133 231.82C382.365 233.266 381.258 234.392 379.812 235.199C378.367 235.993 376.661 236.391 374.695 236.391C372.977 236.391 371.382 236.046 369.91 235.355C368.439 234.652 367.273 233.669 366.414 232.406C365.568 231.143 365.118 229.704 365.066 228.09H370.652C370.77 229.275 371.18 230.199 371.883 230.863C372.599 231.514 373.53 231.84 374.676 231.84C375.952 231.84 376.935 231.384 377.625 230.473C378.315 229.548 378.66 228.246 378.66 226.566C378.66 224.952 378.263 223.715 377.469 222.855C376.674 221.996 375.548 221.566 374.09 221.566C372.749 221.566 371.661 221.918 370.828 222.621L370.281 223.129L365.789 222.016Z" fill="black"/>
<circle cx="1412" cy="396" r="34" stroke="black" stroke-width="2"/>
<path d="M1416.26 382.27V386.918H1415.71C1413.16 386.957 1411.11 387.621 1409.54 388.91C1407.99 390.199 1407.06 391.99 1406.75 394.281C1408.26 392.745 1410.17 391.977 1412.47 391.977C1414.95 391.977 1416.91 392.862 1418.37 394.633C1419.83 396.404 1420.56 398.734 1420.56 401.625C1420.56 403.474 1420.15 405.147 1419.35 406.645C1418.55 408.142 1417.42 409.307 1415.95 410.141C1414.49 410.974 1412.84 411.391 1410.99 411.391C1407.99 411.391 1405.57 410.349 1403.72 408.266C1401.89 406.182 1400.97 403.402 1400.97 399.926V397.895C1400.97 394.809 1401.55 392.087 1402.71 389.73C1403.88 387.361 1405.55 385.531 1407.73 384.242C1409.91 382.94 1412.45 382.283 1415.32 382.27H1416.26ZM1410.75 396.508C1409.84 396.508 1409.02 396.749 1408.27 397.23C1407.53 397.699 1406.98 398.324 1406.63 399.105V400.824C1406.63 402.712 1407 404.19 1407.75 405.258C1408.49 406.312 1409.53 406.84 1410.87 406.84C1412.08 406.84 1413.06 406.365 1413.8 405.414C1414.56 404.451 1414.93 403.207 1414.93 401.684C1414.93 400.134 1414.56 398.884 1413.8 397.934C1413.05 396.983 1412.03 396.508 1410.75 396.508Z" fill="black"/>
<circle cx="1412" cy="657" r="34" stroke="black" stroke-width="2"/>
<path d="M1414.66 672H1409.02V650.242L1402.28 652.332V647.742L1414.05 643.523H1414.66V672Z" fill="black"/>
<g filter="url(#filter5_d_885:3)">
<rect x="10.5" y="220.367" width="265" height="469.458" fill="#4A72D9" stroke="#2253D1" stroke-width="5"/>
<path d="M143 758.5C179.198 758.5 212.092 751.264 236.03 739.451C259.809 727.716 275.5 711.034 275.5 691.843C275.5 672.653 259.809 655.971 236.03 644.236C212.092 632.422 179.198 625.187 143 625.187C106.802 625.187 73.9075 632.422 49.9697 644.236C26.1909 655.971 10.5 672.653 10.5 691.843C10.5 711.034 26.1909 727.716 49.9697 739.451C73.9075 751.264 106.802 758.5 143 758.5Z" fill="#4A72D9" stroke="#2253D1" stroke-width="5"/>
<rect x="13" y="226.482" width="260" height="464.458" fill="#4A72D9"/>
<path d="M143 286.813C179.198 286.813 212.092 279.578 236.03 267.764C259.809 256.029 275.5 239.347 275.5 220.157C275.5 200.966 259.809 184.284 236.03 172.549C212.092 160.736 179.198 153.5 143 153.5C106.802 153.5 73.9075 160.736 49.9697 172.549C26.1909 184.284 10.5 200.966 10.5 220.157C10.5 239.347 26.1909 256.029 49.9697 267.764C73.9075 279.578 106.802 286.813 143 286.813Z" fill="#4A72D9" stroke="#2253D1" stroke-width="5"/>
</g>
<path d="M40.3672 494V459.875H50.8672C53.8672 459.875 56.5469 460.555 58.9062 461.914C61.2812 463.258 63.1328 465.18 64.4609 467.68C65.7891 470.164 66.4531 472.992 66.4531 476.164V477.734C66.4531 480.906 65.7969 483.727 64.4844 486.195C63.1875 488.664 61.3516 490.578 58.9766 491.938C56.6016 493.297 53.9219 493.984 50.9375 494H40.3672ZM47.3984 465.57V488.352H50.7969C53.5469 488.352 55.6484 487.453 57.1016 485.656C58.5547 483.859 59.2969 481.289 59.3281 477.945V476.141C59.3281 472.672 58.6094 470.047 57.1719 468.266C55.7344 466.469 53.6328 465.57 50.8672 465.57H47.3984ZM85.8359 494C85.5234 493.391 85.2969 492.633 85.1562 491.727C83.5156 493.555 81.3828 494.469 78.7578 494.469C76.2734 494.469 74.2109 493.75 72.5703 492.312C70.9453 490.875 70.1328 489.062 70.1328 486.875C70.1328 484.188 71.125 482.125 73.1094 480.688C75.1094 479.25 77.9922 478.523 81.7578 478.508H84.875V477.055C84.875 475.883 84.5703 474.945 83.9609 474.242C83.3672 473.539 82.4219 473.188 81.125 473.188C79.9844 473.188 79.0859 473.461 78.4297 474.008C77.7891 474.555 77.4688 475.305 77.4688 476.258H70.6953C70.6953 474.789 71.1484 473.43 72.0547 472.18C72.9609 470.93 74.2422 469.953 75.8984 469.25C77.5547 468.531 79.4141 468.172 81.4766 468.172C84.6016 468.172 87.0781 468.961 88.9062 470.539C90.75 472.102 91.6719 474.305 91.6719 477.148V488.141C91.6875 490.547 92.0234 492.367 92.6797 493.602V494H85.8359ZM80.2344 489.289C81.2344 489.289 82.1562 489.07 83 488.633C83.8438 488.18 84.4688 487.578 84.875 486.828V482.469H82.3438C78.9531 482.469 77.1484 483.641 76.9297 485.984L76.9062 486.383C76.9062 487.227 77.2031 487.922 77.7969 488.469C78.3906 489.016 79.2031 489.289 80.2344 489.289ZM104.984 462.406V468.641H109.32V473.609H104.984V486.266C104.984 487.203 105.164 487.875 105.523 488.281C105.883 488.688 106.57 488.891 107.586 488.891C108.336 488.891 109 488.836 109.578 488.727V493.859C108.25 494.266 106.883 494.469 105.477 494.469C100.727 494.469 98.3047 492.07 98.2109 487.273V473.609H94.5078V468.641H98.2109V462.406H104.984ZM127.789 494C127.477 493.391 127.25 492.633 127.109 491.727C125.469 493.555 123.336 494.469 120.711 494.469C118.227 494.469 116.164 493.75 114.523 492.312C112.898 490.875 112.086 489.062 112.086 486.875C112.086 484.188 113.078 482.125 115.062 480.688C117.062 479.25 119.945 478.523 123.711 478.508H126.828V477.055C126.828 475.883 126.523 474.945 125.914 474.242C125.32 473.539 124.375 473.188 123.078 473.188C121.938 473.188 121.039 473.461 120.383 474.008C119.742 474.555 119.422 475.305 119.422 476.258H112.648C112.648 474.789 113.102 473.43 114.008 472.18C114.914 470.93 116.195 469.953 117.852 469.25C119.508 468.531 121.367 468.172 123.43 468.172C126.555 468.172 129.031 468.961 130.859 470.539C132.703 472.102 133.625 474.305 133.625 477.148V488.141C133.641 490.547 133.977 492.367 134.633 493.602V494H127.789ZM122.188 489.289C123.188 489.289 124.109 489.07 124.953 488.633C125.797 488.18 126.422 487.578 126.828 486.828V482.469H124.297C120.906 482.469 119.102 483.641 118.883 485.984L118.859 486.383C118.859 487.227 119.156 487.922 119.75 488.469C120.344 489.016 121.156 489.289 122.188 489.289ZM161.68 481.555C161.68 485.617 160.812 488.789 159.078 491.07C157.344 493.336 154.922 494.469 151.812 494.469C149.062 494.469 146.867 493.414 145.227 491.305L144.922 494H138.828V458H145.602V470.914C147.164 469.086 149.219 468.172 151.766 468.172C154.859 468.172 157.281 469.312 159.031 471.594C160.797 473.859 161.68 477.055 161.68 481.18V481.555ZM154.906 481.062C154.906 478.5 154.5 476.633 153.688 475.461C152.875 474.273 151.664 473.68 150.055 473.68C147.898 473.68 146.414 474.562 145.602 476.328V486.336C146.43 488.117 147.93 489.008 150.102 489.008C152.289 489.008 153.727 487.93 154.414 485.773C154.742 484.742 154.906 483.172 154.906 481.062ZM180.57 494C180.258 493.391 180.031 492.633 179.891 491.727C178.25 493.555 176.117 494.469 173.492 494.469C171.008 494.469 168.945 493.75 167.305 492.312C165.68 490.875 164.867 489.062 164.867 486.875C164.867 484.188 165.859 482.125 167.844 480.688C169.844 479.25 172.727 478.523 176.492 478.508H179.609V477.055C179.609 475.883 179.305 474.945 178.695 474.242C178.102 473.539 177.156 473.188 175.859 473.188C174.719 473.188 173.82 473.461 173.164 474.008C172.523 474.555 172.203 475.305 172.203 476.258H165.43C165.43 474.789 165.883 473.43 166.789 472.18C167.695 470.93 168.977 469.953 170.633 469.25C172.289 468.531 174.148 468.172 176.211 468.172C179.336 468.172 181.812 468.961 183.641 470.539C185.484 472.102 186.406 474.305 186.406 477.148V488.141C186.422 490.547 186.758 492.367 187.414 493.602V494H180.57ZM174.969 489.289C175.969 489.289 176.891 489.07 177.734 488.633C178.578 488.18 179.203 487.578 179.609 486.828V482.469H177.078C173.688 482.469 171.883 483.641 171.664 485.984L171.641 486.383C171.641 487.227 171.938 487.922 172.531 488.469C173.125 489.016 173.938 489.289 174.969 489.289ZM205.344 486.992C205.344 486.164 204.93 485.516 204.102 485.047C203.289 484.562 201.977 484.133 200.164 483.758C194.133 482.492 191.117 479.93 191.117 476.07C191.117 473.82 192.047 471.945 193.906 470.445C195.781 468.93 198.227 468.172 201.242 468.172C204.461 468.172 207.031 468.93 208.953 470.445C210.891 471.961 211.859 473.93 211.859 476.352H205.086C205.086 475.383 204.773 474.586 204.148 473.961C203.523 473.32 202.547 473 201.219 473C200.078 473 199.195 473.258 198.57 473.773C197.945 474.289 197.633 474.945 197.633 475.742C197.633 476.492 197.984 477.102 198.688 477.57C199.406 478.023 200.609 478.422 202.297 478.766C203.984 479.094 205.406 479.469 206.562 479.891C210.141 481.203 211.93 483.477 211.93 486.711C211.93 489.023 210.938 490.898 208.953 492.336C206.969 493.758 204.406 494.469 201.266 494.469C199.141 494.469 197.25 494.094 195.594 493.344C193.953 492.578 192.664 491.539 191.727 490.227C190.789 488.898 190.32 487.469 190.32 485.938H196.742C196.805 487.141 197.25 488.062 198.078 488.703C198.906 489.344 200.016 489.664 201.406 489.664C202.703 489.664 203.68 489.422 204.336 488.938C205.008 488.438 205.344 487.789 205.344 486.992ZM227.984 494.469C224.266 494.469 221.234 493.328 218.891 491.047C216.562 488.766 215.398 485.727 215.398 481.93V481.273C215.398 478.727 215.891 476.453 216.875 474.453C217.859 472.438 219.25 470.891 221.047 469.812C222.859 468.719 224.922 468.172 227.234 468.172C230.703 468.172 233.43 469.266 235.414 471.453C237.414 473.641 238.414 476.742 238.414 480.758V483.523H222.266C222.484 485.18 223.141 486.508 224.234 487.508C225.344 488.508 226.742 489.008 228.43 489.008C231.039 489.008 233.078 488.062 234.547 486.172L237.875 489.898C236.859 491.336 235.484 492.461 233.75 493.273C232.016 494.07 230.094 494.469 227.984 494.469ZM227.211 473.656C225.867 473.656 224.773 474.109 223.93 475.016C223.102 475.922 222.57 477.219 222.336 478.906H231.758V478.367C231.727 476.867 231.32 475.711 230.539 474.898C229.758 474.07 228.648 473.656 227.211 473.656Z" fill="white"/>
</g>
<defs>
<filter id="filter0_d_885:3" x="464" y="0" width="835" height="924" filterUnits="userSpaceOnUse" color-interpolation-filters="sRGB">
<feFlood flood-opacity="0" result="BackgroundImageFix"/>
<feColorMatrix in="SourceAlpha" type="matrix" values="0 0 0 0 0 0 0 0 0 0 0 0 0 0 0 0 0 0 127 0" result="hardAlpha"/>
<feOffset dx="20" dy="20"/>
<feGaussianBlur stdDeviation="2"/>
<feComposite in2="hardAlpha" operator="out"/>
<feColorMatrix type="matrix" values="0 0 0 0 0 0 0 0 0 0 0 0 0 0 0 0 0 0 0.25 0"/>
<feBlend mode="normal" in2="BackgroundImageFix" result="effect1_dropShadow_885:3"/>
<feBlend mode="normal" in="SourceGraphic" in2="effect1_dropShadow_885:3" result="shape"/>
</filter>
<filter id="filter1_d_885:3" x="1478" y="361" width="374" height="374" filterUnits="userSpaceOnUse" color-interpolation-filters="sRGB">
<feFlood flood-opacity="0" result="BackgroundImageFix"/>
<feColorMatrix in="SourceAlpha" type="matrix" values="0 0 0 0 0 0 0 0 0 0 0 0 0 0 0 0 0 0 127 0" result="hardAlpha"/>
<feOffset dx="20" dy="20"/>
<feGaussianBlur stdDeviation="2"/>
<feComposite in2="hardAlpha" operator="out"/>
<feColorMatrix type="matrix" values="0 0 0 0 0 0 0 0 0 0 0 0 0 0 0 0 0 0 0.25 0"/>
<feBlend mode="normal" in2="BackgroundImageFix" result="effect1_dropShadow_885:3"/>
<feBlend mode="normal" in="SourceGraphic" in2="effect1_dropShadow_885:3" result="shape"/>
</filter>
<filter id="filter2_d_885:3" x="1513" y="395" width="304" height="305" filterUnits="userSpaceOnUse" color-interpolation-filters="sRGB">
<feFlood flood-opacity="0" result="BackgroundImageFix"/>
<feColorMatrix in="SourceAlpha" type="matrix" values="0 0 0 0 0 0 0 0 0 0 0 0 0 0 0 0 0 0 127 0" result="hardAlpha"/>
<feOffset dx="20" dy="20"/>
<feGaussianBlur stdDeviation="2"/>
<feComposite in2="hardAlpha" operator="out"/>
<feColorMatrix type="matrix" values="0 0 0 0 0 0 0 0 0 0 0 0 0 0 0 0 0 0 0.25 0"/>
<feBlend mode="normal" in2="BackgroundImageFix" result="effect1_dropShadow_885:3"/>
<feBlend mode="normal" in="SourceGraphic" in2="effect1_dropShadow_885:3" result="shape"/>
</filter>
<filter id="filter3_d_885:3" x="533" y="43" width="574" height="399" filterUnits="userSpaceOnUse" color-interpolation-filters="sRGB">
<feFlood flood-opacity="0" result="BackgroundImageFix"/>
<feColorMatrix in="SourceAlpha" type="matrix" values="0 0 0 0 0 0 0 0 0 0 0 0 0 0 0 0 0 0 127 0" result="hardAlpha"/>
<feOffset dx="20" dy="20"/>
<feGaussianBlur stdDeviation="2"/>
<feComposite in2="hardAlpha" operator="out"/>
<feColorMatrix type="matrix" values="0 0 0 0 0 0 0 0 0 0 0 0 0 0 0 0 0 0 0.25 0"/>
<feBlend mode="normal" in2="BackgroundImageFix" result="effect1_dropShadow_885:3"/>
<feBlend mode="normal" in="SourceGraphic" in2="effect1_dropShadow_885:3" result="shape"/>
</filter>
<filter id="filter4_d_885:3" x="533" y="484" width="574" height="399" filterUnits="userSpaceOnUse" color-interpolation-filters="sRGB">
<feFlood flood-opacity="0" result="BackgroundImageFix"/>
<feColorMatrix in="SourceAlpha" type="matrix" values="0 0 0 0 0 0 0 0 0 0 0 0 0 0 0 0 0 0 127 0" result="hardAlpha"/>
<feOffset dx="20" dy="20"/>
<feGaussianBlur stdDeviation="2"/>
<feComposite in2="hardAlpha" operator="out"/>
<feColorMatrix type="matrix" values="0 0 0 0 0 0 0 0 0 0 0 0 0 0 0 0 0 0 0.25 0"/>
<feBlend mode="normal" in2="BackgroundImageFix" result="effect1_dropShadow_885:3"/>
<feBlend mode="normal" in="SourceGraphic" in2="effect1_dropShadow_885:3" result="shape"/>
</filter>
<filter id="filter5_d_885:3" x="8" y="151" width="284" height="624" filterUnits="userSpaceOnUse" color-interpolation-filters="sRGB">
<feFlood flood-opacity="0" result="BackgroundImageFix"/>
<feColorMatrix in="SourceAlpha" type="matrix" values="0 0 0 0 0 0 0 0 0 0 0 0 0 0 0 0 0 0 127 0" result="hardAlpha"/>
<feOffset dx="10" dy="10"/>
<feGaussianBlur stdDeviation="2"/>
<feComposite in2="hardAlpha" operator="out"/>
<feColorMatrix type="matrix" values="0 0 0 0 0 0 0 0 0 0 0 0 0 0 0 0 0 0 0.25 0"/>
<feBlend mode="normal" in2="BackgroundImageFix" result="effect1_dropShadow_885:3"/>
<feBlend mode="normal" in="SourceGraphic" in2="effect1_dropShadow_885:3" result="shape"/>
</filter>
<linearGradient id="paint0_linear_885:3" x1="869.5" y1="0" x2="869.5" y2="900" gradientUnits="userSpaceOnUse">
<stop offset="0.530617" stop-color="#DEDADA"/>
<stop offset="1" stop-color="#DEDADA" stop-opacity="0"/>
</linearGradient>
<linearGradient id="paint1_linear_885:3" x1="1653" y1="395" x2="1653" y2="676" gradientUnits="userSpaceOnUse">
<stop offset="0.315625" stop-color="#C4C4C4"/>
<stop offset="1" stop-color="#C4C4C4" stop-opacity="0"/>
</linearGradient>
<linearGradient id="paint2_linear_885:3" x1="808" y1="43" x2="808" y2="418" gradientUnits="userSpaceOnUse">
<stop offset="0.289583" stop-color="#989CA9"/>
<stop offset="1" stop-color="#B4B6BB" stop-opacity="0"/>
</linearGradient>
<linearGradient id="paint3_linear_885:3" x1="808" y1="484" x2="808" y2="859" gradientUnits="userSpaceOnUse">
<stop offset="0.305208" stop-color="#989CA9"/>
<stop offset="1" stop-color="#B4B6BB" stop-opacity="0"/>
</linearGradient>
<clipPath id="clip0_885:3">
<rect width="1815" height="920" fill="white"/>
</clipPath>
</defs>
</svg>
