<svg width="1920" height="1080" viewBox="0 0 1920 1080" fill="none" xmlns="http://www.w3.org/2000/svg">
<rect width="1920" height="1080" fill="white"/>
<rect x="525.5" y="150.5" width="1277" height="765" rx="28.5" fill="white" stroke="black" stroke-width="3"/>
<path d="M212.426 170.191H111.574C106.295 170.191 102 174.487 102 179.766V256.362C102 261.641 106.295 265.936 111.574 265.936H148.596V279.979H135.191C134.134 279.979 133.277 280.836 133.277 281.894C133.277 282.951 134.134 283.808 135.191 283.808H188.809C189.866 283.808 190.723 282.951 190.723 281.894C190.723 280.836 189.866 279.979 188.809 279.979H175.404V265.936H212.426C217.705 265.936 222 261.641 222 256.362V179.766C222 174.487 217.705 170.191 212.426 170.191ZM171.574 279.979H152.426V265.936H171.574V279.979ZM218.17 256.362C218.17 259.529 215.593 262.106 212.426 262.106H111.574C108.407 262.106 105.83 259.529 105.83 256.362V250.617H218.17V256.362ZM218.17 246.787H105.83V179.766C105.83 176.598 108.407 174.021 111.574 174.021H212.426C215.593 174.021 218.17 176.598 218.17 179.766V246.787Z" fill="black"/>
<path d="M212.426 177.851H111.575C110.517 177.851 109.66 178.708 109.66 179.766V241.043C109.66 242.1 110.517 242.957 111.575 242.957H194.553C195.611 242.957 196.468 242.1 196.468 241.043C196.468 239.985 195.611 239.128 194.553 239.128H113.489V181.681H210.511V239.128H202.213C201.155 239.128 200.298 239.985 200.298 241.043C200.298 242.1 201.155 242.957 202.213 242.957H212.426C213.483 242.957 214.34 242.1 214.34 241.043V179.766C214.34 178.708 213.483 177.851 212.426 177.851Z" fill="black"/>
<path d="M212.426 484.191H111.574C106.295 484.191 102 488.487 102 493.766V570.362C102 575.641 106.295 579.936 111.574 579.936H148.596V593.979H135.191C134.134 593.979 133.277 594.836 133.277 595.894C133.277 596.951 134.134 597.809 135.191 597.809H188.809C189.866 597.809 190.723 596.951 190.723 595.894C190.723 594.836 189.866 593.979 188.809 593.979H175.404V579.936H212.426C217.705 579.936 222 575.641 222 570.362V493.766C222 488.487 217.705 484.191 212.426 484.191ZM171.574 593.979H152.426V579.936H171.574V593.979ZM218.17 570.362C218.17 573.529 215.593 576.106 212.426 576.106H111.574C108.407 576.106 105.83 573.529 105.83 570.362V564.617H218.17V570.362ZM218.17 560.787H105.83V493.766C105.83 490.598 108.407 488.021 111.574 488.021H212.426C215.593 488.021 218.17 490.598 218.17 493.766V560.787Z" fill="black"/>
<path d="M212.426 491.851H111.575C110.517 491.851 109.66 492.708 109.66 493.766V555.043C109.66 556.1 110.517 556.957 111.575 556.957H194.553C195.611 556.957 196.468 556.1 196.468 555.043C196.468 553.985 195.611 553.128 194.553 553.128H113.489V495.681H210.511V553.128H202.213C201.155 553.128 200.298 553.985 200.298 555.043C200.298 556.1 201.155 556.957 202.213 556.957H212.426C213.483 556.957 214.34 556.1 214.34 555.043V493.766C214.34 492.708 213.483 491.851 212.426 491.851Z" fill="black"/>
<path d="M212.426 798.191H111.574C106.295 798.191 102 802.487 102 807.766V884.362C102 889.641 106.295 893.936 111.574 893.936H148.596V907.979H135.191C134.134 907.979 133.277 908.836 133.277 909.894C133.277 910.951 134.134 911.809 135.191 911.809H188.809C189.866 911.809 190.723 910.951 190.723 909.894C190.723 908.836 189.866 907.979 188.809 907.979H175.404V893.936H212.426C217.705 893.936 222 889.641 222 884.362V807.766C222 802.487 217.705 798.191 212.426 798.191ZM171.574 907.979H152.426V893.936H171.574V907.979ZM218.17 884.362C218.17 887.529 215.593 890.106 212.426 890.106H111.574C108.407 890.106 105.83 887.529 105.83 884.362V878.617H218.17V884.362ZM218.17 874.787H105.83V807.766C105.83 804.598 108.407 802.021 111.574 802.021H212.426C215.593 802.021 218.17 804.598 218.17 807.766V874.787Z" fill="black"/>
<path d="M212.426 805.851H111.575C110.517 805.851 109.66 806.708 109.66 807.766V869.043C109.66 870.1 110.517 870.957 111.575 870.957H194.553C195.611 870.957 196.468 870.1 196.468 869.043C196.468 867.985 195.611 867.128 194.553 867.128H113.489V809.681H210.511V867.128H202.213C201.155 867.128 200.298 867.985 200.298 869.043C200.298 870.1 201.155 870.957 202.213 870.957H212.426C213.483 870.957 214.34 870.1 214.34 869.043V807.766C214.34 806.708 213.483 805.851 212.426 805.851Z" fill="black"/>
<path d="M230.843 842.657L247.573 838.174L235.326 825.927L230.843 842.657ZM499.544 573.956L482.813 578.439L495.061 590.687L499.544 573.956ZM241.45 834.172L491.058 584.563L488.937 582.442L239.328 832.05L241.45 834.172Z" fill="black"/>
<path d="M234 532L249 540.66V523.34L234 532ZM504 532L489 523.34V540.66L504 532ZM247.5 533.5H490.5V530.5H247.5V533.5Z" fill="black"/>
<path d="M230.407 217.758L234.89 234.488L247.138 222.241L230.407 217.758ZM499.108 486.459L494.625 469.728L482.378 481.976L499.108 486.459ZM238.893 228.365L488.501 477.973L490.623 475.852L241.014 226.243L238.893 228.365Z" fill="black"/>
<line x1="601" y1="529.5" x2="1226" y2="529.5" stroke="#2157E2" stroke-width="5"/>
<rect x="1098.5" y="264.5" width="128" height="536" rx="17.5" fill="#4A72D9" stroke="#2253D1" stroke-width="5"/>
<path d="M1180 737.236H1144.45V726.299C1144.45 723.174 1145.16 720.382 1146.58 717.925C1147.98 715.451 1149.98 713.522 1152.58 712.139C1155.17 710.755 1158.12 710.063 1161.42 710.063H1163.06C1166.36 710.063 1169.3 710.747 1171.87 712.114C1174.44 713.465 1176.44 715.378 1177.85 717.852C1179.27 720.326 1179.98 723.117 1180 726.226V737.236ZM1150.39 729.912H1174.12V726.372C1174.12 723.507 1173.18 721.318 1171.31 719.805C1169.44 718.291 1166.76 717.518 1163.28 717.485H1161.4C1157.78 717.485 1155.05 718.234 1153.19 719.731C1151.32 721.229 1150.39 723.418 1150.39 726.299V729.912ZM1180 689.873C1179.37 690.199 1178.58 690.435 1177.63 690.581C1179.54 692.29 1180.49 694.512 1180.49 697.246C1180.49 699.834 1179.74 701.982 1178.24 703.691C1176.74 705.384 1174.86 706.23 1172.58 706.23C1169.78 706.23 1167.63 705.197 1166.13 703.13C1164.64 701.047 1163.88 698.044 1163.86 694.121V690.874H1162.35C1161.13 690.874 1160.15 691.191 1159.42 691.826C1158.69 692.445 1158.32 693.429 1158.32 694.78C1158.32 695.968 1158.61 696.904 1159.17 697.588C1159.74 698.255 1160.53 698.589 1161.52 698.589V705.645C1159.99 705.645 1158.57 705.173 1157.27 704.229C1155.97 703.285 1154.95 701.95 1154.22 700.225C1153.47 698.499 1153.1 696.562 1153.1 694.414C1153.1 691.159 1153.92 688.579 1155.56 686.675C1157.19 684.754 1159.48 683.794 1162.45 683.794H1173.9C1176.4 683.778 1178.3 683.428 1179.58 682.744H1180V689.873ZM1175.09 695.708C1175.09 694.666 1174.86 693.706 1174.41 692.827C1173.94 691.948 1173.31 691.297 1172.53 690.874H1167.99V693.511C1167.99 697.043 1169.21 698.923 1171.65 699.15L1172.07 699.175C1172.94 699.175 1173.67 698.866 1174.24 698.247C1174.81 697.629 1175.09 696.782 1175.09 695.708ZM1147.09 669.927H1153.58V665.41H1158.76V669.927H1171.94C1172.92 669.927 1173.62 669.74 1174.04 669.365C1174.47 668.991 1174.68 668.275 1174.68 667.217C1174.68 666.436 1174.62 665.744 1174.51 665.142H1179.85C1180.28 666.525 1180.49 667.949 1180.49 669.414C1180.49 674.362 1177.99 676.885 1172.99 676.982H1158.76V680.84H1153.58V676.982H1147.09V669.927ZM1180 646.172C1179.37 646.497 1178.58 646.733 1177.63 646.88C1179.54 648.589 1180.49 650.811 1180.49 653.545C1180.49 656.133 1179.74 658.281 1178.24 659.99C1176.74 661.683 1174.86 662.529 1172.58 662.529C1169.78 662.529 1167.63 661.496 1166.13 659.429C1164.64 657.345 1163.88 654.342 1163.86 650.42V647.173H1162.35C1161.13 647.173 1160.15 647.49 1159.42 648.125C1158.69 648.743 1158.32 649.728 1158.32 651.079C1158.32 652.267 1158.61 653.203 1159.17 653.887C1159.74 654.554 1160.53 654.888 1161.52 654.888V661.943C1159.99 661.943 1158.57 661.471 1157.27 660.527C1155.97 659.583 1154.95 658.249 1154.22 656.523C1153.47 654.798 1153.1 652.861 1153.1 650.713C1153.1 647.458 1153.92 644.878 1155.56 642.974C1157.19 641.053 1159.48 640.093 1162.45 640.093H1173.9C1176.4 640.076 1178.3 639.727 1179.58 639.043H1180V646.172ZM1175.09 652.007C1175.09 650.965 1174.86 650.005 1174.41 649.126C1173.94 648.247 1173.31 647.596 1172.53 647.173H1167.99V649.81C1167.99 653.341 1169.21 655.221 1171.65 655.449L1172.07 655.474C1172.94 655.474 1173.67 655.164 1174.24 654.546C1174.81 653.927 1175.09 653.081 1175.09 652.007ZM1172.68 601.689V614.531L1180 616.973V624.761L1144.45 611.528V604.741L1180 591.436V599.224L1172.68 601.689ZM1166.74 612.554V603.667L1153.44 608.135L1166.74 612.554ZM1174.8 577.593C1174.8 576.291 1174.44 575.233 1173.73 574.419C1173.01 573.605 1172.06 573.182 1170.87 573.149V566.533C1172.66 566.549 1174.3 567.038 1175.8 567.998C1177.28 568.958 1178.44 570.277 1179.27 571.953C1180.08 573.613 1180.49 575.452 1180.49 577.471C1180.49 581.247 1179.29 584.225 1176.9 586.406C1174.49 588.587 1171.17 589.678 1166.94 589.678H1166.47C1162.41 589.678 1159.16 588.595 1156.73 586.431C1154.31 584.266 1153.1 581.296 1153.1 577.52C1153.1 574.215 1154.04 571.571 1155.93 569.585C1157.8 567.583 1160.3 566.566 1163.42 566.533V573.149C1162.06 573.182 1160.95 573.605 1160.1 574.419C1159.24 575.233 1158.81 576.307 1158.81 577.642C1158.81 579.285 1159.41 580.531 1160.62 581.377C1161.8 582.207 1163.74 582.622 1166.43 582.622H1167.16C1169.88 582.622 1171.83 582.207 1173.02 581.377C1174.21 580.547 1174.8 579.285 1174.8 577.593ZM1174.8 551.519C1174.8 550.216 1174.44 549.159 1173.73 548.345C1173.01 547.531 1172.06 547.108 1170.87 547.075V540.459C1172.66 540.475 1174.3 540.964 1175.8 541.924C1177.28 542.884 1178.44 544.202 1179.27 545.879C1180.08 547.539 1180.49 549.378 1180.49 551.396C1180.49 555.173 1179.29 558.151 1176.9 560.332C1174.49 562.513 1171.17 563.604 1166.94 563.604H1166.47C1162.41 563.604 1159.16 562.521 1156.73 560.356C1154.31 558.192 1153.1 555.221 1153.1 551.445C1153.1 548.141 1154.04 545.496 1155.93 543.511C1157.8 541.509 1160.3 540.492 1163.42 540.459V547.075C1162.06 547.108 1160.95 547.531 1160.1 548.345C1159.24 549.159 1158.81 550.233 1158.81 551.567C1158.81 553.211 1159.41 554.456 1160.62 555.303C1161.8 556.133 1163.74 556.548 1166.43 556.548H1167.16C1169.88 556.548 1171.83 556.133 1173.02 555.303C1174.21 554.473 1174.8 553.211 1174.8 551.519ZM1180.49 524.272C1180.49 528.146 1179.3 531.304 1176.92 533.745C1174.55 536.17 1171.38 537.383 1167.43 537.383H1166.74C1164.09 537.383 1161.72 536.87 1159.64 535.845C1157.54 534.819 1155.93 533.371 1154.8 531.499C1153.67 529.611 1153.1 527.463 1153.1 525.054C1153.1 521.44 1154.24 518.6 1156.51 516.533C1158.79 514.45 1162.02 513.408 1166.21 513.408H1169.09V530.229C1170.81 530.002 1172.2 529.318 1173.24 528.179C1174.28 527.023 1174.8 525.566 1174.8 523.809C1174.8 521.09 1173.82 518.966 1171.85 517.437L1175.73 513.97C1177.22 515.028 1178.4 516.46 1179.24 518.267C1180.07 520.073 1180.49 522.075 1180.49 524.272ZM1158.81 525.078C1158.81 526.478 1159.28 527.617 1160.22 528.496C1161.17 529.359 1162.52 529.912 1164.28 530.156V520.342H1163.72C1162.15 520.374 1160.95 520.798 1160.1 521.611C1159.24 522.425 1158.81 523.581 1158.81 525.078ZM1172.7 495.073C1171.84 495.073 1171.16 495.505 1170.67 496.367C1170.17 497.214 1169.72 498.581 1169.33 500.469C1168.01 506.751 1165.34 509.893 1161.32 509.893C1158.98 509.893 1157.03 508.924 1155.46 506.987C1153.89 505.034 1153.1 502.487 1153.1 499.346C1153.1 495.993 1153.89 493.315 1155.46 491.313C1157.04 489.295 1159.09 488.286 1161.62 488.286V495.342C1160.61 495.342 1159.78 495.667 1159.13 496.318C1158.46 496.969 1158.12 497.987 1158.12 499.37C1158.12 500.558 1158.39 501.478 1158.93 502.129C1159.47 502.78 1160.15 503.105 1160.98 503.105C1161.76 503.105 1162.4 502.739 1162.89 502.007C1163.36 501.258 1163.77 500.005 1164.13 498.247C1164.47 496.489 1164.86 495.008 1165.3 493.804C1166.67 490.076 1169.04 488.213 1172.41 488.213C1174.82 488.213 1176.77 489.246 1178.27 491.313C1179.75 493.381 1180.49 496.05 1180.49 499.321C1180.49 501.535 1180.1 503.504 1179.32 505.229C1178.52 506.938 1177.44 508.281 1176.07 509.258C1174.69 510.234 1173.2 510.723 1171.6 510.723V504.033C1172.85 503.968 1173.82 503.504 1174.48 502.642C1175.15 501.779 1175.48 500.623 1175.48 499.175C1175.48 497.824 1175.23 496.807 1174.73 496.123C1174.21 495.423 1173.53 495.073 1172.7 495.073ZM1172.7 469.341C1171.84 469.341 1171.16 469.772 1170.67 470.635C1170.17 471.481 1169.72 472.848 1169.33 474.736C1168.01 481.019 1165.34 484.16 1161.32 484.16C1158.98 484.16 1157.03 483.192 1155.46 481.255C1153.89 479.302 1153.1 476.755 1153.1 473.613C1153.1 470.26 1153.89 467.583 1155.46 465.581C1157.04 463.563 1159.09 462.554 1161.62 462.554V469.609C1160.61 469.609 1159.78 469.935 1159.13 470.586C1158.46 471.237 1158.12 472.254 1158.12 473.638C1158.12 474.826 1158.39 475.745 1158.93 476.396C1159.47 477.048 1160.15 477.373 1160.98 477.373C1161.76 477.373 1162.4 477.007 1162.89 476.274C1163.36 475.526 1163.77 474.272 1164.13 472.515C1164.47 470.757 1164.86 469.276 1165.3 468.071C1166.67 464.344 1169.04 462.48 1172.41 462.48C1174.82 462.48 1176.77 463.514 1178.27 465.581C1179.75 467.648 1180.49 470.317 1180.49 473.589C1180.49 475.802 1180.1 477.772 1179.32 479.497C1178.52 481.206 1177.44 482.549 1176.07 483.525C1174.69 484.502 1173.2 484.99 1171.6 484.99V478.301C1172.85 478.236 1173.82 477.772 1174.48 476.909C1175.15 476.047 1175.48 474.891 1175.48 473.442C1175.48 472.091 1175.23 471.074 1174.73 470.391C1174.21 469.691 1173.53 469.341 1172.7 469.341ZM1174.12 437.676V422.124H1180V445H1144.45V437.676H1174.12ZM1180 403.057C1179.37 403.382 1178.58 403.618 1177.63 403.765C1179.54 405.474 1180.49 407.695 1180.49 410.43C1180.49 413.018 1179.74 415.166 1178.24 416.875C1176.74 418.568 1174.86 419.414 1172.58 419.414C1169.78 419.414 1167.63 418.381 1166.13 416.313C1164.64 414.23 1163.88 411.227 1163.86 407.305V404.058H1162.35C1161.13 404.058 1160.15 404.375 1159.42 405.01C1158.69 405.628 1158.32 406.613 1158.32 407.964C1158.32 409.152 1158.61 410.088 1159.17 410.771C1159.74 411.439 1160.53 411.772 1161.52 411.772V418.828C1159.99 418.828 1158.57 418.356 1157.27 417.412C1155.97 416.468 1154.95 415.133 1154.22 413.408C1153.47 411.683 1153.1 409.746 1153.1 407.598C1153.1 404.342 1153.92 401.763 1155.56 399.858C1157.19 397.938 1159.48 396.978 1162.45 396.978H1173.9C1176.4 396.961 1178.3 396.611 1179.58 395.928H1180V403.057ZM1175.09 408.892C1175.09 407.85 1174.86 406.89 1174.41 406.011C1173.94 405.132 1173.31 404.481 1172.53 404.058H1167.99V406.694C1167.99 410.226 1169.21 412.106 1171.65 412.334L1172.07 412.358C1172.94 412.358 1173.67 412.049 1174.24 411.431C1174.81 410.812 1175.09 409.966 1175.09 408.892ZM1170.01 382.085L1153.58 377.202V369.634L1184.1 380.254L1185.49 380.84C1188.94 382.419 1190.67 385.023 1190.67 388.652C1190.67 389.678 1190.51 390.719 1190.21 391.777H1184.86L1184.88 390.703C1184.88 389.368 1184.68 388.376 1184.27 387.725C1183.87 387.057 1183.19 386.536 1182.25 386.162L1180.07 385.332L1153.58 394.585V386.992L1170.01 382.085ZM1180.49 355.034C1180.49 358.908 1179.3 362.065 1176.92 364.507C1174.55 366.932 1171.38 368.145 1167.43 368.145H1166.74C1164.09 368.145 1161.72 367.632 1159.64 366.606C1157.54 365.581 1155.93 364.132 1154.8 362.261C1153.67 360.373 1153.1 358.224 1153.1 355.815C1153.1 352.202 1154.24 349.362 1156.51 347.295C1158.79 345.212 1162.02 344.17 1166.21 344.17H1169.09V360.991C1170.81 360.763 1172.2 360.08 1173.24 358.94C1174.28 357.785 1174.8 356.328 1174.8 354.57C1174.8 351.852 1173.82 349.728 1171.85 348.198L1175.73 344.731C1177.22 345.789 1178.4 347.222 1179.24 349.028C1180.07 350.835 1180.49 352.837 1180.49 355.034ZM1158.81 355.84C1158.81 357.24 1159.28 358.379 1160.22 359.258C1161.17 360.12 1162.52 360.674 1164.28 360.918V351.104H1163.72C1162.15 351.136 1160.95 351.559 1160.1 352.373C1159.24 353.187 1158.81 354.342 1158.81 355.84ZM1160.2 325.298C1160.07 326.258 1160 327.104 1160 327.837C1160 330.506 1160.91 332.256 1162.71 333.086H1180V340.142H1153.58V333.477L1156.73 333.281C1154.31 331.865 1153.1 329.904 1153.1 327.397C1153.1 326.616 1153.2 325.884 1153.41 325.2L1160.2 325.298Z" fill="white"/>
<rect x="931.5" y="264.5" width="128" height="536" rx="17.5" fill="#4A72D9" stroke="#2253D1" stroke-width="5"/>
<path d="M1013 699.932H977.453V687.48C977.453 683.167 978.283 679.896 979.943 677.666C981.587 675.436 984.004 674.321 987.194 674.321C988.936 674.321 990.474 674.769 991.809 675.664C993.127 676.559 994.095 677.804 994.714 679.399C995.17 677.576 996.089 676.144 997.473 675.103C998.856 674.045 1000.55 673.516 1002.55 673.516C1005.97 673.516 1008.56 674.606 1010.31 676.787C1012.07 678.968 1012.97 682.077 1013 686.113V699.932ZM997.521 692.607H1007.12V686.333C1007.12 684.608 1006.71 683.265 1005.9 682.305C1005.07 681.328 1003.93 680.84 1002.48 680.84C999.222 680.84 997.57 682.524 997.521 685.894V692.607ZM992.346 692.607V687.188C992.281 683.493 990.808 681.646 987.927 681.646C986.315 681.646 985.16 682.118 984.46 683.062C983.744 683.989 983.386 685.462 983.386 687.48V692.607H992.346ZM1010.31 652.642C1012.43 654.383 1013.49 656.792 1013.49 659.868C1013.49 662.7 1012.67 664.865 1011.05 666.362C1009.42 667.843 1007.03 668.6 1003.89 668.633H986.584V661.577H1003.65C1006.4 661.577 1007.78 660.324 1007.78 657.817C1007.78 655.425 1006.95 653.781 1005.29 652.886H986.584V645.806H1013V652.446L1010.31 652.642ZM1005.7 626.177C1004.84 626.177 1004.16 626.608 1003.67 627.471C1003.17 628.317 1002.72 629.684 1002.33 631.572C1001.01 637.855 998.343 640.996 994.323 640.996C991.979 640.996 990.026 640.028 988.464 638.091C986.885 636.138 986.096 633.59 986.096 630.449C986.096 627.096 986.885 624.419 988.464 622.417C990.043 620.399 992.093 619.39 994.616 619.39V626.445C993.607 626.445 992.777 626.771 992.126 627.422C991.459 628.073 991.125 629.09 991.125 630.474C991.125 631.662 991.394 632.581 991.931 633.232C992.468 633.883 993.151 634.209 993.981 634.209C994.763 634.209 995.397 633.843 995.886 633.11C996.358 632.362 996.773 631.108 997.131 629.351C997.473 627.593 997.863 626.112 998.303 624.907C999.67 621.18 1002.04 619.316 1005.41 619.316C1007.82 619.316 1009.77 620.35 1011.27 622.417C1012.75 624.484 1013.49 627.153 1013.49 630.425C1013.49 632.638 1013.1 634.608 1012.32 636.333C1011.52 638.042 1010.44 639.385 1009.07 640.361C1007.69 641.338 1006.2 641.826 1004.6 641.826V635.137C1005.85 635.072 1006.82 634.608 1007.48 633.745C1008.15 632.882 1008.48 631.727 1008.48 630.278C1008.48 628.927 1008.23 627.91 1007.73 627.227C1007.21 626.527 1006.53 626.177 1005.7 626.177ZM1013 607.305V614.385H986.584V607.305H1013ZM979.748 614.8C978.69 614.8 977.819 614.45 977.136 613.75C976.452 613.034 976.11 612.065 976.11 610.845C976.11 609.64 976.452 608.68 977.136 607.964C977.819 607.248 978.69 606.89 979.748 606.89C980.822 606.89 981.701 607.256 982.385 607.988C983.068 608.704 983.41 609.657 983.41 610.845C983.41 612.033 983.068 612.993 982.385 613.726C981.701 614.442 980.822 614.8 979.748 614.8ZM986.584 594.976L989.636 594.756C987.276 592.868 986.096 590.337 986.096 587.163C986.096 584.364 986.918 582.28 988.562 580.913C990.205 579.546 992.663 578.846 995.935 578.813H1013V585.869H996.105C994.608 585.869 993.526 586.195 992.858 586.846C992.175 587.497 991.833 588.579 991.833 590.093C991.833 592.078 992.679 593.568 994.372 594.561H1013V601.616H986.584V594.976ZM1013.49 561.284C1013.49 565.158 1012.3 568.315 1009.92 570.757C1007.55 573.182 1004.38 574.395 1000.43 574.395H999.743C997.09 574.395 994.722 573.882 992.639 572.856C990.539 571.831 988.928 570.382 987.805 568.511C986.665 566.623 986.096 564.474 986.096 562.065C986.096 558.452 987.235 555.612 989.514 553.545C991.792 551.462 995.023 550.42 999.206 550.42H1002.09V567.241C1003.81 567.013 1005.2 566.33 1006.24 565.19C1007.28 564.035 1007.8 562.578 1007.8 560.82C1007.8 558.102 1006.82 555.978 1004.85 554.448L1008.73 550.981C1010.22 552.039 1011.4 553.472 1012.24 555.278C1013.07 557.085 1013.49 559.087 1013.49 561.284ZM991.809 562.09C991.809 563.49 992.281 564.629 993.225 565.508C994.169 566.37 995.52 566.924 997.277 567.168V557.354H996.716C995.153 557.386 993.949 557.809 993.103 558.623C992.24 559.437 991.809 560.592 991.809 562.09ZM1005.7 532.085C1004.84 532.085 1004.16 532.516 1003.67 533.379C1003.17 534.225 1002.72 535.592 1002.33 537.48C1001.01 543.763 998.343 546.904 994.323 546.904C991.979 546.904 990.026 545.936 988.464 543.999C986.885 542.046 986.096 539.499 986.096 536.357C986.096 533.005 986.885 530.327 988.464 528.325C990.043 526.307 992.093 525.298 994.616 525.298V532.354C993.607 532.354 992.777 532.679 992.126 533.33C991.459 533.981 991.125 534.998 991.125 536.382C991.125 537.57 991.394 538.49 991.931 539.141C992.468 539.792 993.151 540.117 993.981 540.117C994.763 540.117 995.397 539.751 995.886 539.019C996.358 538.27 996.773 537.017 997.131 535.259C997.473 533.501 997.863 532.02 998.303 530.815C999.67 527.088 1002.04 525.225 1005.41 525.225C1007.82 525.225 1009.77 526.258 1011.27 528.325C1012.75 530.392 1013.49 533.062 1013.49 536.333C1013.49 538.547 1013.1 540.516 1012.32 542.241C1011.52 543.95 1010.44 545.293 1009.07 546.27C1007.69 547.246 1006.2 547.734 1004.6 547.734V541.045C1005.85 540.98 1006.82 540.516 1007.48 539.653C1008.15 538.791 1008.48 537.635 1008.48 536.187C1008.48 534.836 1008.23 533.818 1007.73 533.135C1007.21 532.435 1006.53 532.085 1005.7 532.085ZM1005.7 506.353C1004.84 506.353 1004.16 506.784 1003.67 507.646C1003.17 508.493 1002.72 509.86 1002.33 511.748C1001.01 518.031 998.343 521.172 994.323 521.172C991.979 521.172 990.026 520.203 988.464 518.267C986.885 516.313 986.096 513.766 986.096 510.625C986.096 507.272 986.885 504.595 988.464 502.593C990.043 500.575 992.093 499.565 994.616 499.565V506.621C993.607 506.621 992.777 506.947 992.126 507.598C991.459 508.249 991.125 509.266 991.125 510.649C991.125 511.838 991.394 512.757 991.931 513.408C992.468 514.059 993.151 514.385 993.981 514.385C994.763 514.385 995.397 514.019 995.886 513.286C996.358 512.537 996.773 511.284 997.131 509.526C997.473 507.769 997.863 506.287 998.303 505.083C999.67 501.356 1002.04 499.492 1005.41 499.492C1007.82 499.492 1009.77 500.526 1011.27 502.593C1012.75 504.66 1013.49 507.329 1013.49 510.601C1013.49 512.814 1013.1 514.784 1012.32 516.509C1011.52 518.218 1010.44 519.561 1009.07 520.537C1007.69 521.514 1006.2 522.002 1004.6 522.002V515.312C1005.85 515.247 1006.82 514.784 1007.48 513.921C1008.15 513.058 1008.48 511.903 1008.48 510.454C1008.48 509.103 1008.23 508.086 1007.73 507.402C1007.21 506.702 1006.53 506.353 1005.7 506.353ZM1007.12 474.688V459.136H1013V482.012H977.453V474.688H1007.12ZM999.548 456.475C996.927 456.475 994.592 455.97 992.541 454.961C990.49 453.952 988.903 452.503 987.78 450.615C986.657 448.711 986.096 446.506 986.096 443.999C986.096 440.435 987.186 437.529 989.367 435.283C991.548 433.021 994.51 431.759 998.254 431.499L1000.06 431.45C1004.11 431.45 1007.37 432.581 1009.83 434.844C1012.27 437.106 1013.49 440.142 1013.49 443.95C1013.49 447.759 1012.27 450.802 1009.83 453.081C1007.38 455.343 1004.06 456.475 999.865 456.475H999.548ZM1000.06 449.419C1002.57 449.419 1004.49 448.947 1005.82 448.003C1007.14 447.059 1007.8 445.708 1007.8 443.95C1007.8 442.241 1007.15 440.907 1005.85 439.946C1004.53 438.986 1002.43 438.506 999.548 438.506C997.09 438.506 995.186 438.986 993.835 439.946C992.484 440.907 991.809 442.257 991.809 443.999C991.809 445.724 992.484 447.059 993.835 448.003C995.17 448.947 997.245 449.419 1000.06 449.419ZM999.597 428.13C995.544 428.13 992.281 427.17 989.807 425.249C987.333 423.312 986.096 420.708 986.096 417.437C986.096 414.539 987.089 412.285 989.074 410.674L986.584 410.381V403.984H1012.12C1014.43 403.984 1016.44 404.513 1018.15 405.571C1019.86 406.613 1021.16 408.086 1022.06 409.99C1022.95 411.895 1023.4 414.124 1023.4 416.68C1023.4 418.617 1023.01 420.505 1022.23 422.344C1021.46 424.183 1020.47 425.575 1019.25 426.519L1014.95 423.394C1016.92 421.636 1017.91 419.504 1017.91 416.997C1017.91 415.125 1017.4 413.669 1016.39 412.627C1015.4 411.585 1013.98 411.064 1012.15 411.064H1010.73C1012.57 412.692 1013.49 414.832 1013.49 417.485C1013.49 420.659 1012.25 423.231 1009.78 425.2C1007.29 427.153 1003.99 428.13 999.89 428.13H999.597ZM1000.11 421.074C1002.5 421.074 1004.38 420.594 1005.75 419.634C1007.1 418.674 1007.78 417.355 1007.78 415.679C1007.78 413.53 1006.97 411.992 1005.36 411.064H994.25C992.639 412.008 991.833 413.53 991.833 415.63C991.833 417.323 992.525 418.657 993.908 419.634C995.292 420.594 997.359 421.074 1000.11 421.074ZM1013 391.094V398.174H986.584V391.094H1013ZM979.748 398.589C978.69 398.589 977.819 398.239 977.136 397.539C976.452 396.823 976.11 395.854 976.11 394.634C976.11 393.429 976.452 392.469 977.136 391.753C977.819 391.037 978.69 390.679 979.748 390.679C980.822 390.679 981.701 391.045 982.385 391.777C983.068 392.493 983.41 393.446 983.41 394.634C983.41 395.822 983.068 396.782 982.385 397.515C981.701 398.231 980.822 398.589 979.748 398.589ZM1007.8 374.272C1007.8 372.97 1007.44 371.912 1006.73 371.099C1006.01 370.285 1005.06 369.862 1003.87 369.829V363.213C1005.66 363.229 1007.3 363.717 1008.8 364.678C1010.28 365.638 1011.44 366.956 1012.27 368.633C1013.08 370.293 1013.49 372.132 1013.49 374.15C1013.49 377.926 1012.29 380.905 1009.9 383.086C1007.49 385.267 1004.17 386.357 999.938 386.357H999.475C995.406 386.357 992.159 385.275 989.733 383.11C987.308 380.946 986.096 377.975 986.096 374.199C986.096 370.895 987.04 368.25 988.928 366.265C990.799 364.263 993.298 363.245 996.423 363.213V369.829C995.056 369.862 993.949 370.285 993.103 371.099C992.24 371.912 991.809 372.987 991.809 374.321C991.809 375.965 992.411 377.21 993.615 378.057C994.803 378.887 996.74 379.302 999.426 379.302H1000.16C1002.88 379.302 1004.83 378.887 1006.02 378.057C1007.21 377.227 1007.8 375.965 1007.8 374.272Z" fill="white"/>
<rect x="767.5" y="264.5" width="128" height="536" rx="17.5" fill="#4A72D9" stroke="#2253D1" stroke-width="5"/>
<path d="M841.676 704.497V717.339L849 719.78V727.568L813.453 714.336V707.549L849 694.243V702.031L841.676 704.497ZM835.743 715.361V706.475L822.438 710.942L835.743 715.361ZM836.036 668.779C840.105 668.779 843.368 669.707 845.826 671.562C848.268 673.402 849.488 675.892 849.488 679.033C849.488 681.702 848.561 683.859 846.705 685.503H859.156V692.559H822.584V686.016L825.172 685.771C823.121 684.062 822.096 681.833 822.096 679.082C822.096 675.827 823.3 673.296 825.709 671.489C828.118 669.683 831.438 668.779 835.67 668.779H836.036ZM835.523 675.835C833.066 675.835 831.17 676.274 829.835 677.153C828.5 678.016 827.833 679.277 827.833 680.938C827.833 683.151 828.679 684.673 830.372 685.503H841.188C842.929 684.64 843.8 683.102 843.8 680.889C843.8 677.52 841.041 675.835 835.523 675.835ZM836.036 640.605C840.105 640.605 843.368 641.533 845.826 643.389C848.268 645.228 849.488 647.718 849.488 650.859C849.488 653.529 848.561 655.685 846.705 657.329H859.156V664.385H822.584V657.842L825.172 657.598C823.121 655.889 822.096 653.659 822.096 650.908C822.096 647.653 823.3 645.122 825.709 643.315C828.118 641.509 831.438 640.605 835.67 640.605H836.036ZM835.523 647.661C833.066 647.661 831.17 648.101 829.835 648.979C828.5 649.842 827.833 651.104 827.833 652.764C827.833 654.977 828.679 656.499 830.372 657.329H841.188C842.929 656.466 843.8 654.928 843.8 652.715C843.8 649.346 841.041 647.661 835.523 647.661ZM849 628.765V635.845H811.5V628.765H849ZM849 615.483V622.563H822.584V615.483H849ZM815.748 622.979C814.69 622.979 813.819 622.629 813.136 621.929C812.452 621.213 812.11 620.244 812.11 619.023C812.11 617.819 812.452 616.859 813.136 616.143C813.819 615.426 814.69 615.068 815.748 615.068C816.822 615.068 817.701 615.435 818.385 616.167C819.068 616.883 819.41 617.835 819.41 619.023C819.41 620.212 819.068 621.172 818.385 621.904C817.701 622.62 816.822 622.979 815.748 622.979ZM843.8 598.662C843.8 597.36 843.442 596.302 842.726 595.488C842.009 594.674 841.057 594.251 839.869 594.219V587.603C841.66 587.619 843.303 588.107 844.801 589.067C846.282 590.028 847.438 591.346 848.268 593.022C849.081 594.683 849.488 596.522 849.488 598.54C849.488 602.316 848.292 605.295 845.899 607.476C843.491 609.657 840.17 610.747 835.938 610.747H835.475C831.406 610.747 828.159 609.665 825.733 607.5C823.308 605.335 822.096 602.365 822.096 598.589C822.096 595.285 823.04 592.64 824.928 590.654C826.799 588.652 829.298 587.635 832.423 587.603V594.219C831.056 594.251 829.949 594.674 829.103 595.488C828.24 596.302 827.809 597.376 827.809 598.711C827.809 600.355 828.411 601.6 829.615 602.446C830.803 603.276 832.74 603.691 835.426 603.691H836.158C838.876 603.691 840.829 603.276 842.018 602.446C843.206 601.616 843.8 600.355 843.8 598.662ZM849 568.267C848.365 568.592 847.576 568.828 846.632 568.975C848.536 570.684 849.488 572.905 849.488 575.64C849.488 578.228 848.74 580.376 847.242 582.085C845.745 583.778 843.857 584.624 841.578 584.624C838.779 584.624 836.63 583.59 835.133 581.523C833.635 579.44 832.879 576.437 832.862 572.515V569.268H831.349C830.128 569.268 829.151 569.585 828.419 570.22C827.687 570.838 827.32 571.823 827.32 573.174C827.32 574.362 827.605 575.298 828.175 575.981C828.744 576.649 829.526 576.982 830.519 576.982V584.038C828.989 584.038 827.573 583.566 826.271 582.622C824.968 581.678 823.951 580.343 823.219 578.618C822.47 576.893 822.096 574.956 822.096 572.808C822.096 569.552 822.918 566.973 824.562 565.068C826.189 563.148 828.484 562.188 831.446 562.188H842.896C845.403 562.171 847.299 561.821 848.585 561.138H849V568.267ZM844.093 574.102C844.093 573.06 843.865 572.1 843.409 571.221C842.937 570.342 842.311 569.691 841.529 569.268H836.988V571.904C836.988 575.436 838.209 577.316 840.65 577.544L841.065 577.568C841.944 577.568 842.669 577.259 843.238 576.641C843.808 576.022 844.093 575.176 844.093 574.102ZM816.09 548.32H822.584V543.804H827.76V548.32H840.943C841.92 548.32 842.62 548.133 843.043 547.759C843.466 547.384 843.678 546.668 843.678 545.61C843.678 544.829 843.621 544.137 843.507 543.535H848.854C849.277 544.919 849.488 546.343 849.488 547.808C849.488 552.756 846.99 555.278 841.993 555.376H827.76V559.233H822.584V555.376H816.09V548.32ZM849 532.427V539.507H822.584V532.427H849ZM815.748 539.922C814.69 539.922 813.819 539.572 813.136 538.872C812.452 538.156 812.11 537.188 812.11 535.967C812.11 534.762 812.452 533.802 813.136 533.086C813.819 532.37 814.69 532.012 815.748 532.012C816.822 532.012 817.701 532.378 818.385 533.11C819.068 533.826 819.41 534.779 819.41 535.967C819.41 537.155 819.068 538.115 818.385 538.848C817.701 539.564 816.822 539.922 815.748 539.922ZM835.548 527.69C832.927 527.69 830.592 527.186 828.541 526.177C826.49 525.168 824.903 523.719 823.78 521.831C822.657 519.927 822.096 517.721 822.096 515.215C822.096 511.65 823.186 508.745 825.367 506.499C827.548 504.237 830.51 502.975 834.254 502.715L836.061 502.666C840.113 502.666 843.368 503.797 845.826 506.06C848.268 508.322 849.488 511.357 849.488 515.166C849.488 518.975 848.268 522.018 845.826 524.297C843.385 526.559 840.064 527.69 835.865 527.69H835.548ZM836.061 520.635C838.567 520.635 840.488 520.163 841.822 519.219C843.141 518.275 843.8 516.924 843.8 515.166C843.8 513.457 843.149 512.122 841.847 511.162C840.528 510.202 838.429 509.722 835.548 509.722C833.09 509.722 831.186 510.202 829.835 511.162C828.484 512.122 827.809 513.473 827.809 515.215C827.809 516.94 828.484 518.275 829.835 519.219C831.17 520.163 833.245 520.635 836.061 520.635ZM822.584 491.826L825.636 491.606C823.276 489.718 822.096 487.188 822.096 484.014C822.096 481.214 822.918 479.131 824.562 477.764C826.205 476.396 828.663 475.697 831.935 475.664H849V482.72H832.105C830.608 482.72 829.526 483.045 828.858 483.696C828.175 484.347 827.833 485.43 827.833 486.943C827.833 488.929 828.679 490.418 830.372 491.411H849V498.467H822.584V491.826ZM843.116 450.054V434.502H849V457.378H813.453V450.054H843.116ZM835.548 431.841C832.927 431.841 830.592 431.336 828.541 430.327C826.49 429.318 824.903 427.869 823.78 425.981C822.657 424.077 822.096 421.872 822.096 419.365C822.096 415.801 823.186 412.896 825.367 410.649C827.548 408.387 830.51 407.126 834.254 406.865L836.061 406.816C840.113 406.816 843.368 407.948 845.826 410.21C848.268 412.472 849.488 415.508 849.488 419.316C849.488 423.125 848.268 426.169 845.826 428.447C843.385 430.71 840.064 431.841 835.865 431.841H835.548ZM836.061 424.785C838.567 424.785 840.488 424.313 841.822 423.369C843.141 422.425 843.8 421.074 843.8 419.316C843.8 417.607 843.149 416.273 841.847 415.312C840.528 414.352 838.429 413.872 835.548 413.872C833.09 413.872 831.186 414.352 829.835 415.312C828.484 416.273 827.809 417.624 827.809 419.365C827.809 421.09 828.484 422.425 829.835 423.369C831.17 424.313 833.245 424.785 836.061 424.785ZM835.597 403.496C831.544 403.496 828.281 402.536 825.807 400.615C823.333 398.678 822.096 396.074 822.096 392.803C822.096 389.906 823.089 387.651 825.074 386.04L822.584 385.747V379.351H848.121C850.432 379.351 852.442 379.88 854.151 380.938C855.86 381.979 857.162 383.452 858.058 385.356C858.953 387.261 859.4 389.491 859.4 392.046C859.4 393.983 859.01 395.871 858.229 397.71C857.464 399.549 856.471 400.941 855.25 401.885L850.953 398.76C852.923 397.002 853.907 394.87 853.907 392.363C853.907 390.492 853.403 389.035 852.394 387.993C851.401 386.951 849.985 386.431 848.146 386.431H846.729C848.569 388.058 849.488 390.199 849.488 392.852C849.488 396.025 848.251 398.597 845.777 400.566C843.287 402.52 839.991 403.496 835.89 403.496H835.597ZM836.109 396.44C838.502 396.44 840.382 395.96 841.749 395C843.1 394.04 843.775 392.721 843.775 391.045C843.775 388.896 842.97 387.358 841.358 386.431H830.25C828.639 387.375 827.833 388.896 827.833 390.996C827.833 392.689 828.525 394.023 829.908 395C831.292 395.96 833.359 396.44 836.109 396.44ZM849 366.46V373.54H822.584V366.46H849ZM815.748 373.955C814.69 373.955 813.819 373.605 813.136 372.905C812.452 372.189 812.11 371.221 812.11 370C812.11 368.796 812.452 367.835 813.136 367.119C813.819 366.403 814.69 366.045 815.748 366.045C816.822 366.045 817.701 366.411 818.385 367.144C819.068 367.86 819.41 368.812 819.41 370C819.41 371.188 819.068 372.148 818.385 372.881C817.701 373.597 816.822 373.955 815.748 373.955ZM843.8 349.639C843.8 348.337 843.442 347.279 842.726 346.465C842.009 345.651 841.057 345.228 839.869 345.195V338.579C841.66 338.595 843.303 339.084 844.801 340.044C846.282 341.004 847.438 342.323 848.268 343.999C849.081 345.659 849.488 347.498 849.488 349.517C849.488 353.293 848.292 356.271 845.899 358.452C843.491 360.633 840.17 361.724 835.938 361.724H835.475C831.406 361.724 828.159 360.641 825.733 358.477C823.308 356.312 822.096 353.341 822.096 349.565C822.096 346.261 823.04 343.617 824.928 341.631C826.799 339.629 829.298 338.612 832.423 338.579V345.195C831.056 345.228 829.949 345.651 829.103 346.465C828.24 347.279 827.809 348.353 827.809 349.688C827.809 351.331 828.411 352.576 829.615 353.423C830.803 354.253 832.74 354.668 835.426 354.668H836.158C838.876 354.668 840.829 354.253 842.018 353.423C843.206 352.593 843.8 351.331 843.8 349.639Z" fill="white"/>
<rect x="603.5" y="264.5" width="128" height="536" rx="17.5" fill="#4A72D9" stroke="#2253D1" stroke-width="5"/>
<path d="M672.476 734.062H685V741.387H649.453V727.52C649.453 724.85 649.941 722.507 650.918 720.488C651.895 718.454 653.286 716.891 655.093 715.801C656.883 714.71 658.926 714.165 661.221 714.165C664.704 714.165 667.454 715.361 669.473 717.754C671.475 720.13 672.476 723.426 672.476 727.642V734.062ZM666.543 734.062V727.52C666.543 725.583 666.087 724.11 665.176 723.101C664.264 722.075 662.962 721.562 661.27 721.562C659.528 721.562 658.12 722.075 657.046 723.101C655.972 724.126 655.418 725.542 655.386 727.349V734.062H666.543ZM665.2 694.731C665.07 695.692 665.005 696.538 665.005 697.271C665.005 699.94 665.908 701.689 667.715 702.52H685V709.575H658.584V702.91L661.733 702.715C659.308 701.299 658.096 699.338 658.096 696.831C658.096 696.05 658.201 695.317 658.413 694.634L665.2 694.731ZM685.488 679.644C685.488 683.517 684.3 686.675 681.924 689.116C679.548 691.541 676.382 692.754 672.427 692.754H671.743C669.09 692.754 666.722 692.241 664.639 691.216C662.539 690.19 660.928 688.742 659.805 686.87C658.665 684.982 658.096 682.834 658.096 680.425C658.096 676.812 659.235 673.971 661.514 671.904C663.792 669.821 667.023 668.779 671.206 668.779H674.087V685.601C675.812 685.373 677.196 684.689 678.237 683.55C679.279 682.394 679.8 680.938 679.8 679.18C679.8 676.462 678.815 674.338 676.846 672.808L680.728 669.341C682.225 670.399 683.397 671.831 684.243 673.638C685.073 675.444 685.488 677.446 685.488 679.644ZM663.809 680.449C663.809 681.849 664.281 682.988 665.225 683.867C666.169 684.73 667.52 685.283 669.277 685.527V675.713H668.716C667.153 675.745 665.949 676.169 665.103 676.982C664.24 677.796 663.809 678.952 663.809 680.449ZM677.7 650.444C676.838 650.444 676.162 650.876 675.674 651.738C675.169 652.585 674.722 653.952 674.331 655.84C673.013 662.122 670.343 665.264 666.323 665.264C663.979 665.264 662.026 664.295 660.464 662.358C658.885 660.405 658.096 657.858 658.096 654.717C658.096 651.364 658.885 648.687 660.464 646.685C662.043 644.666 664.093 643.657 666.616 643.657V650.713C665.607 650.713 664.777 651.038 664.126 651.689C663.459 652.34 663.125 653.358 663.125 654.741C663.125 655.929 663.394 656.849 663.931 657.5C664.468 658.151 665.151 658.477 665.981 658.477C666.763 658.477 667.397 658.11 667.886 657.378C668.358 656.629 668.773 655.376 669.131 653.618C669.473 651.86 669.863 650.379 670.303 649.175C671.67 645.448 674.038 643.584 677.407 643.584C679.816 643.584 681.769 644.618 683.267 646.685C684.748 648.752 685.488 651.421 685.488 654.692C685.488 656.906 685.098 658.875 684.316 660.601C683.519 662.31 682.437 663.652 681.069 664.629C679.686 665.605 678.197 666.094 676.602 666.094V659.404C677.855 659.339 678.815 658.875 679.482 658.013C680.15 657.15 680.483 655.994 680.483 654.546C680.483 653.195 680.231 652.178 679.727 651.494C679.206 650.794 678.53 650.444 677.7 650.444ZM685.488 626.86C685.488 630.734 684.3 633.892 681.924 636.333C679.548 638.758 676.382 639.971 672.427 639.971H671.743C669.09 639.971 666.722 639.458 664.639 638.433C662.539 637.407 660.928 635.959 659.805 634.087C658.665 632.199 658.096 630.05 658.096 627.642C658.096 624.028 659.235 621.188 661.514 619.121C663.792 617.038 667.023 615.996 671.206 615.996H674.087V632.817C675.812 632.59 677.196 631.906 678.237 630.767C679.279 629.611 679.8 628.154 679.8 626.396C679.8 623.678 678.815 621.554 676.846 620.024L680.728 616.558C682.225 617.616 683.397 619.048 684.243 620.854C685.073 622.661 685.488 624.663 685.488 626.86ZM663.809 627.666C663.809 629.066 664.281 630.205 665.225 631.084C666.169 631.947 667.52 632.5 669.277 632.744V622.93H668.716C667.153 622.962 665.949 623.385 665.103 624.199C664.24 625.013 663.809 626.169 663.809 627.666ZM658.584 605.474L661.636 605.254C659.276 603.366 658.096 600.835 658.096 597.661C658.096 594.862 658.918 592.778 660.562 591.411C662.205 590.044 664.663 589.344 667.935 589.312H685V596.367H668.105C666.608 596.367 665.526 596.693 664.858 597.344C664.175 597.995 663.833 599.077 663.833 600.591C663.833 602.576 664.679 604.066 666.372 605.059H685V612.114H658.584V605.474ZM652.09 575.493H658.584V570.977H663.76V575.493H676.943C677.92 575.493 678.62 575.306 679.043 574.932C679.466 574.557 679.678 573.841 679.678 572.783C679.678 572.002 679.621 571.31 679.507 570.708H684.854C685.277 572.091 685.488 573.516 685.488 574.98C685.488 579.928 682.99 582.451 677.993 582.549H663.76V586.406H658.584V582.549H652.09V575.493ZM685 551.738C684.365 552.064 683.576 552.3 682.632 552.446C684.536 554.155 685.488 556.377 685.488 559.111C685.488 561.699 684.74 563.848 683.242 565.557C681.745 567.249 679.857 568.096 677.578 568.096C674.779 568.096 672.63 567.062 671.133 564.995C669.635 562.912 668.879 559.909 668.862 555.986V552.739H667.349C666.128 552.739 665.151 553.057 664.419 553.691C663.687 554.31 663.32 555.295 663.32 556.646C663.32 557.834 663.605 558.77 664.175 559.453C664.744 560.12 665.526 560.454 666.519 560.454V567.51C664.989 567.51 663.573 567.038 662.271 566.094C660.968 565.15 659.951 563.815 659.219 562.09C658.47 560.365 658.096 558.428 658.096 556.279C658.096 553.024 658.918 550.444 660.562 548.54C662.189 546.619 664.484 545.659 667.446 545.659H678.896C681.403 545.643 683.299 545.293 684.585 544.609H685V551.738ZM680.093 557.573C680.093 556.532 679.865 555.571 679.409 554.692C678.937 553.813 678.311 553.162 677.529 552.739H672.988V555.376C672.988 558.908 674.209 560.788 676.65 561.016L677.065 561.04C677.944 561.04 678.669 560.731 679.238 560.112C679.808 559.494 680.093 558.647 680.093 557.573ZM652.09 531.792H658.584V527.275H663.76V531.792H676.943C677.92 531.792 678.62 531.605 679.043 531.23C679.466 530.856 679.678 530.14 679.678 529.082C679.678 528.301 679.621 527.609 679.507 527.007H684.854C685.277 528.39 685.488 529.814 685.488 531.279C685.488 536.227 682.99 538.75 677.993 538.848H663.76V542.705H658.584V538.848H652.09V531.792ZM685 515.898V522.979H658.584V515.898H685ZM651.748 523.394C650.69 523.394 649.819 523.044 649.136 522.344C648.452 521.628 648.11 520.659 648.11 519.438C648.11 518.234 648.452 517.274 649.136 516.558C649.819 515.841 650.69 515.483 651.748 515.483C652.822 515.483 653.701 515.85 654.385 516.582C655.068 517.298 655.41 518.25 655.41 519.438C655.41 520.627 655.068 521.587 654.385 522.319C653.701 523.035 652.822 523.394 651.748 523.394ZM671.548 511.162C668.927 511.162 666.592 510.658 664.541 509.648C662.49 508.639 660.903 507.191 659.78 505.303C658.657 503.398 658.096 501.193 658.096 498.687C658.096 495.122 659.186 492.217 661.367 489.971C663.548 487.708 666.51 486.447 670.254 486.187L672.061 486.138C676.113 486.138 679.368 487.269 681.826 489.531C684.268 491.794 685.488 494.829 685.488 498.638C685.488 502.446 684.268 505.49 681.826 507.769C679.385 510.031 676.064 511.162 671.865 511.162H671.548ZM672.061 504.106C674.567 504.106 676.488 503.634 677.822 502.69C679.141 501.746 679.8 500.396 679.8 498.638C679.8 496.929 679.149 495.594 677.847 494.634C676.528 493.674 674.429 493.193 671.548 493.193C669.09 493.193 667.186 493.674 665.835 494.634C664.484 495.594 663.809 496.945 663.809 498.687C663.809 500.412 664.484 501.746 665.835 502.69C667.17 503.634 669.245 504.106 672.061 504.106ZM658.584 475.298L661.636 475.078C659.276 473.19 658.096 470.659 658.096 467.485C658.096 464.686 658.918 462.603 660.562 461.235C662.205 459.868 664.663 459.168 667.935 459.136H685V466.191H668.105C666.608 466.191 665.526 466.517 664.858 467.168C664.175 467.819 663.833 468.901 663.833 470.415C663.833 472.401 664.679 473.89 666.372 474.883H685V481.938H658.584V475.298ZM679.116 433.525V417.974H685V440.85H649.453V433.525H679.116ZM685 398.906C684.365 399.232 683.576 399.468 682.632 399.614C684.536 401.323 685.488 403.545 685.488 406.279C685.488 408.867 684.74 411.016 683.242 412.725C681.745 414.417 679.857 415.264 677.578 415.264C674.779 415.264 672.63 414.23 671.133 412.163C669.635 410.08 668.879 407.077 668.862 403.154V399.907H667.349C666.128 399.907 665.151 400.225 664.419 400.859C663.687 401.478 663.32 402.463 663.32 403.813C663.32 405.002 663.605 405.938 664.175 406.621C664.744 407.288 665.526 407.622 666.519 407.622V414.678C664.989 414.678 663.573 414.206 662.271 413.262C660.968 412.318 659.951 410.983 659.219 409.258C658.47 407.533 658.096 405.596 658.096 403.447C658.096 400.192 658.918 397.612 660.562 395.708C662.189 393.787 664.484 392.827 667.446 392.827H678.896C681.403 392.811 683.299 392.461 684.585 391.777H685V398.906ZM680.093 404.741C680.093 403.7 679.865 402.739 679.409 401.86C678.937 400.981 678.311 400.33 677.529 399.907H672.988V402.544C672.988 406.076 674.209 407.956 676.65 408.184L677.065 408.208C677.944 408.208 678.669 407.899 679.238 407.28C679.808 406.662 680.093 405.815 680.093 404.741ZM675.015 377.935L658.584 373.052V365.483L689.102 376.104L690.493 376.689C693.944 378.268 695.669 380.872 695.669 384.502C695.669 385.527 695.514 386.569 695.205 387.627H689.858L689.883 386.553C689.883 385.218 689.679 384.225 689.272 383.574C688.866 382.907 688.19 382.386 687.246 382.012L685.073 381.182L658.584 390.435V382.842L675.015 377.935ZM685.488 350.884C685.488 354.757 684.3 357.915 681.924 360.356C679.548 362.782 676.382 363.994 672.427 363.994H671.743C669.09 363.994 666.722 363.481 664.639 362.456C662.539 361.431 660.928 359.982 659.805 358.11C658.665 356.222 658.096 354.074 658.096 351.665C658.096 348.052 659.235 345.212 661.514 343.145C663.792 341.061 667.023 340.02 671.206 340.02H674.087V356.841C675.812 356.613 677.196 355.929 678.237 354.79C679.279 353.634 679.8 352.178 679.8 350.42C679.8 347.702 678.815 345.578 676.846 344.048L680.728 340.581C682.225 341.639 683.397 343.071 684.243 344.878C685.073 346.685 685.488 348.687 685.488 350.884ZM663.809 351.689C663.809 353.089 664.281 354.229 665.225 355.107C666.169 355.97 667.52 356.523 669.277 356.768V346.953H668.716C667.153 346.986 665.949 347.409 665.103 348.223C664.24 349.036 663.809 350.192 663.809 351.689ZM665.2 321.147C665.07 322.108 665.005 322.954 665.005 323.687C665.005 326.356 665.908 328.105 667.715 328.936H685V335.991H658.584V329.326L661.733 329.131C659.308 327.715 658.096 325.754 658.096 323.247C658.096 322.466 658.201 321.733 658.413 321.05L665.2 321.147Z" fill="white"/>
<path d="M1273 532L1288 540.66V523.34L1273 532ZM1423 532L1408 523.34V540.66L1423 532ZM1286.5 533.5H1409.5V530.5H1286.5V533.5Z" fill="black"/>
<rect x="1464.5" y="401.5" width="265" height="262" fill="#4A72D9" stroke="#2253D1" stroke-width="5"/>
<path d="M1597 701.5C1633.06 701.5 1665.79 697.512 1689.58 691.014C1701.46 687.77 1711.26 683.862 1718.14 679.418C1724.91 675.046 1729.5 669.724 1729.5 663.5C1729.5 657.276 1724.91 651.954 1718.14 647.582C1711.26 643.138 1701.46 639.23 1689.58 635.986C1665.79 629.488 1633.06 625.5 1597 625.5C1560.94 625.5 1528.21 629.488 1504.42 635.986C1492.54 639.23 1482.74 643.138 1475.86 647.582C1469.09 651.954 1464.5 657.276 1464.5 663.5C1464.5 669.724 1469.09 675.046 1475.86 679.418C1482.74 683.862 1492.54 687.77 1504.42 691.014C1528.21 697.512 1560.94 701.5 1597 701.5Z" fill="#4A72D9" stroke="#2253D1" stroke-width="5"/>
<rect x="1467" y="406" width="260" height="257" fill="#4A72D9"/>
<path d="M1497.28 550V514.453H1508.22C1511.34 514.453 1514.13 515.161 1516.59 516.577C1519.06 517.977 1520.99 519.979 1522.38 522.583C1523.76 525.171 1524.45 528.117 1524.45 531.421V533.057C1524.45 536.361 1523.77 539.299 1522.4 541.87C1521.05 544.442 1519.14 546.436 1516.66 547.852C1514.19 549.268 1511.4 549.984 1508.29 550H1497.28ZM1504.6 520.386V544.116H1508.14C1511.01 544.116 1513.2 543.18 1514.71 541.309C1516.22 539.437 1517 536.759 1517.03 533.276V531.396C1517.03 527.783 1516.28 525.049 1514.78 523.193C1513.29 521.322 1511.1 520.386 1508.22 520.386H1504.6ZM1544.64 550C1544.32 549.365 1544.08 548.576 1543.93 547.632C1542.22 549.536 1540 550.488 1537.27 550.488C1534.68 550.488 1532.53 549.74 1530.82 548.242C1529.13 546.745 1528.28 544.857 1528.28 542.578C1528.28 539.779 1529.32 537.63 1531.38 536.133C1533.47 534.635 1536.47 533.879 1540.39 533.862H1543.64V532.349C1543.64 531.128 1543.32 530.151 1542.69 529.419C1542.07 528.687 1541.09 528.32 1539.73 528.32C1538.55 528.32 1537.61 528.605 1536.93 529.175C1536.26 529.744 1535.93 530.526 1535.93 531.519H1528.87C1528.87 529.989 1529.34 528.573 1530.29 527.271C1531.23 525.968 1532.56 524.951 1534.29 524.219C1536.02 523.47 1537.95 523.096 1540.1 523.096C1543.36 523.096 1545.94 523.918 1547.84 525.562C1549.76 527.189 1550.72 529.484 1550.72 532.446V543.896C1550.74 546.403 1551.09 548.299 1551.77 549.585V550H1544.64ZM1538.81 545.093C1539.85 545.093 1540.81 544.865 1541.69 544.409C1542.57 543.937 1543.22 543.311 1543.64 542.529V537.988H1541C1537.47 537.988 1535.59 539.209 1535.36 541.65L1535.34 542.065C1535.34 542.944 1535.65 543.669 1536.27 544.238C1536.89 544.808 1537.73 545.093 1538.81 545.093ZM1564.59 517.09V523.584H1569.1V528.76H1564.59V541.943C1564.59 542.92 1564.78 543.62 1565.15 544.043C1565.52 544.466 1566.24 544.678 1567.3 544.678C1568.08 544.678 1568.77 544.621 1569.37 544.507V549.854C1567.99 550.277 1566.57 550.488 1565.1 550.488C1560.15 550.488 1557.63 547.99 1557.53 542.993V528.76H1553.67V523.584H1557.53V517.09H1564.59ZM1588.34 550C1588.02 549.365 1587.78 548.576 1587.63 547.632C1585.93 549.536 1583.7 550.488 1580.97 550.488C1578.38 550.488 1576.23 549.74 1574.52 548.242C1572.83 546.745 1571.99 544.857 1571.99 542.578C1571.99 539.779 1573.02 537.63 1575.09 536.133C1577.17 534.635 1580.17 533.879 1584.09 533.862H1587.34V532.349C1587.34 531.128 1587.02 530.151 1586.39 529.419C1585.77 528.687 1584.79 528.32 1583.44 528.32C1582.25 528.32 1581.31 528.605 1580.63 529.175C1579.96 529.744 1579.63 530.526 1579.63 531.519H1572.57C1572.57 529.989 1573.04 528.573 1573.99 527.271C1574.93 525.968 1576.27 524.951 1577.99 524.219C1579.72 523.47 1581.65 523.096 1583.8 523.096C1587.06 523.096 1589.64 523.918 1591.54 525.562C1593.46 527.189 1594.42 529.484 1594.42 532.446V543.896C1594.44 546.403 1594.79 548.299 1595.47 549.585V550H1588.34ZM1582.51 545.093C1583.55 545.093 1584.51 544.865 1585.39 544.409C1586.27 543.937 1586.92 543.311 1587.34 542.529V537.988H1584.71C1581.17 537.988 1579.29 539.209 1579.07 541.65L1579.04 542.065C1579.04 542.944 1579.35 543.669 1579.97 544.238C1580.59 544.808 1581.43 545.093 1582.51 545.093ZM1623.65 537.036C1623.65 541.268 1622.74 544.572 1620.94 546.948C1619.13 549.308 1616.61 550.488 1613.37 550.488C1610.5 550.488 1608.22 549.39 1606.51 547.192L1606.19 550H1599.84V512.5H1606.9V525.952C1608.53 524.048 1610.67 523.096 1613.32 523.096C1616.54 523.096 1619.06 524.284 1620.89 526.66C1622.73 529.02 1623.65 532.349 1623.65 536.646V537.036ZM1616.59 536.523C1616.59 533.854 1616.17 531.909 1615.32 530.688C1614.47 529.451 1613.21 528.833 1611.54 528.833C1609.29 528.833 1607.74 529.753 1606.9 531.592V542.017C1607.76 543.872 1609.32 544.8 1611.58 544.8C1613.86 544.8 1615.36 543.677 1616.08 541.431C1616.42 540.356 1616.59 538.721 1616.59 536.523ZM1643.32 550C1643 549.365 1642.76 548.576 1642.62 547.632C1640.91 549.536 1638.68 550.488 1635.95 550.488C1633.36 550.488 1631.21 549.74 1629.5 548.242C1627.81 546.745 1626.97 544.857 1626.97 542.578C1626.97 539.779 1628 537.63 1630.07 536.133C1632.15 534.635 1635.15 533.879 1639.08 533.862H1642.32V532.349C1642.32 531.128 1642 530.151 1641.37 529.419C1640.75 528.687 1639.77 528.32 1638.42 528.32C1637.23 528.32 1636.29 528.605 1635.61 529.175C1634.94 529.744 1634.61 530.526 1634.61 531.519H1627.55C1627.55 529.989 1628.02 528.573 1628.97 527.271C1629.91 525.968 1631.25 524.951 1632.97 524.219C1634.7 523.47 1636.63 523.096 1638.78 523.096C1642.04 523.096 1644.62 523.918 1646.52 525.562C1648.44 527.189 1649.4 529.484 1649.4 532.446V543.896C1649.42 546.403 1649.77 548.299 1650.45 549.585V550H1643.32ZM1637.49 545.093C1638.53 545.093 1639.49 544.865 1640.37 544.409C1641.25 543.937 1641.9 543.311 1642.32 542.529V537.988H1639.69C1636.15 537.988 1634.27 539.209 1634.05 541.65L1634.02 542.065C1634.02 542.944 1634.33 543.669 1634.95 544.238C1635.57 544.808 1636.41 545.093 1637.49 545.093ZM1669.13 542.7C1669.13 541.838 1668.7 541.162 1667.83 540.674C1666.99 540.169 1665.62 539.722 1663.73 539.331C1657.45 538.013 1654.31 535.343 1654.31 531.323C1654.31 528.979 1655.28 527.026 1657.21 525.464C1659.17 523.885 1661.72 523.096 1664.86 523.096C1668.21 523.096 1670.89 523.885 1672.89 525.464C1674.91 527.043 1675.92 529.093 1675.92 531.616H1668.86C1668.86 530.607 1668.53 529.777 1667.88 529.126C1667.23 528.459 1666.22 528.125 1664.83 528.125C1663.64 528.125 1662.72 528.394 1662.07 528.931C1661.42 529.468 1661.1 530.151 1661.1 530.981C1661.1 531.763 1661.46 532.397 1662.2 532.886C1662.94 533.358 1664.2 533.773 1665.96 534.131C1667.71 534.473 1669.19 534.863 1670.4 535.303C1674.13 536.67 1675.99 539.038 1675.99 542.407C1675.99 544.816 1674.96 546.769 1672.89 548.267C1670.82 549.748 1668.15 550.488 1664.88 550.488C1662.67 550.488 1660.7 550.098 1658.97 549.316C1657.26 548.519 1655.92 547.437 1654.94 546.069C1653.97 544.686 1653.48 543.197 1653.48 541.602H1660.17C1660.23 542.855 1660.7 543.815 1661.56 544.482C1662.42 545.15 1663.58 545.483 1665.03 545.483C1666.38 545.483 1667.4 545.231 1668.08 544.727C1668.78 544.206 1669.13 543.53 1669.13 542.7ZM1692.71 550.488C1688.84 550.488 1685.68 549.3 1683.24 546.924C1680.82 544.548 1679.6 541.382 1679.6 537.427V536.743C1679.6 534.09 1680.12 531.722 1681.14 529.639C1682.17 527.539 1683.61 525.928 1685.49 524.805C1687.37 523.665 1689.52 523.096 1691.93 523.096C1695.54 523.096 1698.39 524.235 1700.45 526.514C1702.54 528.792 1703.58 532.023 1703.58 536.206V539.087H1686.76C1686.98 540.812 1687.67 542.196 1688.81 543.237C1689.96 544.279 1691.42 544.8 1693.18 544.8C1695.89 544.8 1698.02 543.815 1699.55 541.846L1703.02 545.728C1701.96 547.225 1700.53 548.397 1698.72 549.243C1696.91 550.073 1694.91 550.488 1692.71 550.488ZM1691.91 528.809C1690.51 528.809 1689.37 529.281 1688.49 530.225C1687.63 531.169 1687.07 532.52 1686.83 534.277H1696.64V533.716C1696.61 532.153 1696.19 530.949 1695.37 530.103C1694.56 529.24 1693.4 528.809 1691.91 528.809Z" fill="white"/>
<path d="M1597 440.5C1633.06 440.5 1665.79 436.512 1689.58 430.014C1701.46 426.77 1711.26 422.862 1718.14 418.418C1724.91 414.046 1729.5 408.724 1729.5 402.5C1729.5 396.276 1724.91 390.954 1718.14 386.582C1711.26 382.138 1701.46 378.23 1689.58 374.986C1665.79 368.488 1633.06 364.5 1597 364.5C1560.94 364.5 1528.21 368.488 1504.42 374.986C1492.54 378.23 1482.74 382.138 1475.86 386.582C1469.09 390.954 1464.5 396.276 1464.5 402.5C1464.5 408.724 1469.09 414.046 1475.86 418.418C1482.74 422.862 1492.54 426.77 1504.42 430.014C1528.21 436.512 1560.94 440.5 1597 440.5Z" fill="#4A72D9" stroke="#2253D1" stroke-width="5"/>
</svg>
