<svg width="1920" height="1080" viewBox="0 0 1920 1080" fill="none" xmlns="http://www.w3.org/2000/svg">
<rect width="1920" height="1080" fill="white"/>
<g filter="url(#filter0_d)">
<rect x="517" y="229" width="811" height="700" rx="50" fill="url(#paint0_linear)" shape-rendering="crispEdges"/>
<rect x="518" y="230" width="809" height="698" rx="49" stroke="black" stroke-width="2" shape-rendering="crispEdges"/>
</g>
<g filter="url(#filter1_d)">
<rect x="587" y="357" width="550" height="450" rx="20" fill="url(#paint1_linear)" shape-rendering="crispEdges"/>
<rect x="588" y="358" width="548" height="448" rx="19" stroke="black" stroke-width="2" shape-rendering="crispEdges"/>
</g>
<path d="M1018 541.8L1003.57 566.8H1032.43L1018 541.8ZM1020.5 667.8V564.3H1015.5V667.8H1020.5Z" fill="black"/>
<path d="M943.029 503.417L918.029 488.983V517.851L943.029 503.417ZM793.029 505.917H920.529V500.917H793.029V505.917Z" fill="black"/>
<path d="M815.965 383.562L823.27 404.188L830.535 383.562H838.23V412H832.352V404.227L832.938 390.809L825.262 412H821.238L813.582 390.828L814.168 404.227V412H808.309V383.562H815.965ZM842.098 401.238C842.098 399.142 842.501 397.273 843.309 395.633C844.116 393.992 845.275 392.723 846.785 391.824C848.309 390.926 850.073 390.477 852.078 390.477C854.93 390.477 857.254 391.349 859.051 393.094C860.861 394.839 861.87 397.208 862.078 400.203L862.117 401.648C862.117 404.891 861.212 407.495 859.402 409.461C857.592 411.414 855.164 412.391 852.117 412.391C849.07 412.391 846.635 411.414 844.812 409.461C843.003 407.508 842.098 404.852 842.098 401.492V401.238ZM847.742 401.648C847.742 403.654 848.12 405.19 848.875 406.258C849.63 407.312 850.711 407.84 852.117 407.84C853.484 407.84 854.552 407.319 855.32 406.277C856.089 405.223 856.473 403.543 856.473 401.238C856.473 399.272 856.089 397.749 855.32 396.668C854.552 395.587 853.471 395.047 852.078 395.047C850.698 395.047 849.63 395.587 848.875 396.668C848.12 397.736 847.742 399.396 847.742 401.648ZM864.715 401.277C864.715 397.983 865.451 395.359 866.922 393.406C868.406 391.453 870.431 390.477 872.996 390.477C875.053 390.477 876.753 391.245 878.094 392.781V382H883.758V412H878.66L878.387 409.754C876.98 411.512 875.171 412.391 872.957 412.391C870.47 412.391 868.471 411.414 866.961 409.461C865.464 407.495 864.715 404.767 864.715 401.277ZM870.359 401.688C870.359 403.667 870.704 405.184 871.395 406.238C872.085 407.293 873.087 407.82 874.402 407.82C876.147 407.82 877.378 407.085 878.094 405.613V397.273C877.391 395.802 876.173 395.066 874.441 395.066C871.72 395.066 870.359 397.273 870.359 401.688ZM897.859 412.391C894.76 412.391 892.234 411.44 890.281 409.539C888.341 407.638 887.371 405.105 887.371 401.941V401.395C887.371 399.272 887.781 397.378 888.602 395.711C889.422 394.031 890.581 392.742 892.078 391.844C893.589 390.932 895.307 390.477 897.234 390.477C900.125 390.477 902.397 391.388 904.051 393.211C905.717 395.034 906.551 397.618 906.551 400.965V403.27H893.094C893.276 404.65 893.823 405.757 894.734 406.59C895.659 407.423 896.824 407.84 898.23 407.84C900.405 407.84 902.104 407.052 903.328 405.477L906.102 408.582C905.255 409.78 904.109 410.717 902.664 411.395C901.219 412.059 899.617 412.391 897.859 412.391ZM897.215 395.047C896.095 395.047 895.184 395.424 894.48 396.18C893.79 396.935 893.348 398.016 893.152 399.422H901.004V398.973C900.978 397.723 900.639 396.759 899.988 396.082C899.337 395.392 898.413 395.047 897.215 395.047ZM915.73 412H910.066V382H915.73V412Z" fill="black"/>
<rect x="944" y="670" width="148" height="76" fill="#33428D" stroke="black" stroke-width="2"/>
<rect x="944" y="467.2" width="148" height="76" fill="#33428D" stroke="black" stroke-width="2"/>
<rect x="644" y="467.2" width="148" height="76" fill="#33428D" stroke="black" stroke-width="2"/>
<path d="M1376.08 661L1426.08 689.868V632.132L1376.08 661ZM1546.08 656H1421.08V666H1546.08V656Z" fill="#33428D"/>
<path d="M1546 570L1496 541.132V598.868L1546 570ZM1376 575H1501V565H1376V575Z" fill="#33428D"/>
<path d="M1140.01 730L1190.01 758.868V701.132L1140.01 730ZM1285.01 725H1185.01V735H1285.01V725Z" fill="#33428D"/>
<path d="M331 670L381 698.868V641.132L331 670ZM586 665H376V675H586V665Z" fill="#33428D"/>
<path d="M586 449L536 420.132V477.868L586 449ZM331 454H541V444H331V454Z" fill="#33428D"/>
<path d="M1270 595L1298.87 545H1241.13L1270 595ZM1265 475V550H1275V475H1265Z" fill="#33428D"/>
<path d="M1284 660V735" stroke="#33428D" stroke-width="10"/>
<line x1="1135" y1="477" x2="1275" y2="477" stroke="#33428D" stroke-width="10"/>
<circle cx="1240" cy="821" r="34" stroke="black" stroke-width="2"/>
<path d="M1248.44 836H1228.95V832.133L1238.15 822.328C1239.41 820.948 1240.34 819.743 1240.94 818.715C1241.55 817.686 1241.86 816.71 1241.86 815.785C1241.86 814.522 1241.54 813.533 1240.9 812.816C1240.26 812.087 1239.35 811.723 1238.17 811.723C1236.89 811.723 1235.88 812.165 1235.14 813.051C1234.41 813.923 1234.05 815.076 1234.05 816.508H1228.38C1228.38 814.776 1228.79 813.194 1229.61 811.762C1230.45 810.329 1231.62 809.21 1233.13 808.402C1234.64 807.582 1236.35 807.172 1238.27 807.172C1241.2 807.172 1243.47 807.875 1245.08 809.281C1246.71 810.688 1247.52 812.673 1247.52 815.238C1247.52 816.645 1247.16 818.077 1246.43 819.535C1245.7 820.993 1244.45 822.693 1242.68 824.633L1236.21 831.449H1248.44V836Z" fill="black"/>
<circle cx="827" cy="650" r="34" stroke="black" stroke-width="2"/>
<path d="M821.691 648.281H824.699C826.132 648.281 827.193 647.923 827.883 647.207C828.573 646.491 828.918 645.54 828.918 644.355C828.918 643.21 828.573 642.318 827.883 641.68C827.206 641.042 826.268 640.723 825.07 640.723C823.99 640.723 823.085 641.022 822.355 641.621C821.626 642.207 821.262 642.975 821.262 643.926H815.617C815.617 642.441 816.014 641.113 816.809 639.941C817.616 638.757 818.736 637.832 820.168 637.168C821.613 636.504 823.202 636.172 824.934 636.172C827.941 636.172 830.298 636.895 832.004 638.34C833.71 639.772 834.562 641.751 834.562 644.277C834.562 645.579 834.165 646.777 833.371 647.871C832.577 648.965 831.535 649.805 830.246 650.391C831.848 650.964 833.039 651.823 833.82 652.969C834.615 654.115 835.012 655.469 835.012 657.031C835.012 659.557 834.087 661.582 832.238 663.105C830.402 664.629 827.967 665.391 824.934 665.391C822.095 665.391 819.771 664.642 817.961 663.145C816.164 661.647 815.266 659.668 815.266 657.207H820.91C820.91 658.275 821.307 659.147 822.102 659.824C822.909 660.501 823.898 660.84 825.07 660.84C826.411 660.84 827.46 660.488 828.215 659.785C828.983 659.069 829.367 658.125 829.367 656.953C829.367 654.115 827.805 652.695 824.68 652.695H821.691V648.281Z" fill="black"/>
<circle cx="451" cy="751" r="34" stroke="black" stroke-width="2"/>
<path d="M456.648 755.297H459.871V759.848H456.648V766H451.004V759.848H439.344L439.09 756.293L450.945 737.562H456.648V755.297ZM444.715 755.297H451.004V745.258L450.633 745.902L444.715 755.297Z" fill="black"/>
<circle cx="438" cy="377" r="34" stroke="black" stroke-width="2"/>
<path d="M427.789 378.016L429.43 363.562H445.367V368.27H434.059L433.355 374.383C434.697 373.667 436.122 373.309 437.633 373.309C440.341 373.309 442.464 374.148 444 375.828C445.536 377.508 446.305 379.858 446.305 382.879C446.305 384.715 445.914 386.362 445.133 387.82C444.365 389.266 443.258 390.392 441.812 391.199C440.367 391.993 438.661 392.391 436.695 392.391C434.977 392.391 433.382 392.046 431.91 391.355C430.439 390.652 429.273 389.669 428.414 388.406C427.568 387.143 427.118 385.704 427.066 384.09H432.652C432.77 385.275 433.18 386.199 433.883 386.863C434.599 387.514 435.53 387.84 436.676 387.84C437.952 387.84 438.935 387.384 439.625 386.473C440.315 385.548 440.66 384.246 440.66 382.566C440.66 380.952 440.263 379.715 439.469 378.855C438.674 377.996 437.548 377.566 436.09 377.566C434.749 377.566 433.661 377.918 432.828 378.621L432.281 379.129L427.789 378.016Z" fill="black"/>
<circle cx="1465" cy="481" r="34" stroke="black" stroke-width="2"/>
<path d="M1469.26 467.27V471.918H1468.71C1466.16 471.957 1464.11 472.621 1462.54 473.91C1460.99 475.199 1460.06 476.99 1459.75 479.281C1461.26 477.745 1463.17 476.977 1465.47 476.977C1467.95 476.977 1469.91 477.862 1471.37 479.633C1472.83 481.404 1473.56 483.734 1473.56 486.625C1473.56 488.474 1473.15 490.147 1472.35 491.645C1471.55 493.142 1470.42 494.307 1468.95 495.141C1467.49 495.974 1465.84 496.391 1463.99 496.391C1460.99 496.391 1458.57 495.349 1456.72 493.266C1454.89 491.182 1453.97 488.402 1453.97 484.926V482.895C1453.97 479.809 1454.55 477.087 1455.71 474.73C1456.88 472.361 1458.55 470.531 1460.73 469.242C1462.91 467.94 1465.45 467.283 1468.32 467.27H1469.26ZM1463.75 481.508C1462.84 481.508 1462.02 481.749 1461.27 482.23C1460.53 482.699 1459.98 483.324 1459.63 484.105V485.824C1459.63 487.712 1460 489.19 1460.75 490.258C1461.49 491.312 1462.53 491.84 1463.87 491.84C1465.08 491.84 1466.06 491.365 1466.8 490.414C1467.56 489.451 1467.93 488.207 1467.93 486.684C1467.93 485.134 1467.56 483.884 1466.8 482.934C1466.05 481.983 1465.03 481.508 1463.75 481.508Z" fill="black"/>
<circle cx="1465" cy="761" r="34" stroke="black" stroke-width="2"/>
<path d="M1467.66 776H1462.02V754.242L1455.28 756.332V751.742L1467.05 747.523H1467.66V776Z" fill="black"/>
<g filter="url(#filter2_d)">
<rect x="63.5" y="305.367" width="265" height="469.458" fill="#4A72D9" stroke="#2253D1" stroke-width="5"/>
<path d="M196 843.5C232.198 843.5 265.092 836.264 289.03 824.451C312.809 812.716 328.5 796.034 328.5 776.843C328.5 757.653 312.809 740.971 289.03 729.236C265.092 717.422 232.198 710.187 196 710.187C159.802 710.187 126.908 717.422 102.97 729.236C79.1909 740.971 63.5 757.653 63.5 776.843C63.5 796.034 79.1909 812.716 102.97 824.451C126.908 836.264 159.802 843.5 196 843.5Z" fill="#4A72D9" stroke="#2253D1" stroke-width="5"/>
<rect x="66" y="311.482" width="260" height="464.458" fill="#4A72D9"/>
<path d="M196 371.813C232.198 371.813 265.092 364.578 289.03 352.764C312.809 341.029 328.5 324.347 328.5 305.157C328.5 285.966 312.809 269.284 289.03 257.549C265.092 245.736 232.198 238.5 196 238.5C159.802 238.5 126.908 245.736 102.97 257.549C79.1909 269.284 63.5 285.966 63.5 305.157C63.5 324.347 79.1909 341.029 102.97 352.764C126.908 364.578 159.802 371.813 196 371.813Z" fill="#4A72D9" stroke="#2253D1" stroke-width="5"/>
</g>
<g filter="url(#filter3_d)">
<g filter="url(#filter4_d)">
<rect x="1566" y="480" width="280" height="281" rx="30" fill="url(#paint2_linear)" shape-rendering="crispEdges"/>
</g>
<path d="M1815.38 482.458H1596.63C1580.52 482.458 1567.46 495.517 1567.46 511.625V730.375C1567.46 746.483 1580.52 759.542 1596.63 759.542H1815.38C1831.48 759.542 1844.54 746.483 1844.54 730.375V511.625C1844.54 495.517 1831.48 482.458 1815.38 482.458Z" stroke="black" stroke-width="2"/>
<path d="M1706 562.667H1603.92C1595.86 562.667 1589.33 569.196 1589.33 577.25V723.083C1589.33 731.137 1595.86 737.667 1603.92 737.667H1706C1714.05 737.667 1720.58 731.137 1720.58 723.083V577.25C1720.58 569.196 1714.05 562.667 1706 562.667Z" fill="#CCCCCC"/>
<path d="M1698.71 569.958H1611.21C1603.15 569.958 1596.62 576.487 1596.62 584.542V715.792C1596.62 723.846 1603.15 730.375 1611.21 730.375H1698.71C1706.76 730.375 1713.29 723.846 1713.29 715.792V584.542C1713.29 576.487 1706.76 569.958 1698.71 569.958Z" stroke="black" stroke-width="2"/>
<path d="M1567.46 540.792H1844.54" stroke="black" stroke-width="2" stroke-linecap="square"/>
<path d="M1742.46 715.792H1815.38M1742.46 584.542H1815.38H1742.46ZM1742.46 628.292H1815.38H1742.46ZM1742.46 672.042H1815.38H1742.46Z" stroke="black" stroke-width="2" stroke-linecap="round"/>
<path d="M1729.63 526.208C1737.68 526.208 1744.21 519.679 1744.21 511.625C1744.21 503.571 1737.68 497.042 1729.63 497.042C1721.57 497.042 1715.04 503.571 1715.04 511.625C1715.04 519.679 1721.57 526.208 1729.63 526.208Z" fill="#2DB832"/>
<path d="M1769.79 526.208C1777.85 526.208 1784.38 519.679 1784.38 511.625C1784.38 503.571 1777.85 497.042 1769.79 497.042C1761.74 497.042 1755.21 503.571 1755.21 511.625C1755.21 519.679 1761.74 526.208 1769.79 526.208Z" fill="#F3E13D"/>
<path d="M1805.96 526.208C1814.01 526.208 1820.54 519.679 1820.54 511.625C1820.54 503.571 1814.01 497.042 1805.96 497.042C1797.9 497.042 1791.38 503.571 1791.38 511.625C1791.38 519.679 1797.9 526.208 1805.96 526.208Z" fill="#EB3232"/>
</g>
<defs>
<filter id="filter0_d" x="517" y="229" width="835" height="724" filterUnits="userSpaceOnUse" color-interpolation-filters="sRGB">
<feFlood flood-opacity="0" result="BackgroundImageFix"/>
<feColorMatrix in="SourceAlpha" type="matrix" values="0 0 0 0 0 0 0 0 0 0 0 0 0 0 0 0 0 0 127 0" result="hardAlpha"/>
<feOffset dx="20" dy="20"/>
<feGaussianBlur stdDeviation="2"/>
<feComposite in2="hardAlpha" operator="out"/>
<feColorMatrix type="matrix" values="0 0 0 0 0 0 0 0 0 0 0 0 0 0 0 0 0 0 0.25 0"/>
<feBlend mode="normal" in2="BackgroundImageFix" result="effect1_dropShadow"/>
<feBlend mode="normal" in="SourceGraphic" in2="effect1_dropShadow" result="shape"/>
</filter>
<filter id="filter1_d" x="587" y="357" width="574" height="474" filterUnits="userSpaceOnUse" color-interpolation-filters="sRGB">
<feFlood flood-opacity="0" result="BackgroundImageFix"/>
<feColorMatrix in="SourceAlpha" type="matrix" values="0 0 0 0 0 0 0 0 0 0 0 0 0 0 0 0 0 0 127 0" result="hardAlpha"/>
<feOffset dx="20" dy="20"/>
<feGaussianBlur stdDeviation="2"/>
<feComposite in2="hardAlpha" operator="out"/>
<feColorMatrix type="matrix" values="0 0 0 0 0 0 0 0 0 0 0 0 0 0 0 0 0 0 0.25 0"/>
<feBlend mode="normal" in2="BackgroundImageFix" result="effect1_dropShadow"/>
<feBlend mode="normal" in="SourceGraphic" in2="effect1_dropShadow" result="shape"/>
</filter>
<filter id="filter2_d" x="61" y="236" width="284" height="624" filterUnits="userSpaceOnUse" color-interpolation-filters="sRGB">
<feFlood flood-opacity="0" result="BackgroundImageFix"/>
<feColorMatrix in="SourceAlpha" type="matrix" values="0 0 0 0 0 0 0 0 0 0 0 0 0 0 0 0 0 0 127 0" result="hardAlpha"/>
<feOffset dx="10" dy="10"/>
<feGaussianBlur stdDeviation="2"/>
<feComposite in2="hardAlpha" operator="out"/>
<feColorMatrix type="matrix" values="0 0 0 0 0 0 0 0 0 0 0 0 0 0 0 0 0 0 0.25 0"/>
<feBlend mode="normal" in2="BackgroundImageFix" result="effect1_dropShadow"/>
<feBlend mode="normal" in="SourceGraphic" in2="effect1_dropShadow" result="shape"/>
</filter>
<filter id="filter3_d" x="1531" y="446" width="374" height="374" filterUnits="userSpaceOnUse" color-interpolation-filters="sRGB">
<feFlood flood-opacity="0" result="BackgroundImageFix"/>
<feColorMatrix in="SourceAlpha" type="matrix" values="0 0 0 0 0 0 0 0 0 0 0 0 0 0 0 0 0 0 127 0" result="hardAlpha"/>
<feOffset dx="20" dy="20"/>
<feGaussianBlur stdDeviation="2"/>
<feComposite in2="hardAlpha" operator="out"/>
<feColorMatrix type="matrix" values="0 0 0 0 0 0 0 0 0 0 0 0 0 0 0 0 0 0 0.25 0"/>
<feBlend mode="normal" in2="BackgroundImageFix" result="effect1_dropShadow"/>
<feBlend mode="normal" in="SourceGraphic" in2="effect1_dropShadow" result="shape"/>
</filter>
<filter id="filter4_d" x="1566" y="480" width="304" height="305" filterUnits="userSpaceOnUse" color-interpolation-filters="sRGB">
<feFlood flood-opacity="0" result="BackgroundImageFix"/>
<feColorMatrix in="SourceAlpha" type="matrix" values="0 0 0 0 0 0 0 0 0 0 0 0 0 0 0 0 0 0 127 0" result="hardAlpha"/>
<feOffset dx="20" dy="20"/>
<feGaussianBlur stdDeviation="2"/>
<feComposite in2="hardAlpha" operator="out"/>
<feColorMatrix type="matrix" values="0 0 0 0 0 0 0 0 0 0 0 0 0 0 0 0 0 0 0.25 0"/>
<feBlend mode="normal" in2="BackgroundImageFix" result="effect1_dropShadow"/>
<feBlend mode="normal" in="SourceGraphic" in2="effect1_dropShadow" result="shape"/>
</filter>
<linearGradient id="paint0_linear" x1="922.5" y1="229" x2="922.5" y2="929" gradientUnits="userSpaceOnUse">
<stop offset="0.530617" stop-color="#DEDADA"/>
<stop offset="1" stop-color="#DEDADA" stop-opacity="0"/>
</linearGradient>
<linearGradient id="paint1_linear" x1="862" y1="357" x2="862" y2="807" gradientUnits="userSpaceOnUse">
<stop offset="0.305208" stop-color="#989CA9"/>
<stop offset="1" stop-color="#B4B6BB" stop-opacity="0"/>
</linearGradient>
<linearGradient id="paint2_linear" x1="1706" y1="480" x2="1706" y2="761" gradientUnits="userSpaceOnUse">
<stop offset="0.315625" stop-color="#C4C4C4"/>
<stop offset="1" stop-color="#C4C4C4" stop-opacity="0"/>
</linearGradient>
</defs>
</svg>
